<?xml version="1.0" encoding="UTF-8"?><svg id="uuid-25edcdab-70b9-42bc-9b91-f9855fa7258a" xmlns="http://www.w3.org/2000/svg" viewBox="0 0 100 39.54"><defs><style>.uuid-8e438447-fc7a-4b7e-8fe6-c460513c9319{fill:#30a46c;}.uuid-8e438447-fc7a-4b7e-8fe6-c460513c9319,.uuid-845f263c-59d6-482a-8f4c-52185e0b810b{stroke-width:0px;}.uuid-845f263c-59d6-482a-8f4c-52185e0b810b{fill:#111113;}</style></defs><g id="uuid-03deffc3-84c6-435e-976c-ab5d1d4fe219"><path class="uuid-8e438447-fc7a-4b7e-8fe6-c460513c9319" d="m18.56,32.6h4.92s.38-.19.38-.19c-.08-.09-.12-.22-.05-.36.07-.14.15-.26.24-.37l-.7.37h-4.79s0,.54,0,.54Z"/><circle class="uuid-8e438447-fc7a-4b7e-8fe6-c460513c9319" cx="23.57" cy="32.24" r=".98"/><path class="uuid-8e438447-fc7a-4b7e-8fe6-c460513c9319" d="m23.76,31.21c.57.1.94.65.84,1.21s-.65.94-1.21.84-.94-.65-.84-1.21.65-.94,1.21-.84Zm-.35,1.92c.49.09.96-.24,1.05-.73s-.24-.96-.73-1.05-.96.24-1.05.73.24.96.73,1.05Z"/><circle class="uuid-8e438447-fc7a-4b7e-8fe6-c460513c9319" cx="18.55" cy="32.4" r=".98"/><path class="uuid-8e438447-fc7a-4b7e-8fe6-c460513c9319" d="m18.73,31.37c.57.1.94.65.84,1.21s-.65.94-1.21.84-.94-.65-.84-1.21.65-.94,1.21-.84Zm-.35,1.92c.49.09.96-.24,1.05-.73s-.24-.96-.73-1.05-.96.24-1.05.73.24.96.73,1.05Z"/><path class="uuid-8e438447-fc7a-4b7e-8fe6-c460513c9319" d="m19.42,28.2c.1-.53.6-.88,1.13-.79s.88.6.79,1.13-.6.88-1.13.79-.88-.6-.79-1.13Z"/><path class="uuid-8e438447-fc7a-4b7e-8fe6-c460513c9319" d="m20.57,27.34c.57.1.94.65.84,1.21s-.65.94-1.21.84-.94-.65-.84-1.21.65-.94,1.21-.84Zm-.35,1.92c.49.09.96-.24,1.05-.73s-.24-.96-.73-1.05-.96.24-1.05.73.24.96.73,1.05Z"/><path class="uuid-8e438447-fc7a-4b7e-8fe6-c460513c9319" d="m24.09,37.38c.1-.53.6-.88,1.13-.79s.88.6.79,1.13-.6.88-1.13.79-.88-.6-.79-1.13Z"/><path class="uuid-8e438447-fc7a-4b7e-8fe6-c460513c9319" d="m25.24,36.53c.57.1.94.65.84,1.21s-.65.94-1.21.84-.94-.65-.84-1.21.65-.94,1.21-.84Zm-.35,1.92c.49.09.96-.24,1.05-.73s-.24-.96-.73-1.05-.96.24-1.05.73.24.96.73,1.05Z"/><circle class="uuid-8e438447-fc7a-4b7e-8fe6-c460513c9319" cx="14.98" cy="37.15" r=".98"/><path class="uuid-8e438447-fc7a-4b7e-8fe6-c460513c9319" d="m15.17,36.12c.57.1.94.65.84,1.21s-.65.94-1.21.84-.94-.65-.84-1.21.65-.94,1.21-.84Zm-.35,1.92c.49.09.96-.24,1.05-.73s-.24-.96-.73-1.05-.96.24-1.05.73.24.96.73,1.05Z"/><rect class="uuid-8e438447-fc7a-4b7e-8fe6-c460513c9319" x="24.03" y="32.26" width=".55" height="5.36" transform="translate(-7.7 6.88) rotate(-13.93)"/><path class="uuid-8e438447-fc7a-4b7e-8fe6-c460513c9319" d="m20.19,37.57c.52.16.8.7.65,1.22-.16.52-.7.8-1.22.65s-.8-.7-.65-1.22c.16-.52.7-.8,1.22-.65Z"/><path class="uuid-8e438447-fc7a-4b7e-8fe6-c460513c9319" d="m20.9,38.8c-.17.55-.75.86-1.3.69-.55-.17-.86-.75-.69-1.3.17-.55.75-.86,1.3-.69.55.17.86.75.69,1.3Zm-1.87-.57c-.15.48.12.99.6,1.13s.99-.12,1.13-.6c.15-.48-.12-.99-.6-1.13s-.99.12-1.13.6Z"/><rect class="uuid-8e438447-fc7a-4b7e-8fe6-c460513c9319" x="19.91" y="37.8" width="5.36" height=".55" transform="translate(-4.54 3.09) rotate(-7.11)"/><path class="uuid-8e438447-fc7a-4b7e-8fe6-c460513c9319" d="m11.09,34.38c.34.41.29,1.03-.13,1.37-.41.34-1.03.29-1.37-.13-.34-.41-.29-1.03.13-1.37.41-.34,1.03-.29,1.37.13Z"/><path class="uuid-8e438447-fc7a-4b7e-8fe6-c460513c9319" d="m11.01,35.81c-.44.37-1.1.31-1.47-.14s-.31-1.1.14-1.47c.44-.37,1.1-.31,1.47.14.37.44.31,1.1-.14,1.47Zm-1.25-1.5c-.38.32-.44.89-.12,1.28.32.38.89.44,1.28.12.38-.32.44-.89.12-1.28-.32-.38-.89-.44-1.28-.12Z"/><rect class="uuid-8e438447-fc7a-4b7e-8fe6-c460513c9319" x="12.55" y="33.44" width=".55" height="5.36" transform="translate(-25.26 31.75) rotate(-63.91)"/><path class="uuid-8e438447-fc7a-4b7e-8fe6-c460513c9319" d="m4.07,29.01c.13.52-.19,1.05-.71,1.18-.52.13-1.05-.19-1.18-.71-.13-.52.19-1.05.71-1.18.52-.13,1.05.19,1.18.71Z"/><path class="uuid-8e438447-fc7a-4b7e-8fe6-c460513c9319" d="m3.38,30.26c-.56.14-1.13-.2-1.27-.76-.14-.56.2-1.13.76-1.27s1.13.2,1.27.76c.14.56-.2,1.13-.76,1.27Zm-.47-1.89c-.48.12-.78.61-.66,1.1s.61.78,1.1.66.78-.61.66-1.1c-.12-.48-.61-.78-1.1-.66Z"/><rect class="uuid-8e438447-fc7a-4b7e-8fe6-c460513c9319" x="4.6" y="28.65" width=".55" height="5.36" transform="translate(-18.34 9.73) rotate(-38.21)"/><path class="uuid-8e438447-fc7a-4b7e-8fe6-c460513c9319" d="m2.18,19.97c-.11.53-.62.87-1.15.76-.53-.11-.87-.62-.76-1.15.11-.53.62-.87,1.15-.76.53.11.87.62.76,1.15Z"/><path class="uuid-8e438447-fc7a-4b7e-8fe6-c460513c9319" d="m1.02,20.8c-.56-.11-.93-.67-.82-1.23s.67-.93,1.23-.82c.56.11.93.67.82,1.23-.11.56-.67.93-1.23.82Zm.39-1.91c-.49-.1-.97.22-1.07.71-.1.49.22.97.71,1.07s.97-.22,1.07-.71-.22-.97-.71-1.07Z"/><rect class="uuid-8e438447-fc7a-4b7e-8fe6-c460513c9319" x="1.64" y="19.73" width=".55" height="5.36" transform="translate(-4.9 .98) rotate(-12.76)"/><path class="uuid-8e438447-fc7a-4b7e-8fe6-c460513c9319" d="m3.55,11c-.38.38-1,.37-1.38,0s-.37-1,0-1.38c.38-.38,1-.37,1.38,0s.37,1,0,1.38Z"/><path class="uuid-8e438447-fc7a-4b7e-8fe6-c460513c9319" d="m2.12,11.04c-.4-.41-.4-1.07,0-1.48s1.07-.4,1.48,0,.4,1.07,0,1.48-1.07.4-1.48,0Zm1.39-1.37c-.35-.36-.93-.36-1.28,0-.36.35-.36.93,0,1.28.35.36.93.36,1.28,0,.36-.35.36-.93,0-1.28Z"/><rect class="uuid-8e438447-fc7a-4b7e-8fe6-c460513c9319" x="-.72" y="12.6" width="5.36" height=".55" transform="translate(-10.75 10.04) rotate(-68.77)"/><path class="uuid-8e438447-fc7a-4b7e-8fe6-c460513c9319" d="m10.82,5.02c-.53.11-1.04-.24-1.15-.76-.11-.53.24-1.04.76-1.15s1.04.24,1.15.76c.11.53-.24,1.04-.76,1.15Z"/><path class="uuid-8e438447-fc7a-4b7e-8fe6-c460513c9319" d="m9.61,4.27c-.11-.56.25-1.12.82-1.23.56-.11,1.12.25,1.23.82.11.56-.25,1.12-.82,1.23-.56.11-1.12-.25-1.23-.82Zm1.91-.39c-.1-.49-.58-.81-1.07-.71-.49.1-.81.58-.71,1.07.1.49.58.81,1.07.71s.81-.58.71-1.07Z"/><rect class="uuid-8e438447-fc7a-4b7e-8fe6-c460513c9319" x="5.79" y="5.44" width="5.36" height=".55" transform="translate(-1.75 5.99) rotate(-35.56)"/><path class="uuid-8e438447-fc7a-4b7e-8fe6-c460513c9319" d="m18.15,1.97c-.51-.18-.78-.73-.6-1.24.18-.51.73-.78,1.24-.6s.78.73.6,1.24-.73.78-1.24.6Z"/><path class="uuid-8e438447-fc7a-4b7e-8fe6-c460513c9319" d="m17.49.7c.19-.54.79-.83,1.33-.64.54.19.83.79.64,1.33-.19.54-.79.83-1.33.64-.54-.19-.83-.79-.64-1.33Zm1.84.65c.17-.47-.08-.99-.56-1.16-.47-.17-.99.08-1.16.56s.08.99.56,1.16c.47.17.99-.08,1.16-.56Z"/><rect class="uuid-8e438447-fc7a-4b7e-8fe6-c460513c9319" x="13.09" y="1.09" width="5.36" height=".55" transform="translate(-.06 1.34) rotate(-4.85)"/><path class="uuid-8e438447-fc7a-4b7e-8fe6-c460513c9319" d="m27.08,4.4c-.37-.39-.35-1.01.04-1.38.39-.37,1.01-.35,1.38.04.37.39.35,1.01-.04,1.38-.39.37-1.01.35-1.38-.04Z"/><path class="uuid-8e438447-fc7a-4b7e-8fe6-c460513c9319" d="m27.07,2.97c.42-.4,1.08-.38,1.48.04.4.42.38,1.08-.04,1.48s-1.08.38-1.48-.04-.38-1.08.04-1.48Zm1.34,1.42c.36-.34.38-.92.04-1.28s-.92-.38-1.28-.04-.38.92-.04,1.28c.34.36.92.38,1.28.04Z"/><rect class="uuid-8e438447-fc7a-4b7e-8fe6-c460513c9319" x="24.96" y=".1" width=".55" height="5.36" transform="translate(13.05 25.05) rotate(-67.58)"/><path class="uuid-8e438447-fc7a-4b7e-8fe6-c460513c9319" d="m34.36,9.81c-.11-.53.23-1.04.76-1.15.53-.11,1.04.23,1.15.76.11.53-.23,1.04-.76,1.15-.53.11-1.04-.23-1.15-.76Z"/><path class="uuid-8e438447-fc7a-4b7e-8fe6-c460513c9319" d="m35.11,8.59c.56-.12,1.12.25,1.23.81s-.25,1.12-.81,1.23-1.12-.25-1.23-.81.25-1.12.81-1.23Zm.39,1.91c.49-.1.81-.58.71-1.07-.1-.49-.58-.81-1.07-.71-.49.1-.81.58-.71,1.07.1.49.58.81,1.07.71Z"/><rect class="uuid-8e438447-fc7a-4b7e-8fe6-c460513c9319" x="33.38" y="4.78" width=".55" height="5.36" transform="translate(1.97 21.03) rotate(-35.68)"/><rect class="uuid-8e438447-fc7a-4b7e-8fe6-c460513c9319" x="21.67" y="27.61" width=".55" height="5.08" transform="translate(-14.35 21.59) rotate(-40.68)"/><polygon class="uuid-8e438447-fc7a-4b7e-8fe6-c460513c9319" points="24.26 6.81 28.66 9.56 31.12 13.83 30.64 14.11 28.25 9.96 23.96 7.28 24.26 6.81"/><rect class="uuid-8e438447-fc7a-4b7e-8fe6-c460513c9319" x="27.58" y="7.41" width="5.36" height=".55" transform="translate(3.14 23.15) rotate(-43.94)"/><rect class="uuid-8e438447-fc7a-4b7e-8fe6-c460513c9319" x="24.9" y="11.95" width="4.91" height=".55" transform="translate(6.03 33.28) rotate(-68.71)"/><polygon class="uuid-8e438447-fc7a-4b7e-8fe6-c460513c9319" points="20.28 6.58 20.28 7.13 15.49 7.13 11.03 9.5 10.77 9.01 15.35 6.57 20.28 6.58"/><rect class="uuid-8e438447-fc7a-4b7e-8fe6-c460513c9319" x="14.25" y="1.56" width=".55" height="5.36" transform="translate(-.59 3.62) rotate(-13.93)"/><polyline class="uuid-8e438447-fc7a-4b7e-8fe6-c460513c9319" points="18.27 11.05 15.32 7.41 15.75 7.06 18.83 10.86"/><polygon class="uuid-8e438447-fc7a-4b7e-8fe6-c460513c9319" points="8.58 12.34 9.06 12.62 6.66 16.76 6.49 21.81 5.93 21.79 6.11 16.6 8.58 12.34"/><rect class="uuid-8e438447-fc7a-4b7e-8fe6-c460513c9319" x="3.41" y="13.47" width=".55" height="5.36" transform="translate(-12.86 15.22) rotate(-73.93)"/><rect class="uuid-8e438447-fc7a-4b7e-8fe6-c460513c9319" x="6.38" y="16.12" width="5.15" height=".55" transform="translate(-2.25 1.45) rotate(-8.22)"/><polygon class="uuid-8e438447-fc7a-4b7e-8fe6-c460513c9319" points="8.2 25.07 10.59 29.22 14.88 31.9 14.58 32.37 10.18 29.62 7.72 25.35 8.2 25.07"/><rect class="uuid-8e438447-fc7a-4b7e-8fe6-c460513c9319" x="5.89" y="31.22" width="5.36" height=".55" transform="translate(-19.45 14.76) rotate(-43.93)"/><rect class="uuid-8e438447-fc7a-4b7e-8fe6-c460513c9319" x="8.87" y="26.81" width="5.18" height=".55" transform="translate(-17.93 28.23) rotate(-69.28)"/><rect class="uuid-8e438447-fc7a-4b7e-8fe6-c460513c9319" x="13.93" y="34.6" width="5.5" height=".55" transform="translate(-21.12 26.77) rotate(-52.33)"/><path class="uuid-8e438447-fc7a-4b7e-8fe6-c460513c9319" d="m14.58,31.15c.51-.18,1.07.08,1.25.59.18.51-.08,1.07-.59,1.25-.51.18-1.07-.08-1.25-.59-.18-.51.08-1.07.59-1.25Z"/><path class="uuid-8e438447-fc7a-4b7e-8fe6-c460513c9319" d="m15.09,31.04c.36.06.67.31.8.67.09.26.08.55-.04.8-.12.25-.33.44-.59.54-.26.09-.55.08-.8-.04-.25-.12-.44-.33-.54-.59-.19-.54.09-1.14.63-1.34h0c.18-.06.36-.08.54-.05Zm-.34,1.92c.15.03.31.01.47-.04.23-.08.41-.25.51-.47.1-.22.11-.47.03-.69-.17-.47-.69-.72-1.16-.55-.47.17-.72.69-.55,1.16.08.23.25.41.47.51.07.03.15.06.23.07Z"/><path class="uuid-8e438447-fc7a-4b7e-8fe6-c460513c9319" d="m10.22,28.59c.51-.18,1.07.08,1.25.59.18.51-.08,1.07-.59,1.25-.51.18-1.07-.08-1.25-.59-.18-.51.08-1.07.59-1.25Z"/><path class="uuid-8e438447-fc7a-4b7e-8fe6-c460513c9319" d="m10.73,28.48c.36.06.67.31.8.67.19.54-.09,1.14-.63,1.34-.26.09-.55.08-.8-.04-.25-.12-.44-.33-.54-.59-.19-.54.09-1.14.63-1.34h0c.18-.06.36-.08.54-.05Zm-.34,1.92c.15.03.31.01.47-.04.23-.08.41-.25.51-.47.1-.22.11-.47.03-.69-.17-.47-.69-.72-1.16-.55-.47.17-.72.69-.55,1.16.08.23.25.41.47.51.07.03.15.06.23.07Z"/><path class="uuid-8e438447-fc7a-4b7e-8fe6-c460513c9319" d="m7.56,24.32c.51-.18,1.07.08,1.25.59.18.51-.08,1.07-.59,1.25-.51.18-1.07-.08-1.25-.59-.18-.51.08-1.07.59-1.25Z"/><path class="uuid-8e438447-fc7a-4b7e-8fe6-c460513c9319" d="m8.07,24.21c.09.02.18.04.26.08.25.12.44.33.54.59.09.26.08.55-.04.8-.12.25-.33.44-.59.54-.54.19-1.14-.09-1.34-.63-.09-.26-.08-.55.04-.8.12-.25.33-.44.59-.54.17-.06.36-.08.54-.05Zm-.34,1.92c.15.03.31.02.47-.04.23-.08.41-.25.51-.47.1-.22.11-.47.03-.69-.08-.23-.25-.41-.47-.51-.22-.1-.47-.11-.69-.03h0c-.23.08-.41.25-.51.47-.1.22-.11.47-.03.69.11.32.38.53.69.59Z"/><path class="uuid-8e438447-fc7a-4b7e-8fe6-c460513c9319" d="m11.97,23.89c.51-.18,1.07.08,1.25.59.18.51-.08,1.07-.59,1.25-.51.18-1.07-.08-1.25-.59-.18-.51.08-1.07.59-1.25Z"/><path class="uuid-8e438447-fc7a-4b7e-8fe6-c460513c9319" d="m12.48,23.78c.36.06.67.31.8.67.09.26.08.55-.04.8-.12.25-.33.44-.59.54-.54.2-1.14-.09-1.34-.63-.19-.54.09-1.14.63-1.34h0c.18-.06.36-.08.54-.05Zm-.34,1.92c.15.03.31.02.47-.04.23-.08.41-.25.51-.47.1-.22.11-.47.03-.69-.17-.47-.69-.72-1.16-.55-.47.17-.72.69-.55,1.16.11.32.39.53.69.59Z"/><path class="uuid-8e438447-fc7a-4b7e-8fe6-c460513c9319" d="m6.35,32.53c.51-.18,1.07.08,1.25.59.18.51-.08,1.07-.59,1.25-.51.18-1.07-.08-1.25-.59-.18-.51.08-1.07.59-1.25Z"/><path class="uuid-8e438447-fc7a-4b7e-8fe6-c460513c9319" d="m6.86,32.42c.09.02.18.04.26.08.25.12.44.33.54.59.09.26.08.55-.04.8-.12.25-.33.44-.59.54-.54.2-1.14-.09-1.34-.63-.09-.26-.08-.55.04-.8.12-.25.33-.44.59-.54.17-.06.36-.08.54-.05Zm-.34,1.92c.15.03.31.02.47-.04.23-.08.41-.25.51-.47.1-.22.11-.47.03-.69-.08-.23-.25-.41-.47-.51-.22-.1-.47-.11-.69-.03h0c-.23.08-.41.25-.51.47-.1.22-.11.47-.03.69.11.32.38.53.69.59Z"/><path class="uuid-8e438447-fc7a-4b7e-8fe6-c460513c9319" d="m2.09,23.32c.51-.16,1.06.12,1.23.63s-.12,1.06-.63,1.23c-.51.16-1.06-.12-1.23-.63-.16-.51.12-1.06.63-1.23Z"/><path class="uuid-8e438447-fc7a-4b7e-8fe6-c460513c9319" d="m2.57,23.22c.1.02.2.05.29.1.25.13.43.34.52.61.18.55-.13,1.14-.67,1.31-.27.09-.55.06-.8-.07-.25-.13-.43-.34-.52-.61-.09-.27-.06-.55.07-.8.13-.25.34-.43.61-.52h0c.17-.05.34-.06.5-.03Zm-.34,1.92c.14.03.29.02.44-.03.48-.15.74-.66.59-1.14-.07-.23-.23-.42-.45-.53-.21-.11-.46-.13-.69-.06h0c-.23.07-.42.23-.53.45-.11.22-.13.46-.06.69.07.23.23.42.45.53.08.04.17.07.25.09Z"/><rect class="uuid-8e438447-fc7a-4b7e-8fe6-c460513c9319" x="4.92" y="21.93" width=".55" height="5.5" transform="translate(-20 25.68) rotate(-80.39)"/><path class="uuid-8e438447-fc7a-4b7e-8fe6-c460513c9319" d="m6.98,21.18c.41.35.46.96.11,1.37-.35.41-.96.46-1.37.11-.41-.35-.46-.96-.11-1.37.35-.41.96-.46,1.37-.11Z"/><path class="uuid-8e438447-fc7a-4b7e-8fe6-c460513c9319" d="m6.54,20.89c.18.03.35.11.49.23h0c.21.18.34.43.37.71.02.28-.06.55-.24.76-.37.44-1.03.49-1.47.12-.44-.37-.49-1.03-.12-1.47.18-.21.43-.34.71-.37.09,0,.18,0,.27.01Zm-.35,1.92c.31.06.64-.05.85-.31.16-.18.23-.42.21-.66-.02-.24-.13-.46-.32-.62h0c-.18-.16-.42-.23-.66-.21-.24.02-.46.13-.62.32-.32.38-.27.95.11,1.28.13.11.27.17.42.2Z"/><path class="uuid-8e438447-fc7a-4b7e-8fe6-c460513c9319" d="m7.02,16.12c.41.35.46.96.11,1.37-.35.41-.96.46-1.37.11-.41-.35-.46-.96-.11-1.37.35-.41.96-.46,1.37-.11Z"/><path class="uuid-8e438447-fc7a-4b7e-8fe6-c460513c9319" d="m6.58,15.84c.17.03.34.11.49.23h0c.21.18.34.43.37.71.02.28-.06.55-.24.76s-.43.34-.71.37c-.28.02-.55-.06-.76-.24-.21-.18-.34-.43-.37-.71-.02-.28.06-.55.24-.76.25-.3.63-.42.98-.35Zm.4.34c-.38-.32-.95-.27-1.28.11-.16.18-.23.42-.21.66.02.24.13.46.32.62.18.16.42.23.66.21.24-.02.46-.13.62-.32.16-.18.23-.42.21-.66-.02-.24-.13-.46-.32-.62h0Z"/><path class="uuid-8e438447-fc7a-4b7e-8fe6-c460513c9319" d="m9.39,11.68c.41.35.46.96.11,1.37s-.96.46-1.37.11c-.41-.35-.46-.96-.11-1.37.35-.41.96-.46,1.37-.11Z"/><path class="uuid-8e438447-fc7a-4b7e-8fe6-c460513c9319" d="m8.95,11.4c.18.03.35.11.49.23h0c.44.37.5,1.03.12,1.47-.37.44-1.03.5-1.47.12-.21-.18-.34-.43-.37-.71-.02-.28.06-.55.24-.76s.43-.34.71-.37c.09,0,.18,0,.27.01Zm-.35,1.92c.31.06.64-.05.85-.31.32-.38.28-.95-.11-1.28h0c-.18-.16-.42-.23-.66-.21-.24.02-.46.13-.62.32-.16.18-.23.42-.21.66.02.24.13.46.32.62.13.11.27.17.42.2Z"/><path class="uuid-8e438447-fc7a-4b7e-8fe6-c460513c9319" d="m11.96,15.29c.41.35.46.96.11,1.37-.35.41-.96.46-1.37.11-.41-.35-.46-.96-.11-1.37s.96-.46,1.37-.11Z"/><path class="uuid-8e438447-fc7a-4b7e-8fe6-c460513c9319" d="m11.52,15c.18.03.35.11.49.23h0c.21.18.34.43.37.71.02.28-.06.55-.24.76-.37.44-1.03.49-1.47.12-.44-.37-.5-1.03-.12-1.47.18-.21.43-.34.71-.37.09,0,.18,0,.27.01Zm-.35,1.92c.31.06.64-.05.85-.31.16-.18.23-.42.21-.66-.02-.24-.13-.46-.32-.62h0c-.18-.16-.42-.23-.66-.21-.24.02-.46.13-.62.32-.32.38-.28.95.11,1.28.13.11.27.17.42.2Z"/><path class="uuid-8e438447-fc7a-4b7e-8fe6-c460513c9319" d="m1.67,14.74c.41.35.46.96.11,1.37-.35.41-.96.46-1.37.11-.41-.35-.46-.96-.11-1.37s.96-.46,1.37-.11Z"/><path class="uuid-8e438447-fc7a-4b7e-8fe6-c460513c9319" d="m1.23,14.46c.17.03.34.11.49.23h0c.44.37.49,1.03.12,1.47-.18.21-.43.34-.71.37-.28.02-.55-.06-.76-.24-.44-.37-.5-1.03-.12-1.47.25-.3.63-.42.98-.35Zm.4.34c-.38-.32-.95-.28-1.28.11-.16.18-.23.42-.21.66.02.24.13.46.32.62.18.16.42.23.66.21.24-.02.46-.13.62-.32.32-.38.27-.95-.11-1.28h0Z"/><path class="uuid-8e438447-fc7a-4b7e-8fe6-c460513c9319" d="m7.29,6.55c.41.35.45.97.09,1.38-.35.41-.97.45-1.38.09s-.45-.97-.09-1.38.97-.45,1.38-.09Z"/><path class="uuid-8e438447-fc7a-4b7e-8fe6-c460513c9319" d="m6.84,6.25c.18.03.35.12.5.24h0c.21.18.34.44.36.72.02.28-.07.55-.25.76-.38.43-1.04.48-1.47.1-.43-.38-.48-1.04-.1-1.47.18-.21.44-.34.72-.36.09,0,.17,0,.26.01Zm-.35,1.92c.3.05.63-.05.85-.3.16-.18.24-.42.22-.66-.02-.24-.13-.46-.31-.62h0c-.18-.16-.42-.24-.66-.22-.24.02-.46.13-.62.31-.33.38-.29.95.09,1.28.13.11.28.18.43.21Z"/><rect class="uuid-8e438447-fc7a-4b7e-8fe6-c460513c9319" x="7.45" y="7.16" width=".55" height="5.5" transform="translate(-3.09 3.51) rotate(-21.46)"/><circle class="uuid-8e438447-fc7a-4b7e-8fe6-c460513c9319" cx="10.87" cy="9.44" r=".98"/><path class="uuid-8e438447-fc7a-4b7e-8fe6-c460513c9319" d="m11.05,8.41c.57.1.94.65.84,1.21s-.65.94-1.21.84-.95-.65-.84-1.21.65-.94,1.21-.84Zm-.35,1.92c.49.09.96-.24,1.05-.73s-.24-.96-.73-1.05-.96.24-1.05.73.24.96.73,1.05Z"/><circle class="uuid-8e438447-fc7a-4b7e-8fe6-c460513c9319" cx="15.27" cy="6.95" r=".98"/><path class="uuid-8e438447-fc7a-4b7e-8fe6-c460513c9319" d="m15.45,5.92c.57.1.94.65.84,1.21s-.65.94-1.21.84-.94-.65-.84-1.21.65-.94,1.21-.84Zm-.35,1.92c.49.09.96-.24,1.05-.73s-.24-.96-.73-1.05-.96.24-1.05.73.24.96.73,1.05Z"/><path class="uuid-8e438447-fc7a-4b7e-8fe6-c460513c9319" d="m21.25,6.95c-.1.53-.6.88-1.13.79s-.88-.6-.79-1.13.6-.88,1.13-.79.88.6.79,1.13Z"/><path class="uuid-8e438447-fc7a-4b7e-8fe6-c460513c9319" d="m20.48,5.75c.57.1.94.65.84,1.21s-.65.94-1.21.84-.94-.65-.84-1.21.65-.94,1.21-.84Zm-.35,1.92c.49.09.96-.24,1.05-.73s-.24-.96-.73-1.05-.96.24-1.05.73.24.96.73,1.05Z"/><circle class="uuid-8e438447-fc7a-4b7e-8fe6-c460513c9319" cx="18.46" cy="10.81" r=".98"/><path class="uuid-8e438447-fc7a-4b7e-8fe6-c460513c9319" d="m18.64,9.78c.57.1.94.65.84,1.21s-.65.94-1.21.84-.94-.65-.84-1.21.65-.94,1.21-.84Zm-.35,1.92c.49.09.96-.24,1.05-.73s-.24-.96-.73-1.05-.96.24-1.05.73.24.96.73,1.05Z"/><path class="uuid-8e438447-fc7a-4b7e-8fe6-c460513c9319" d="m23.41,14.72c-.1.53-.6.88-1.13.79s-.88-.6-.79-1.13.6-.88,1.13-.79.88.6.79,1.13Z"/><path class="uuid-8e438447-fc7a-4b7e-8fe6-c460513c9319" d="m22.64,13.52c.57.1.94.65.84,1.21s-.65.94-1.21.84-.94-.65-.84-1.21.65-.94,1.21-.84Zm-.35,1.92c.49.09.96-.24,1.05-.73s-.24-.96-.73-1.05-.96.24-1.05.73.24.96.73,1.05Z"/><path class="uuid-8e438447-fc7a-4b7e-8fe6-c460513c9319" d="m14.75,1.8c-.1.53-.6.88-1.13.79s-.88-.6-.79-1.13.6-.88,1.13-.79.88.6.79,1.13Z"/><path class="uuid-8e438447-fc7a-4b7e-8fe6-c460513c9319" d="m13.97.6c.57.1.94.65.84,1.21s-.65.94-1.21.84-.94-.65-.84-1.21.65-.94,1.21-.84Zm-.35,1.92c.49.09.96-.24,1.05-.73s-.24-.96-.73-1.05-.96.24-1.05.73.24.96.73,1.05Z"/><path class="uuid-8e438447-fc7a-4b7e-8fe6-c460513c9319" d="m23.82,1.83c0,.54-.44.98-.98.98s-.98-.44-.98-.98.44-.98.98-.98.98.44.98.98Z"/><path class="uuid-8e438447-fc7a-4b7e-8fe6-c460513c9319" d="m23.03.8c.49.09.86.52.86,1.03h0c0,.28-.11.54-.31.74-.2.2-.46.31-.74.31-.28,0-.54-.11-.74-.31-.2-.2-.31-.46-.31-.74,0-.58.47-1.04,1.05-1.04.06,0,.13,0,.19.02Zm-.35,1.92c.05,0,.11.01.16.01.24,0,.47-.09.64-.27.17-.17.27-.4.27-.64h0c0-.5-.41-.91-.91-.91-.5,0-.91.41-.91.91,0,.24.09.47.27.64.13.13.3.22.48.25Z"/><rect class="uuid-8e438447-fc7a-4b7e-8fe6-c460513c9319" x="18.83" y="4.09" width="5.5" height=".55" transform="translate(7.74 21.49) rotate(-62.51)"/><path class="uuid-8e438447-fc7a-4b7e-8fe6-c460513c9319" d="m24.26,8.03c-.51.18-1.07-.08-1.25-.59-.18-.51.08-1.07.59-1.25s1.07.08,1.25.59c.18.51-.08,1.07-.59,1.25Z"/><path class="uuid-8e438447-fc7a-4b7e-8fe6-c460513c9319" d="m24.12,6.08c.36.06.67.31.8.67.19.54-.09,1.14-.63,1.34h0c-.54.19-1.14-.09-1.34-.63-.09-.26-.08-.55.04-.8.12-.25.33-.44.59-.54.18-.06.36-.08.54-.05Zm.12,1.88c.47-.17.72-.69.55-1.16-.17-.47-.69-.72-1.16-.55-.23.08-.41.25-.51.47-.1.22-.11.47-.03.69.17.47.69.71,1.16.55h0Z"/><path class="uuid-8e438447-fc7a-4b7e-8fe6-c460513c9319" d="m28.62,10.59c-.51.18-1.07-.08-1.25-.59-.18-.51.08-1.07.59-1.25.51-.18,1.07.08,1.25.59.18.51-.08,1.07-.59,1.25Z"/><path class="uuid-8e438447-fc7a-4b7e-8fe6-c460513c9319" d="m28.48,8.64c.09.02.18.04.26.08.25.12.44.33.54.59.19.54-.09,1.14-.63,1.34h0c-.54.2-1.14-.09-1.34-.63-.09-.26-.08-.55.04-.8.12-.25.33-.44.59-.54.17-.06.36-.08.54-.05Zm.12,1.88c.47-.17.72-.69.55-1.16-.08-.23-.25-.41-.47-.51-.22-.1-.47-.12-.69-.03-.23.08-.41.25-.51.47-.1.22-.11.47-.03.69.17.47.69.72,1.16.55h0Z"/><path class="uuid-8e438447-fc7a-4b7e-8fe6-c460513c9319" d="m31.28,14.86c-.51.18-1.07-.08-1.25-.59-.18-.51.08-1.07.59-1.25.51-.18,1.07.08,1.25.59.18.51-.08,1.07-.59,1.25Z"/><path class="uuid-8e438447-fc7a-4b7e-8fe6-c460513c9319" d="m31.14,12.91c.09.02.18.04.26.08.25.12.44.33.54.59s.08.55-.04.8c-.12.25-.33.44-.59.54-.54.19-1.14-.09-1.34-.63-.09-.26-.08-.55.04-.8.12-.25.33-.44.59-.54.17-.06.36-.08.54-.05Zm-.34,1.92c.15.03.31.02.47-.04.23-.08.41-.25.51-.47.1-.22.11-.47.03-.69-.08-.23-.25-.41-.47-.51-.22-.1-.47-.12-.69-.03-.23.08-.41.25-.51.47-.1.22-.11.47-.03.69.11.32.38.53.69.59Z"/><path class="uuid-8e438447-fc7a-4b7e-8fe6-c460513c9319" d="m27.06,14.7c-.51.18-1.07-.08-1.25-.59-.18-.51.08-1.07.59-1.25.51-.18,1.07.08,1.25.59.18.51-.08,1.07-.59,1.25Z"/><path class="uuid-8e438447-fc7a-4b7e-8fe6-c460513c9319" d="m26.91,12.75c.36.06.67.31.8.67.09.26.08.55-.04.8-.12.25-.33.44-.59.54-.54.2-1.14-.09-1.34-.63-.19-.54.09-1.14.63-1.34.18-.06.36-.08.54-.05Zm-.34,1.92c.15.03.31.02.47-.04h0c.23-.08.41-.25.51-.47.1-.22.11-.47.03-.69-.17-.47-.69-.72-1.16-.55-.47.17-.72.69-.55,1.16.11.32.39.53.69.59Z"/><path class="uuid-8e438447-fc7a-4b7e-8fe6-c460513c9319" d="m32.49,6.65c-.51.18-1.07-.08-1.25-.59-.18-.51.08-1.07.59-1.25.51-.18,1.07.08,1.25.59.18.51-.08,1.07-.59,1.25Z"/><path class="uuid-8e438447-fc7a-4b7e-8fe6-c460513c9319" d="m32.35,4.7c.09.02.18.04.26.08.25.12.44.33.54.59.19.54-.09,1.14-.63,1.34h0c-.54.2-1.14-.09-1.34-.63-.19-.54.09-1.14.63-1.34.17-.06.36-.08.54-.05Zm.12,1.88c.47-.17.72-.69.55-1.16-.08-.23-.25-.41-.47-.51-.22-.1-.47-.11-.69-.03-.23.08-.41.25-.51.47-.1.22-.11.47-.03.69.17.47.69.72,1.16.55h0Z"/><path class="uuid-8e438447-fc7a-4b7e-8fe6-c460513c9319" d="m37,14.68c-.48.25-1.07.07-1.32-.4s-.07-1.07.4-1.32,1.07-.07,1.32.4c.25.48.07,1.07-.4,1.32Z"/><path class="uuid-8e438447-fc7a-4b7e-8fe6-c460513c9319" d="m36.73,12.79c.3.05.58.24.74.54.27.51.08,1.14-.43,1.41-.25.13-.53.16-.8.08-.27-.08-.49-.26-.62-.51-.27-.51-.08-1.14.43-1.41.22-.11.45-.15.68-.11Zm-.34,1.92c.2.04.4,0,.59-.09h0c.44-.24.61-.79.37-1.23-.24-.44-.79-.61-1.23-.37-.44.24-.61.79-.37,1.23.11.21.3.37.54.44.03.01.07.02.1.03Z"/><rect class="uuid-8e438447-fc7a-4b7e-8fe6-c460513c9319" x="30.95" y="13.62" width="5.5" height=".55" transform="translate(-.15 .38) rotate(-.64)"/><rect class="uuid-8e438447-fc7a-4b7e-8fe6-c460513c9319" x="20.15" y="9.95" width=".55" height="5.17" transform="translate(-2.85 18.24) rotate(-45.31)"/><g id="uuid-703aff41-03ea-4980-904c-ebe3b55b8304"><path class="uuid-845f263c-59d6-482a-8f4c-52185e0b810b" d="m17.88,20.13h5.13c.01.77-.11,1.48-.35,2.14-.24.65-.59,1.22-1.03,1.7-.45.48-.98.85-1.6,1.12-.62.27-1.31.4-2.06.4-.5,0-.98-.06-1.44-.19-.46-.12-.89-.3-1.29-.53-.4-.23-.77-.5-1.1-.83-.33-.32-.61-.68-.84-1.07-.23-.39-.41-.82-.54-1.27-.13-.45-.2-.92-.2-1.41s.06-.97.2-1.43c.13-.46.31-.88.54-1.27.23-.39.51-.75.84-1.07.33-.32.7-.6,1.1-.83.4-.23.83-.4,1.29-.53.46-.12.94-.19,1.44-.19.76,0,1.47.14,2.14.41.67.27,1.28.7,1.83,1.27l-.6.58c-.19-.21-.4-.4-.63-.58s-.5-.34-.78-.47c-.29-.13-.59-.24-.92-.31-.33-.08-.67-.11-1.03-.11-.63,0-1.21.12-1.77.35-.55.23-1.03.55-1.44.96-.41.41-.73.89-.97,1.44-.24.55-.36,1.14-.36,1.78s.12,1.22.36,1.77c.24.55.56,1.03.97,1.43.41.41.89.72,1.44.96.55.23,1.14.35,1.77.35s1.15-.1,1.65-.29c.49-.19.92-.46,1.27-.8.36-.34.64-.75.85-1.22.21-.47.34-.99.39-1.56h-4.26v-.69Z"/><path class="uuid-845f263c-59d6-482a-8f4c-52185e0b810b" d="m29.04,18.48h-.77c-.42,0-.81.06-1.16.19-.35.13-.66.31-.91.56-.25.25-.45.56-.59.93-.14.37-.21.8-.21,1.29v3.84h-.86v-7.6h.74l.09,1.46c.13-.21.29-.41.48-.59.19-.18.4-.34.65-.47.25-.13.51-.23.81-.3.29-.07.61-.11.95-.11h.8v.79Z"/><path class="uuid-845f263c-59d6-482a-8f4c-52185e0b810b" d="m29.34,21.49c0-.55.1-1.08.31-1.56.21-.49.49-.91.86-1.27.37-.36.79-.64,1.29-.85.49-.21,1.03-.31,1.61-.31.37,0,.71.05,1.05.14.33.09.64.21.93.37.29.16.54.34.77.56.23.22.42.45.58.7l.07-1.56h.77v7.6h-.77l-.07-1.55c-.16.25-.36.48-.59.69-.23.21-.49.4-.77.56-.29.16-.59.28-.92.37-.33.09-.68.14-1.04.14-.58,0-1.11-.1-1.61-.31-.5-.21-.92-.49-1.29-.85-.36-.36-.65-.78-.86-1.27-.21-.49-.31-1.01-.31-1.57Zm.87,0c0,.46.09.89.26,1.28.17.4.4.74.7,1.03s.64.52,1.04.68c.4.16.82.24,1.27.24s.87-.08,1.27-.24c.4-.16.74-.39,1.04-.68.3-.29.53-.63.7-1.02s.26-.82.26-1.29-.09-.88-.26-1.28c-.17-.4-.41-.74-.7-1.02-.3-.29-.64-.51-1.04-.68-.4-.17-.82-.25-1.27-.25s-.87.08-1.27.25c-.4.16-.74.39-1.04.68-.29.29-.52.63-.69,1.02-.17.4-.26.82-.26,1.28Z"/><path class="uuid-845f263c-59d6-482a-8f4c-52185e0b810b" d="m46.76,25.3h-.88v-4.13c0-1.01-.23-1.74-.69-2.21-.46-.47-1.12-.7-1.99-.7-.39,0-.75.07-1.09.21-.34.14-.64.34-.9.59-.26.26-.46.56-.61.92-.15.36-.23.76-.23,1.19v4.11h-.86v-7.6h.74l.08,1.32c.15-.22.32-.42.53-.6.21-.18.44-.35.7-.48.26-.14.53-.25.83-.32.3-.08.6-.12.92-.12,1.15,0,2.01.3,2.59.9.58.6.86,1.52.86,2.76v4.14Z"/><path class="uuid-845f263c-59d6-482a-8f4c-52185e0b810b" d="m48.88,15.43h.68s0,2.27,0,2.27h2.87v.77h-2.87v3.99c0,.45.05.81.15,1.1.1.29.24.52.41.68.17.17.37.29.59.35.22.07.45.1.68.1h1.37v.74h-1.43c-.38,0-.72-.05-1.04-.15-.32-.1-.6-.27-.83-.5-.24-.23-.42-.54-.55-.92-.13-.38-.2-.85-.2-1.4v-3.99h-1.4v-.71l1.38-.13.2-2.2Z"/><path class="uuid-845f263c-59d6-482a-8f4c-52185e0b810b" d="m61.24,20.04h5.16c.02.8-.09,1.53-.33,2.19-.24.67-.59,1.24-1.04,1.73-.45.49-.99.86-1.62,1.13-.63.27-1.32.41-2.08.41-.51,0-.99-.06-1.46-.19s-.9-.3-1.3-.53c-.4-.23-.77-.51-1.1-.83-.33-.32-.62-.68-.86-1.07s-.42-.82-.55-1.27c-.13-.46-.2-.93-.2-1.42s.07-.97.2-1.43c.13-.46.31-.88.55-1.28s.52-.75.86-1.08c.33-.32.7-.6,1.1-.83.4-.23.84-.41,1.3-.53.47-.12.95-.19,1.46-.19.77,0,1.48.14,2.16.41.67.28,1.28.69,1.83,1.25l-.89.88c-.17-.2-.37-.38-.59-.54-.22-.17-.46-.31-.72-.44-.26-.12-.54-.22-.84-.29-.3-.07-.62-.1-.95-.1-.57,0-1.11.11-1.61.32-.5.21-.94.51-1.31.88-.37.38-.67.82-.89,1.32-.22.51-.33,1.05-.33,1.64,0,.39.05.76.15,1.12.1.36.24.69.42.99.18.31.4.59.65.84.25.25.53.46.84.64.31.18.63.31.99.41.35.1.72.15,1.1.15.56,0,1.05-.08,1.49-.24.44-.16.82-.39,1.14-.68.32-.29.57-.64.76-1.04.19-.4.31-.85.36-1.34h-3.84v-.99Z"/><path class="uuid-845f263c-59d6-482a-8f4c-52185e0b810b" d="m72.56,18.8h-.84c-.39,0-.75.06-1.07.17-.32.12-.6.29-.83.52-.23.23-.41.51-.53.85-.13.34-.19.73-.19,1.18v3.77h-1.3v-7.65h1.07l.14,1.19c.13-.17.28-.33.46-.47.18-.14.38-.27.6-.38.22-.1.47-.19.73-.25.27-.06.55-.09.86-.09h.9v1.16Z"/><path class="uuid-845f263c-59d6-482a-8f4c-52185e0b810b" d="m74.21,20.74c-.06.23-.08.48-.08.73,0,.18.02.36.04.53-.03-.17-.05-.35-.05-.54,0-.25.03-.49.09-.73Z"/><path class="uuid-845f263c-59d6-482a-8f4c-52185e0b810b" d="m73.13,19.87c.04-.09.08-.19.13-.28-.05.09-.09.18-.13.28Z"/><path class="uuid-845f263c-59d6-482a-8f4c-52185e0b810b" d="m73.26,19.6c.19-.37.42-.7.71-1,.19-.19.4-.36.63-.51-.56.38-1.03.9-1.34,1.51Z"/><path class="uuid-845f263c-59d6-482a-8f4c-52185e0b810b" d="m74.91,25.02c-.1-.06-.2-.12-.3-.18-.21-.13-.4-.28-.57-.45-.02-.02-.04-.04-.06-.06-.15-.15-.29-.31-.4-.49-.14-.2-.27-.41-.37-.63-.03-.05-.05-.11-.08-.16-.06-.14-.11-.29-.15-.44.3,1.04,1.01,1.9,1.93,2.41Z"/><path class="uuid-845f263c-59d6-482a-8f4c-52185e0b810b" d="m75.09,25.12c-.06-.03-.13-.06-.19-.1.06.03.12.07.19.1Z"/><path class="uuid-845f263c-59d6-482a-8f4c-52185e0b810b" d="m76.36,18.64c.05-.01.11-.02.16-.03h0c-.05.01-.11.02-.16.03Z"/><path class="uuid-845f263c-59d6-482a-8f4c-52185e0b810b" d="m77.16,24.37s-.08,0-.13,0c-.15,0-.3-.01-.44-.03.14.02.29.03.44.03.04,0,.09,0,.13,0h0Z"/><path class="uuid-845f263c-59d6-482a-8f4c-52185e0b810b" d="m79.88,22.05c.03-.18.05-.38.05-.58,0-.31-.04-.61-.13-.88.09.28.14.57.14.88,0,.2-.02.39-.06.58Z"/><path class="uuid-845f263c-59d6-482a-8f4c-52185e0b810b" d="m91.32,21.47c0,.56-.1,1.09-.3,1.58-.2.49-.48.92-.84,1.28-.36.37-.79.65-1.29.87-.5.21-1.05.32-1.64.32-.33,0-.63-.03-.92-.1-.29-.07-.56-.16-.81-.28-.25-.12-.48-.26-.69-.42-.21-.17-.39-.35-.56-.54v3.74h-1.3v-10.27h1.07l.12,1.22c.16-.2.35-.38.56-.56.22-.18.45-.33.71-.46.26-.13.54-.24.84-.31.3-.08.62-.11.95-.11.6,0,1.14.11,1.64.32.5.21.93.5,1.3.86.37.37.65.79.85,1.29.2.49.3,1.02.3,1.58Zm-1.31,0c0-.42-.08-.81-.23-1.16-.15-.36-.36-.66-.62-.92-.26-.26-.57-.46-.92-.61-.35-.14-.73-.22-1.13-.22s-.78.07-1.13.22c-.35.15-.66.35-.92.61-.26.26-.47.57-.62.92-.15.36-.23.74-.23,1.16s.08.8.23,1.16c.15.36.36.66.62.92.26.26.57.46.93.61.36.14.73.22,1.13.22s.78-.07,1.13-.22c.35-.14.66-.35.92-.61.26-.26.47-.57.62-.92.15-.35.23-.74.23-1.16Z"/><path class="uuid-845f263c-59d6-482a-8f4c-52185e0b810b" d="m100,25.3h-1.31v-4.17c0-.47-.05-.87-.16-1.19-.11-.33-.26-.59-.46-.79-.2-.2-.45-.35-.75-.44-.3-.09-.64-.14-1.02-.14-.34,0-.66.06-.96.18-.3.12-.56.29-.79.5-.23.22-.4.48-.53.79-.13.31-.2.66-.2,1.04v4.22h-1.3v-10.57h1.29v3.89c.14-.17.32-.33.51-.47.2-.14.41-.27.64-.38.23-.11.48-.19.74-.25.26-.06.54-.09.82-.09,1.18,0,2.05.31,2.62.92.57.61.85,1.53.85,2.76v4.2Z"/><path class="uuid-845f263c-59d6-482a-8f4c-52185e0b810b" d="m29.23,30.21h2.3c0,.35-.05.67-.16.96-.11.29-.26.55-.46.76-.2.21-.44.38-.72.5-.28.12-.59.18-.92.18-.22,0-.44-.03-.65-.08s-.4-.14-.58-.24c-.18-.1-.35-.23-.49-.37-.15-.15-.27-.31-.38-.48-.1-.18-.19-.37-.24-.57-.06-.2-.09-.42-.09-.64s.03-.44.09-.64c.06-.2.14-.4.24-.57.1-.18.23-.34.38-.48.15-.15.31-.27.49-.37.18-.1.37-.18.58-.24s.42-.08.65-.08c.34,0,.66.06.96.18.3.12.57.31.82.57l-.27.26c-.08-.09-.18-.18-.28-.26s-.22-.15-.35-.21c-.13-.06-.27-.11-.41-.14-.15-.03-.3-.05-.46-.05-.28,0-.55.05-.79.16-.25.1-.46.25-.65.43-.18.18-.33.4-.44.65s-.16.51-.16.8.05.55.16.8c.11.25.25.46.44.64.18.18.4.32.65.43.25.1.51.16.79.16s.52-.04.74-.13c.22-.09.41-.21.57-.36.16-.15.29-.34.38-.55.1-.21.15-.45.17-.7h-1.91v-.31Z"/><path class="uuid-845f263c-59d6-482a-8f4c-52185e0b810b" d="m32.52,30.82c0-.25.05-.48.14-.7.09-.22.22-.41.39-.57.17-.16.36-.29.58-.38.22-.09.47-.14.73-.14s.5.05.73.14c.23.09.42.22.59.38s.3.35.39.57c.1.22.14.45.14.7,0,.03,0,.05,0,.07,0,.02,0,.04,0,.06h-3.3c.02.2.07.39.16.55.09.17.2.31.33.42.13.12.29.21.46.27s.34.09.52.09c.14,0,.27-.02.39-.05.12-.03.24-.08.35-.14.11-.06.2-.14.29-.23.09-.09.16-.19.22-.29h.42c-.07.15-.16.29-.27.42-.11.13-.24.24-.38.33-.14.09-.3.17-.48.22-.17.05-.36.08-.55.08-.26,0-.5-.05-.73-.14-.22-.09-.42-.22-.58-.38-.17-.16-.3-.35-.39-.57-.09-.22-.14-.45-.14-.7Zm1.85-1.47c-.19,0-.37.03-.54.1-.17.07-.32.16-.45.27-.13.12-.24.25-.32.41-.08.16-.14.33-.16.51h2.91c-.02-.18-.07-.36-.15-.51-.08-.16-.19-.3-.31-.41-.13-.12-.28-.21-.44-.27-.17-.06-.35-.1-.54-.1Z"/><path class="uuid-845f263c-59d6-482a-8f4c-52185e0b810b" d="m37.6,28.1h.3s0,1.02,0,1.02h1.29v.35h-1.29v1.79c0,.2.02.37.07.49.05.13.11.23.18.31.08.07.16.13.26.16.1.03.2.05.31.05h.61v.33h-.64c-.17,0-.32-.02-.47-.07-.14-.05-.27-.12-.37-.23-.11-.11-.19-.24-.25-.41-.06-.17-.09-.38-.09-.63v-1.79h-.63v-.32l.62-.06.09-.99Z"/><path class="uuid-8e438447-fc7a-4b7e-8fe6-c460513c9319" d="m41.86,30.82c0-.25.05-.48.14-.7.09-.22.22-.41.38-.57.16-.16.36-.29.58-.38.22-.09.46-.14.72-.14.16,0,.32.02.47.06.15.04.29.1.42.17.13.07.24.16.35.25.1.1.19.2.26.32l.04-.71h.33v2.97c0,.13-.01.27-.04.41-.02.14-.06.28-.12.42-.05.14-.13.26-.21.39-.09.12-.2.23-.33.32-.13.09-.29.16-.46.22-.18.05-.38.08-.61.08-.28,0-.52-.04-.73-.11-.21-.08-.39-.18-.53-.3-.14-.12-.26-.26-.34-.41-.08-.15-.14-.3-.17-.45h.37c.03.11.08.22.16.33.07.11.17.21.28.3.12.09.25.16.41.21.16.06.34.08.54.08s.37-.02.51-.07c.14-.05.27-.11.37-.19.1-.08.19-.17.25-.27.07-.1.12-.21.15-.31.04-.11.06-.22.08-.32.01-.11.02-.2.02-.29v-.32c-.07.11-.16.22-.27.31-.1.1-.22.18-.35.25-.13.07-.27.13-.42.17-.15.04-.31.06-.48.06-.25,0-.49-.05-.71-.14-.22-.09-.41-.22-.57-.38-.16-.16-.29-.35-.38-.57-.09-.22-.14-.45-.14-.7Zm.39,0c0,.21.04.4.11.58.08.18.18.33.31.46.13.13.29.23.47.3.18.07.37.11.57.11s.39-.04.57-.11c.18-.07.33-.17.47-.3.13-.13.24-.28.31-.46.08-.18.11-.37.11-.58s-.04-.4-.11-.57c-.08-.18-.18-.33-.32-.46-.13-.13-.29-.23-.47-.3s-.37-.11-.57-.11-.39.04-.57.11c-.18.07-.33.18-.46.3-.13.13-.24.28-.31.46-.08.18-.11.37-.11.57Z"/><path class="uuid-8e438447-fc7a-4b7e-8fe6-c460513c9319" d="m49.01,29.47h-.35c-.19,0-.36.03-.52.09-.16.06-.29.14-.41.25-.11.11-.2.25-.27.42-.06.17-.1.36-.1.58v1.73h-.39v-3.41h.33l.04.66c.06-.09.13-.18.21-.26.08-.08.18-.15.29-.21.11-.06.23-.1.36-.14.13-.03.27-.05.43-.05h.36v.35Z"/><path class="uuid-8e438447-fc7a-4b7e-8fe6-c460513c9319" d="m49.7,30.82c0-.25.05-.48.14-.7.09-.22.22-.41.38-.57.16-.16.36-.29.58-.38.22-.09.46-.14.72-.14.16,0,.32.02.47.06.15.04.29.1.42.17.13.07.24.15.35.25.1.1.19.2.26.31l.03-.7h.34v3.41h-.34l-.03-.7c-.07.11-.16.22-.26.31-.1.1-.22.18-.35.25-.13.07-.27.13-.41.17-.15.04-.3.06-.47.06-.26,0-.5-.05-.72-.14-.22-.09-.42-.22-.58-.38s-.29-.35-.38-.57c-.09-.22-.14-.45-.14-.71Zm.39,0c0,.21.04.4.11.58.08.18.18.33.31.46.13.13.29.23.47.3s.37.11.57.11.39-.04.57-.11c.18-.07.33-.17.47-.3.13-.13.24-.28.32-.46.08-.18.11-.37.11-.58s-.04-.4-.12-.57c-.08-.18-.18-.33-.32-.46-.13-.13-.29-.23-.47-.3-.18-.07-.37-.11-.57-.11s-.39.04-.57.11c-.18.07-.33.18-.47.3-.13.13-.24.28-.31.46-.08.18-.11.37-.11.57Z"/><path class="uuid-8e438447-fc7a-4b7e-8fe6-c460513c9319" d="m58.08,32.53h-.39v-1.85c0-.45-.1-.78-.31-.99-.21-.21-.5-.31-.89-.31-.17,0-.34.03-.49.09-.15.06-.29.15-.4.27-.12.11-.21.25-.27.41-.07.16-.1.34-.1.54v1.85h-.39v-3.41h.33l.04.59c.07-.1.14-.19.24-.27.09-.08.2-.16.31-.22.12-.06.24-.11.37-.15.13-.03.27-.05.41-.05.52,0,.9.14,1.16.4.26.27.39.68.39,1.24v1.86Z"/><path class="uuid-8e438447-fc7a-4b7e-8fe6-c460513c9319" d="m59.58,28.1h.3s0,1.02,0,1.02h1.29v.35h-1.29v1.79c0,.2.02.37.07.49.05.13.11.23.18.31.08.07.16.13.26.16.1.03.2.05.31.05h.61v.33h-.64c-.17,0-.32-.02-.47-.07-.14-.05-.27-.12-.37-.23-.11-.11-.19-.24-.25-.41-.06-.17-.09-.38-.09-.63v-1.79h-.63v-.32l.62-.06.09-.99Z"/><path class="uuid-8e438447-fc7a-4b7e-8fe6-c460513c9319" d="m62.45,31.58c0,.09.03.18.08.27.05.08.12.16.21.23.09.07.19.12.31.16.12.04.25.06.38.06.39,0,.68-.06.87-.19.19-.13.29-.29.29-.5,0-.11-.03-.2-.08-.28-.06-.08-.13-.14-.23-.19-.1-.05-.22-.09-.36-.12-.14-.03-.29-.06-.47-.08-.09-.01-.19-.02-.29-.04-.1-.01-.2-.04-.29-.06-.1-.03-.19-.06-.27-.1-.09-.04-.16-.09-.22-.16s-.12-.14-.15-.23-.06-.19-.06-.31c0-.13.02-.25.07-.37.05-.12.13-.23.23-.32.11-.09.25-.17.43-.23.18-.06.4-.09.65-.09.19,0,.37.02.52.07.16.05.29.12.4.2.11.09.19.19.25.3.06.12.09.24.09.38h-.38c0-.09-.03-.18-.08-.26-.05-.08-.11-.14-.19-.2-.08-.05-.17-.1-.28-.13-.11-.03-.23-.05-.36-.05-.18,0-.33.02-.46.06-.13.04-.23.09-.3.15s-.13.13-.17.22c-.04.08-.05.16-.05.25,0,.1.02.18.07.25.05.07.12.12.21.17.09.05.21.08.34.11.14.03.29.05.47.07.09.01.19.02.3.04.1.02.2.04.3.07.1.03.19.07.28.11.09.05.17.1.24.17.07.07.12.15.16.24.04.09.06.2.06.32,0,.17-.03.31-.1.45-.07.13-.17.24-.3.33-.13.09-.3.16-.49.2-.19.05-.42.07-.67.07-.21,0-.39-.03-.56-.09-.17-.06-.31-.14-.43-.24-.12-.1-.21-.21-.28-.34-.07-.12-.1-.25-.1-.38h.38Z"/><path class="uuid-845f263c-59d6-482a-8f4c-52185e0b810b" d="m67.93,29.46h-.73v-.35h.73v-.19c0-.16.02-.31.05-.45.03-.15.09-.28.17-.39.08-.11.19-.21.33-.27.14-.07.31-.1.51-.1h.41v.33h-.34c-.14,0-.26.02-.35.07-.09.04-.17.11-.23.19-.06.08-.1.18-.12.29-.02.11-.04.23-.04.36v.17h1.06v.35h-1.06v3.07h-.39v-3.07Z"/><path class="uuid-845f263c-59d6-482a-8f4c-52185e0b810b" d="m70.05,30.82c0-.25.05-.48.14-.7.09-.22.22-.41.38-.57.16-.16.36-.29.58-.38.22-.09.46-.14.72-.14.16,0,.32.02.47.06.15.04.29.1.42.17.13.07.24.15.35.25.1.1.19.2.26.31l.03-.7h.34v3.41h-.34l-.03-.7c-.07.11-.16.22-.26.31-.1.1-.22.18-.35.25-.13.07-.27.13-.41.17-.15.04-.3.06-.47.06-.26,0-.5-.05-.72-.14-.22-.09-.42-.22-.58-.38s-.29-.35-.38-.57c-.09-.22-.14-.45-.14-.71Zm.39,0c0,.21.04.4.11.58.08.18.18.33.31.46.13.13.29.23.47.3s.37.11.57.11.39-.04.57-.11c.18-.07.33-.17.47-.3.13-.13.24-.28.32-.46.08-.18.11-.37.11-.58s-.04-.4-.12-.57c-.08-.18-.18-.33-.32-.46-.13-.13-.29-.23-.47-.3-.18-.07-.37-.11-.57-.11s-.39.04-.57.11c-.18.07-.33.18-.47.3-.13.13-.24.28-.31.46-.08.18-.11.37-.11.57Z"/><path class="uuid-845f263c-59d6-482a-8f4c-52185e0b810b" d="m75.18,31.58c0,.09.03.18.08.27.05.08.12.16.21.23.09.07.19.12.31.16.12.04.25.06.38.06.39,0,.68-.06.87-.19.19-.13.29-.29.29-.5,0-.11-.03-.2-.08-.28-.06-.08-.13-.14-.23-.19-.1-.05-.22-.09-.36-.12-.14-.03-.29-.06-.47-.08-.09-.01-.19-.02-.29-.04-.1-.01-.2-.04-.29-.06-.1-.03-.19-.06-.27-.1-.09-.04-.16-.09-.22-.16-.06-.06-.12-.14-.15-.23-.04-.09-.06-.19-.06-.31,0-.13.02-.25.07-.37.05-.12.13-.23.23-.32.11-.09.25-.17.43-.23.18-.06.4-.09.65-.09.19,0,.37.02.52.07.16.05.29.12.4.2.11.09.19.19.25.3.06.12.09.24.09.38h-.38c0-.09-.03-.18-.08-.26-.05-.08-.11-.14-.19-.2-.08-.05-.17-.1-.28-.13-.11-.03-.23-.05-.36-.05-.18,0-.33.02-.46.06s-.23.09-.3.15c-.08.06-.13.13-.17.22-.04.08-.05.16-.05.25,0,.1.02.18.07.25.05.07.12.12.21.17.09.05.21.08.34.11.14.03.29.05.47.07.09.01.19.02.3.04.1.02.2.04.3.07.1.03.19.07.28.11.09.05.17.1.24.17.07.07.12.15.16.24.04.09.06.2.06.32,0,.17-.03.31-.1.45-.07.13-.17.24-.3.33-.13.09-.3.16-.49.2-.19.05-.42.07-.67.07-.21,0-.39-.03-.56-.09-.17-.06-.31-.14-.43-.24-.12-.1-.21-.21-.28-.34-.07-.12-.1-.25-.1-.38h.38Z"/><path class="uuid-845f263c-59d6-482a-8f4c-52185e0b810b" d="m78.96,28.1h.3s0,1.02,0,1.02h1.29v.35h-1.29v1.79c0,.2.02.37.07.49.05.13.11.23.18.31.08.07.16.13.26.16.1.03.2.05.31.05h.61v.33h-.64c-.17,0-.32-.02-.47-.07-.14-.05-.27-.12-.37-.23-.11-.11-.19-.24-.25-.41-.06-.17-.09-.38-.09-.63v-1.79h-.63v-.32l.62-.06.09-.99Z"/></g><path class="uuid-845f263c-59d6-482a-8f4c-52185e0b810b" d="m80.04,17.64l-.09,1.16c-.74-.86-1.85-1.41-3.08-1.41-.79,0-1.52.22-2.14.61-.04.02-.09.05-.13.08-.65.44-1.16,1.06-1.47,1.78,0,.02-.01.03-.02.05-.19.48-.29.99-.29,1.54,0,.4.05.78.15,1.14.32,1.1,1.1,2.01,2.12,2.51.06.03.12.06.17.08.49.21,1.04.33,1.61.33,1.23,0,2.32-.54,3.07-1.4l.1,1.16h1.13v-7.65h-1.13Zm-2.89,6.73s-.08,0-.13,0c-.15,0-.3-.01-.44-.03-.24-.03-.47-.09-.69-.18-.11-.05-.22-.1-.32-.16-.21-.12-.41-.26-.59-.44,0,0,0,0-.01,0-.17-.17-.31-.35-.43-.55-.07-.11-.13-.23-.18-.36-.05-.11-.09-.22-.12-.33-.01-.04-.02-.07-.03-.11-.01-.04-.02-.08-.03-.12,0-.02,0-.05-.01-.07-.03-.17-.05-.35-.05-.54,0-.25.03-.49.09-.73.01-.05.02-.09.04-.14.03-.1.07-.2.11-.29.15-.35.35-.66.62-.92.26-.26.56-.46.92-.61.12-.05.25-.09.38-.13.03,0,.06-.02.09-.02.05-.01.11-.02.16-.03.16-.03.33-.04.5-.04,1.05,0,1.98.56,2.49,1.4,0,0,0,0,0,0,.03.05.06.11.09.16.02.04.04.08.05.11.02.03.03.07.05.1.03.08.07.17.09.25.09.28.14.57.14.88,0,.2-.02.39-.06.58,0,0,0,0,0,0-.26,1.29-1.37,2.26-2.72,2.32Z"/><path class="uuid-845f263c-59d6-482a-8f4c-52185e0b810b" d="m73.11,19.93c-.19.48-.29.99-.29,1.54,0,.4.05.78.15,1.14-.11-.36-.16-.75-.16-1.15,0-.54.11-1.06.3-1.54Z"/><circle class="uuid-8e438447-fc7a-4b7e-8fe6-c460513c9319" cx="81.95" cy="32.2" r=".42"/></g></svg>