<?xml version="1.0" encoding="UTF-8"?><svg id="uuid-3f795f2c-c387-44f7-95b8-7738083baaa2" xmlns="http://www.w3.org/2000/svg" viewBox="0 0 50 50"><defs><style>.uuid-37d7b693-a004-4f53-a439-6c5da1bf6337{fill:#30a46c;}.uuid-37d7b693-a004-4f53-a439-6c5da1bf6337,.uuid-41b69d86-d6c4-43d6-b47c-bbd55bf4e9e4,.uuid-7fd5e53f-34c9-4d5a-bc8d-b65b5117cc2d{stroke-width:0px;}.uuid-41b69d86-d6c4-43d6-b47c-bbd55bf4e9e4{fill:#fff;}.uuid-7fd5e53f-34c9-4d5a-bc8d-b65b5117cc2d{fill:#111113;}</style></defs><g id="uuid-a72384f4-aa7b-4ec3-b72b-afb6e47e53e9"><rect class="uuid-41b69d86-d6c4-43d6-b47c-bbd55bf4e9e4" width="50" height="50" rx="5" ry="5"/></g><g id="uuid-820a65a8-995f-4136-8add-2cd371f2d167"><path class="uuid-37d7b693-a004-4f53-a439-6c5da1bf6337" d="m24.75,38.65h5.24s.4-.2.4-.2c-.09-.09-.13-.23-.06-.38.07-.15.16-.28.26-.39l-.75.4h-5.09s0,.58,0,.58Z"/><circle class="uuid-37d7b693-a004-4f53-a439-6c5da1bf6337" cx="30.09" cy="38.26" r="1.04"/><path class="uuid-37d7b693-a004-4f53-a439-6c5da1bf6337" d="m30.29,37.17c.6.11,1.01.69.9,1.29s-.69,1.01-1.29.9-1.01-.69-.9-1.29.69-1.01,1.29-.9Zm-.37,2.04c.52.09,1.03-.25,1.12-.78s-.25-1.03-.78-1.12-1.03.25-1.12.78.25,1.03.78,1.12Z"/><circle class="uuid-37d7b693-a004-4f53-a439-6c5da1bf6337" cx="24.74" cy="38.44" r="1.04"/><path class="uuid-37d7b693-a004-4f53-a439-6c5da1bf6337" d="m24.93,37.35c.6.11,1.01.69.9,1.29s-.69,1.01-1.29.9-1.01-.69-.9-1.29.69-1.01,1.29-.9Zm-.37,2.04c.52.09,1.03-.25,1.12-.78s-.25-1.03-.78-1.12-1.03.25-1.12.78.25,1.03.78,1.12Z"/><path class="uuid-37d7b693-a004-4f53-a439-6c5da1bf6337" d="m25.67,33.97c.1-.56.64-.94,1.21-.84s.94.64.84,1.21-.64.94-1.21.84-.94-.64-.84-1.21Z"/><path class="uuid-37d7b693-a004-4f53-a439-6c5da1bf6337" d="m26.89,33.06c.6.11,1.01.69.9,1.29s-.69,1.01-1.29.9-1.01-.69-.9-1.29.69-1.01,1.29-.9Zm-.37,2.04c.52.09,1.03-.25,1.12-.78s-.25-1.03-.78-1.12-1.03.25-1.12.78.25,1.03.78,1.12Z"/><path class="uuid-37d7b693-a004-4f53-a439-6c5da1bf6337" d="m30.64,43.74c.1-.56.64-.94,1.21-.84s.94.64.84,1.21-.64.94-1.21.84-.94-.64-.84-1.21Z"/><path class="uuid-37d7b693-a004-4f53-a439-6c5da1bf6337" d="m31.86,42.83c.6.11,1.01.69.9,1.29s-.69,1.01-1.29.9-1.01-.69-.9-1.29.69-1.01,1.29-.9Zm-.37,2.04c.52.09,1.03-.25,1.12-.78s-.25-1.03-.78-1.12-1.03.25-1.12.78.25,1.03.78,1.12Z"/><circle class="uuid-37d7b693-a004-4f53-a439-6c5da1bf6337" cx="20.94" cy="43.49" r="1.04"/><path class="uuid-37d7b693-a004-4f53-a439-6c5da1bf6337" d="m21.14,42.4c.6.11,1.01.69.9,1.29s-.69,1.01-1.29.9-1.01-.69-.9-1.29.69-1.01,1.29-.9Zm-.37,2.04c.52.09,1.03-.25,1.12-.78s-.25-1.03-.78-1.12-1.03.25-1.12.78.25,1.03.78,1.12Z"/><rect class="uuid-37d7b693-a004-4f53-a439-6c5da1bf6337" x="30.58" y="38.29" width=".59" height="5.71" transform="translate(-9 8.64) rotate(-13.93)"/><path class="uuid-37d7b693-a004-4f53-a439-6c5da1bf6337" d="m26.49,43.94c.55.17.86.75.69,1.3-.17.55-.75.86-1.3.69s-.86-.75-.69-1.3c.17-.55.75-.86,1.3-.69Z"/><path class="uuid-37d7b693-a004-4f53-a439-6c5da1bf6337" d="m27.25,45.26c-.18.59-.8.92-1.39.74-.59-.18-.92-.8-.74-1.39.18-.59.8-.92,1.39-.74.59.18.92.8.74,1.39Zm-1.99-.61c-.16.51.13,1.05.64,1.21s1.05-.13,1.21-.64c.16-.51-.13-1.05-.64-1.21s-1.05.13-1.21.64Z"/><rect class="uuid-37d7b693-a004-4f53-a439-6c5da1bf6337" x="26.19" y="44.18" width="5.71" height=".59" transform="translate(-5.28 3.94) rotate(-7.11)"/><path class="uuid-37d7b693-a004-4f53-a439-6c5da1bf6337" d="m16.8,40.55c.37.44.31,1.1-.13,1.46-.44.37-1.1.31-1.46-.13-.37-.44-.31-1.1.13-1.46.44-.37,1.1-.31,1.46.13Z"/><path class="uuid-37d7b693-a004-4f53-a439-6c5da1bf6337" d="m16.71,42.07c-.47.39-1.17.33-1.57-.14s-.33-1.17.14-1.57c.47-.39,1.17-.33,1.57.14.39.47.33,1.17-.14,1.57Zm-1.33-1.6c-.41.34-.46.95-.12,1.36.34.41.95.46,1.36.12.41-.34.46-.95.12-1.36-.34-.41-.95-.46-1.36-.12Z"/><rect class="uuid-37d7b693-a004-4f53-a439-6c5da1bf6337" x="18.35" y="39.55" width=".59" height="5.71" transform="translate(-27.63 40.5) rotate(-63.91)"/><path class="uuid-37d7b693-a004-4f53-a439-6c5da1bf6337" d="m9.33,34.84c.14.56-.2,1.12-.76,1.26-.56.14-1.12-.2-1.26-.76-.14-.56.2-1.12.76-1.26.56-.14,1.12.2,1.26.76Z"/><path class="uuid-37d7b693-a004-4f53-a439-6c5da1bf6337" d="m8.59,36.17c-.59.15-1.2-.21-1.35-.81-.15-.59.21-1.2.81-1.35s1.2.21,1.35.81c.15.59-.21,1.2-.81,1.35Zm-.5-2.01c-.52.13-.83.65-.7,1.17s.65.83,1.17.7.83-.65.7-1.17c-.13-.52-.65-.83-1.17-.7Z"/><rect class="uuid-37d7b693-a004-4f53-a439-6c5da1bf6337" x="9.9" y="34.45" width=".59" height="5.71" transform="translate(-20.89 14.29) rotate(-38.21)"/><path class="uuid-37d7b693-a004-4f53-a439-6c5da1bf6337" d="m7.32,25.21c-.11.56-.66.93-1.22.81-.56-.11-.93-.66-.81-1.22.11-.56.66-.93,1.22-.81.56.11.93.66.81,1.22Z"/><path class="uuid-37d7b693-a004-4f53-a439-6c5da1bf6337" d="m6.08,26.09c-.6-.12-.99-.71-.87-1.31s.71-.99,1.31-.87c.6.12.99.71.87,1.31-.12.6-.71.99-1.31.87Zm.41-2.04c-.52-.11-1.03.23-1.14.75-.11.52.23,1.03.75,1.14s1.03-.23,1.14-.75-.23-1.03-.75-1.14Z"/><rect class="uuid-37d7b693-a004-4f53-a439-6c5da1bf6337" x="6.74" y="24.95" width=".59" height="5.71" transform="translate(-5.97 2.24) rotate(-12.76)"/><path class="uuid-37d7b693-a004-4f53-a439-6c5da1bf6337" d="m8.77,15.66c-.41.4-1.07.4-1.47,0s-.4-1.07,0-1.47c.41-.4,1.07-.4,1.47,0s.4,1.07,0,1.47Z"/><path class="uuid-37d7b693-a004-4f53-a439-6c5da1bf6337" d="m7.25,15.71c-.43-.44-.43-1.14.01-1.57s1.14-.43,1.57.01.43,1.14-.01,1.57-1.14.43-1.57-.01Zm1.48-1.46c-.37-.38-.99-.38-1.36,0-.38.37-.38.99,0,1.36.37.38.99.38,1.36,0,.38-.37.38-.99,0-1.36Z"/><rect class="uuid-37d7b693-a004-4f53-a439-6c5da1bf6337" x="4.23" y="17.37" width="5.71" height=".59" transform="translate(-11.94 17.87) rotate(-68.77)"/><path class="uuid-37d7b693-a004-4f53-a439-6c5da1bf6337" d="m16.52,9.3c-.56.11-1.11-.25-1.22-.81-.11-.56.25-1.11.81-1.22s1.11.25,1.22.81c.11.56-.25,1.11-.81,1.22Z"/><path class="uuid-37d7b693-a004-4f53-a439-6c5da1bf6337" d="m15.22,8.5c-.12-.6.27-1.19.87-1.31.6-.12,1.19.27,1.31.87.12.6-.27,1.19-.87,1.31-.6.12-1.19-.27-1.31-.87Zm2.04-.41c-.11-.52-.61-.86-1.14-.75-.52.11-.86.61-.75,1.14.11.52.61.86,1.14.75s.86-.61.75-1.14Z"/><rect class="uuid-37d7b693-a004-4f53-a439-6c5da1bf6337" x="11.16" y="9.75" width="5.71" height=".59" transform="translate(-3.23 10.02) rotate(-35.56)"/><path class="uuid-37d7b693-a004-4f53-a439-6c5da1bf6337" d="m24.32,6.05c-.54-.19-.83-.78-.64-1.32.19-.54.78-.83,1.32-.64s.83.78.64,1.32-.78.83-1.32.64Z"/><path class="uuid-37d7b693-a004-4f53-a439-6c5da1bf6337" d="m23.61,4.7c.2-.58.84-.88,1.42-.68.58.2.88.84.68,1.42-.2.58-.84.88-1.42.68-.58-.2-.88-.84-.68-1.42Zm1.96.69c.18-.5-.09-1.05-.59-1.23-.5-.18-1.05.09-1.23.59s.09,1.05.59,1.23c.5.18,1.05-.09,1.23-.59Z"/><rect class="uuid-37d7b693-a004-4f53-a439-6c5da1bf6337" x="18.93" y="5.12" width="5.71" height=".59" transform="translate(-.38 1.86) rotate(-4.85)"/><path class="uuid-37d7b693-a004-4f53-a439-6c5da1bf6337" d="m33.82,8.65c-.39-.42-.38-1.07.04-1.47.42-.39,1.07-.38,1.47.04.39.42.38,1.07-.04,1.47-.42.39-1.07.38-1.47-.04Z"/><path class="uuid-37d7b693-a004-4f53-a439-6c5da1bf6337" d="m33.81,7.12c.45-.42,1.15-.4,1.57.04.42.45.4,1.15-.04,1.57s-1.15.4-1.57-.04-.4-1.15.04-1.57Zm1.43,1.51c.39-.37.4-.98.04-1.36s-.98-.4-1.36-.04-.4.98-.04,1.36c.37.39.98.4,1.36.04Z"/><rect class="uuid-37d7b693-a004-4f53-a439-6c5da1bf6337" x="31.57" y="4.06" width=".59" height="5.71" transform="translate(13.32 33.73) rotate(-67.58)"/><path class="uuid-37d7b693-a004-4f53-a439-6c5da1bf6337" d="m41.57,14.4c-.11-.56.25-1.11.81-1.22.56-.11,1.11.25,1.22.81.11.56-.25,1.11-.81,1.22-.56.11-1.11-.25-1.22-.81Z"/><path class="uuid-37d7b693-a004-4f53-a439-6c5da1bf6337" d="m42.36,13.1c.6-.12,1.19.27,1.31.87s-.27,1.19-.87,1.31-1.19-.27-1.31-.87.27-1.19.87-1.31Zm.41,2.03c.52-.11.86-.62.75-1.14-.11-.52-.62-.86-1.14-.75-.52.11-.86.62-.75,1.14.11.52.62.86,1.14.75Z"/><rect class="uuid-37d7b693-a004-4f53-a439-6c5da1bf6337" x="40.52" y="9.04" width=".59" height="5.71" transform="translate(.72 26.04) rotate(-35.68)"/><rect class="uuid-37d7b693-a004-4f53-a439-6c5da1bf6337" x="28.06" y="33.34" width=".59" height="5.41" transform="translate(-16.64 27.2) rotate(-40.68)"/><polygon class="uuid-37d7b693-a004-4f53-a439-6c5da1bf6337" points="30.81 11.21 35.5 14.13 38.11 18.68 37.6 18.97 35.06 14.55 30.5 11.71 30.81 11.21"/><rect class="uuid-37d7b693-a004-4f53-a439-6c5da1bf6337" x="34.36" y="11.84" width="5.71" height=".59" transform="translate(1.99 29.21) rotate(-43.94)"/><rect class="uuid-37d7b693-a004-4f53-a439-6c5da1bf6337" x="31.5" y="16.68" width="5.23" height=".59" transform="translate(5.91 42.59) rotate(-68.71)"/><polygon class="uuid-37d7b693-a004-4f53-a439-6c5da1bf6337" points="26.58 10.96 26.58 11.55 21.49 11.54 16.74 14.07 16.46 13.55 21.34 10.95 26.58 10.96"/><rect class="uuid-37d7b693-a004-4f53-a439-6c5da1bf6337" x="20.17" y="5.62" width=".59" height="5.71" transform="translate(-1.44 5.18) rotate(-13.93)"/><polyline class="uuid-37d7b693-a004-4f53-a439-6c5da1bf6337" points="24.44 15.72 21.3 11.84 21.76 11.47 25.04 15.52"/><polygon class="uuid-37d7b693-a004-4f53-a439-6c5da1bf6337" points="14.14 17.09 14.64 17.39 12.09 21.8 11.9 27.17 11.31 27.15 11.51 21.63 14.14 17.09"/><rect class="uuid-37d7b693-a004-4f53-a439-6c5da1bf6337" x="8.63" y="18.29" width=".59" height="5.71" transform="translate(-13.87 23.87) rotate(-73.93)"/><rect class="uuid-37d7b693-a004-4f53-a439-6c5da1bf6337" x="11.79" y="21.11" width="5.48" height=".59" transform="translate(-2.91 2.3) rotate(-8.22)"/><polygon class="uuid-37d7b693-a004-4f53-a439-6c5da1bf6337" points="13.73 30.64 16.27 35.06 20.83 37.91 20.52 38.41 15.83 35.48 13.22 30.94 13.73 30.64"/><rect class="uuid-37d7b693-a004-4f53-a439-6c5da1bf6337" x="11.27" y="37.19" width="5.71" height=".59" transform="translate(-22.05 20.29) rotate(-43.93)"/><rect class="uuid-37d7b693-a004-4f53-a439-6c5da1bf6337" x="14.44" y="32.49" width="5.52" height=".59" transform="translate(-19.55 37.27) rotate(-69.28)"/><rect class="uuid-37d7b693-a004-4f53-a439-6c5da1bf6337" x="19.83" y="40.78" width="5.85" height=".59" transform="translate(-23.66 33.98) rotate(-52.33)"/><path class="uuid-37d7b693-a004-4f53-a439-6c5da1bf6337" d="m20.51,37.11c.54-.19,1.13.09,1.33.63.19.54-.09,1.13-.63,1.33-.54.19-1.13-.09-1.33-.63-.19-.54.09-1.13.63-1.33Z"/><path class="uuid-37d7b693-a004-4f53-a439-6c5da1bf6337" d="m21.06,37c.38.07.71.33.85.72.1.28.09.58-.04.85-.13.27-.35.47-.63.57-.28.1-.58.09-.85-.04-.27-.13-.47-.35-.57-.63-.21-.58.09-1.21.67-1.42h0c.19-.07.39-.08.57-.05Zm-.37,2.04c.16.03.33.02.5-.04.24-.09.44-.26.55-.5.11-.23.12-.49.03-.74-.18-.5-.73-.76-1.23-.58-.5.18-.76.73-.58,1.23.09.24.26.44.5.55.08.04.16.06.24.08Z"/><path class="uuid-37d7b693-a004-4f53-a439-6c5da1bf6337" d="m15.87,34.39c.54-.19,1.13.09,1.33.63.19.54-.09,1.13-.63,1.33-.54.19-1.13-.09-1.33-.63-.19-.54.09-1.13.63-1.33Z"/><path class="uuid-37d7b693-a004-4f53-a439-6c5da1bf6337" d="m16.42,34.27c.38.07.71.33.85.72.21.58-.09,1.22-.67,1.42-.28.1-.58.09-.85-.04-.27-.13-.47-.35-.57-.63-.21-.58.09-1.21.67-1.42h0c.19-.07.39-.08.57-.05Zm-.37,2.04c.16.03.33.02.5-.04.24-.09.44-.26.55-.5.11-.23.12-.5.03-.74-.18-.5-.73-.76-1.23-.58-.5.18-.76.73-.58,1.23.09.24.26.44.5.55.08.04.16.06.24.08Z"/><path class="uuid-37d7b693-a004-4f53-a439-6c5da1bf6337" d="m13.04,29.84c.54-.19,1.13.09,1.33.63.19.54-.09,1.13-.63,1.33-.54.19-1.13-.09-1.33-.63-.19-.54.09-1.13.63-1.33Z"/><path class="uuid-37d7b693-a004-4f53-a439-6c5da1bf6337" d="m13.59,29.72c.1.02.19.05.28.09.27.13.47.35.57.63.1.28.09.58-.04.85-.13.27-.35.47-.63.57-.58.21-1.22-.09-1.42-.67-.1-.28-.09-.58.04-.85.13-.27.35-.47.63-.57.19-.07.38-.08.57-.05Zm-.36,2.04c.16.03.33.02.5-.04.24-.09.44-.26.55-.5.11-.23.12-.49.03-.74-.09-.24-.26-.44-.5-.55-.23-.11-.5-.12-.74-.04h0c-.24.09-.44.26-.55.5-.11.23-.12.49-.03.74.12.34.41.56.74.62Z"/><path class="uuid-37d7b693-a004-4f53-a439-6c5da1bf6337" d="m17.73,29.39c.54-.19,1.13.09,1.33.63.19.54-.09,1.13-.63,1.33-.54.19-1.13-.09-1.33-.63-.19-.54.09-1.13.63-1.33Z"/><path class="uuid-37d7b693-a004-4f53-a439-6c5da1bf6337" d="m18.28,29.27c.38.07.71.33.85.72.1.28.09.58-.04.85-.13.27-.35.47-.63.57-.58.21-1.21-.09-1.42-.67-.21-.58.09-1.21.67-1.42h0c.19-.07.39-.08.57-.05Zm-.36,2.04c.16.03.33.02.5-.04.24-.09.44-.26.55-.5.11-.23.12-.49.03-.74-.18-.5-.73-.76-1.23-.58-.5.18-.76.73-.58,1.23.12.34.41.56.74.62Z"/><path class="uuid-37d7b693-a004-4f53-a439-6c5da1bf6337" d="m11.75,38.58c.54-.19,1.13.09,1.33.63.19.54-.09,1.13-.63,1.33-.54.19-1.13-.09-1.33-.63-.19-.54.09-1.13.63-1.33Z"/><path class="uuid-37d7b693-a004-4f53-a439-6c5da1bf6337" d="m12.3,38.46c.09.02.19.05.28.09.27.13.47.35.57.63.1.28.09.58-.04.85-.13.27-.35.47-.63.57-.58.21-1.22-.09-1.42-.67-.1-.28-.09-.58.04-.85.13-.27.35-.47.63-.57.19-.07.38-.08.57-.05Zm-.37,2.04c.16.03.33.02.5-.04.24-.09.44-.26.55-.5.11-.23.12-.49.03-.74-.09-.24-.26-.44-.5-.55-.23-.11-.49-.12-.74-.04h0c-.24.09-.44.26-.55.5-.11.23-.12.49-.03.74.12.34.41.56.74.62Z"/><path class="uuid-37d7b693-a004-4f53-a439-6c5da1bf6337" d="m7.23,28.78c.55-.18,1.13.12,1.31.67s-.12,1.13-.67,1.31c-.55.18-1.13-.12-1.31-.67-.18-.55.12-1.13.67-1.31Z"/><path class="uuid-37d7b693-a004-4f53-a439-6c5da1bf6337" d="m7.74,28.67c.11.02.21.05.31.11.26.14.46.37.55.65.19.58-.13,1.21-.72,1.4-.28.09-.58.07-.85-.07-.26-.14-.46-.37-.55-.65-.09-.28-.07-.58.07-.85.14-.26.37-.46.65-.55h0c.18-.06.36-.07.54-.04Zm-.37,2.04c.15.03.31.02.47-.03.51-.16.79-.71.62-1.21-.08-.25-.25-.45-.48-.56-.23-.12-.49-.14-.74-.06h0c-.25.08-.45.25-.56.48-.12.23-.14.49-.06.74.08.25.25.45.48.56.09.04.18.08.27.09Z"/><rect class="uuid-37d7b693-a004-4f53-a439-6c5da1bf6337" x="10.23" y="27.3" width=".59" height="5.85" transform="translate(-21.03 35.56) rotate(-80.39)"/><path class="uuid-37d7b693-a004-4f53-a439-6c5da1bf6337" d="m12.43,26.5c.44.37.49,1.03.12,1.46-.37.44-1.03.49-1.46.12-.44-.37-.49-1.03-.12-1.46.37-.44,1.03-.49,1.46-.12Z"/><path class="uuid-37d7b693-a004-4f53-a439-6c5da1bf6337" d="m11.96,26.19c.19.03.37.12.52.25h0c.23.19.37.46.39.76.02.3-.07.58-.26.81-.4.47-1.1.53-1.57.13-.47-.4-.53-1.1-.13-1.57.19-.23.46-.37.76-.39.1,0,.2,0,.29.01Zm-.37,2.04c.33.06.68-.05.91-.33.17-.2.25-.45.22-.7-.02-.26-.14-.49-.34-.66h0c-.2-.17-.45-.25-.7-.22-.26.02-.49.14-.66.34-.34.41-.29,1.02.11,1.36.13.11.29.18.45.21Z"/><path class="uuid-37d7b693-a004-4f53-a439-6c5da1bf6337" d="m12.47,21.11c.44.37.49,1.03.12,1.46-.37.44-1.03.49-1.46.12-.44-.37-.49-1.03-.12-1.46.37-.44,1.03-.49,1.46-.12Z"/><path class="uuid-37d7b693-a004-4f53-a439-6c5da1bf6337" d="m12,20.81c.19.03.36.11.52.24h0c.23.19.37.46.39.76.02.3-.07.58-.26.81s-.46.37-.76.39c-.3.03-.58-.07-.81-.26-.23-.19-.37-.46-.39-.76-.02-.3.07-.58.26-.81.27-.31.67-.44,1.05-.38Zm.42.36c-.41-.34-1.02-.29-1.36.11-.17.2-.25.45-.22.7.02.26.14.49.34.66.2.17.45.25.7.22.26-.02.49-.14.66-.34.17-.2.25-.45.22-.7-.02-.26-.14-.49-.34-.66h0Z"/><path class="uuid-37d7b693-a004-4f53-a439-6c5da1bf6337" d="m14.99,16.39c.44.37.49,1.03.12,1.46s-1.03.49-1.46.12c-.44-.37-.49-1.03-.12-1.46.37-.44,1.03-.49,1.46-.12Z"/><path class="uuid-37d7b693-a004-4f53-a439-6c5da1bf6337" d="m14.52,16.09c.19.03.37.12.52.25h0c.47.4.53,1.1.13,1.57-.4.47-1.1.53-1.57.13-.23-.19-.37-.46-.39-.76-.02-.3.07-.58.26-.81s.46-.37.76-.39c.1,0,.2,0,.29.01Zm-.37,2.04c.33.06.68-.05.91-.33.34-.41.29-1.02-.11-1.36h0c-.2-.17-.45-.25-.7-.22-.26.02-.49.14-.66.34-.17.2-.25.45-.22.7.02.26.14.49.34.66.13.11.29.18.45.21Z"/><path class="uuid-37d7b693-a004-4f53-a439-6c5da1bf6337" d="m17.73,20.23c.44.37.49,1.03.12,1.46-.37.44-1.03.49-1.46.12-.44-.37-.49-1.03-.12-1.46s1.03-.49,1.46-.12Z"/><path class="uuid-37d7b693-a004-4f53-a439-6c5da1bf6337" d="m17.26,19.93c.19.03.37.12.52.25h0c.23.19.37.46.39.76.02.3-.07.58-.26.81-.4.47-1.1.53-1.57.13-.47-.4-.53-1.1-.13-1.57.19-.23.46-.37.76-.39.1,0,.2,0,.29.01Zm-.37,2.04c.33.06.68-.05.91-.33.17-.2.25-.45.22-.7-.02-.26-.14-.49-.34-.66h0c-.2-.17-.45-.25-.7-.22-.26.02-.49.14-.66.34-.34.41-.29,1.02.11,1.36.13.11.29.18.45.21Z"/><path class="uuid-37d7b693-a004-4f53-a439-6c5da1bf6337" d="m6.78,19.64c.44.37.49,1.03.12,1.46-.37.44-1.03.49-1.46.12-.44-.37-.49-1.03-.12-1.46s1.03-.49,1.46-.12Z"/><path class="uuid-37d7b693-a004-4f53-a439-6c5da1bf6337" d="m6.31,19.34c.19.03.36.11.52.24h0c.47.4.53,1.1.13,1.57-.19.23-.46.37-.76.39-.3.03-.58-.07-.81-.26-.47-.4-.53-1.1-.13-1.57.27-.31.67-.44,1.05-.38Zm.42.36c-.41-.34-1.02-.29-1.36.11-.17.2-.25.45-.22.7.02.26.14.49.34.66.2.17.45.25.7.22.26-.02.49-.14.66-.34.34-.41.29-1.02-.11-1.36h0Z"/><path class="uuid-37d7b693-a004-4f53-a439-6c5da1bf6337" d="m12.76,10.93c.43.38.48,1.03.1,1.46-.38.43-1.03.48-1.46.1s-.48-1.03-.1-1.46,1.03-.48,1.46-.1Z"/><path class="uuid-37d7b693-a004-4f53-a439-6c5da1bf6337" d="m12.28,10.61c.2.04.38.12.53.26h0c.22.2.36.47.38.76.02.3-.08.58-.27.81-.4.46-1.11.51-1.57.11-.46-.4-.51-1.11-.11-1.57.2-.22.47-.36.76-.38.09,0,.19,0,.28.01Zm-.37,2.04c.32.06.67-.05.9-.31.17-.19.25-.44.24-.7-.02-.26-.13-.49-.33-.66h0c-.19-.17-.44-.25-.7-.24-.26.02-.49.13-.66.33-.35.4-.31,1.01.09,1.36.14.12.3.19.46.22Z"/><rect class="uuid-37d7b693-a004-4f53-a439-6c5da1bf6337" x="12.93" y="11.57" width=".59" height="5.85" transform="translate(-4.39 5.84) rotate(-21.46)"/><circle class="uuid-37d7b693-a004-4f53-a439-6c5da1bf6337" cx="16.56" cy="14" r="1.04"/><path class="uuid-37d7b693-a004-4f53-a439-6c5da1bf6337" d="m16.76,12.91c.6.11,1.01.69.9,1.29s-.69,1.01-1.29.9-1.01-.69-.9-1.29.69-1.01,1.29-.9Zm-.37,2.04c.52.09,1.03-.25,1.12-.78s-.25-1.03-.78-1.12-1.03.25-1.12.78.25,1.03.78,1.12Z"/><circle class="uuid-37d7b693-a004-4f53-a439-6c5da1bf6337" cx="21.25" cy="11.35" r="1.04"/><path class="uuid-37d7b693-a004-4f53-a439-6c5da1bf6337" d="m21.44,10.26c.6.11,1.01.69.9,1.29s-.69,1.01-1.29.9-1.01-.69-.9-1.29.69-1.01,1.29-.9Zm-.37,2.04c.52.09,1.03-.25,1.12-.78s-.25-1.03-.78-1.12-1.03.25-1.12.78.25,1.03.78,1.12Z"/><path class="uuid-37d7b693-a004-4f53-a439-6c5da1bf6337" d="m27.62,11.36c-.1.56-.64.94-1.21.84s-.94-.64-.84-1.21.64-.94,1.21-.84.94.64.84,1.21Z"/><path class="uuid-37d7b693-a004-4f53-a439-6c5da1bf6337" d="m26.79,10.08c.6.11,1.01.69.9,1.29s-.69,1.01-1.29.9-1.01-.69-.9-1.29.69-1.01,1.29-.9Zm-.37,2.04c.52.09,1.03-.25,1.12-.78s-.25-1.03-.78-1.12-1.03.25-1.12.78.25,1.03.78,1.12Z"/><circle class="uuid-37d7b693-a004-4f53-a439-6c5da1bf6337" cx="24.65" cy="15.46" r="1.04"/><path class="uuid-37d7b693-a004-4f53-a439-6c5da1bf6337" d="m24.84,14.37c.6.11,1.01.69.9,1.29s-.69,1.01-1.29.9-1.01-.69-.9-1.29.69-1.01,1.29-.9Zm-.37,2.04c.52.09,1.03-.25,1.12-.78s-.25-1.03-.78-1.12-1.03.25-1.12.78.25,1.03.78,1.12Z"/><path class="uuid-37d7b693-a004-4f53-a439-6c5da1bf6337" d="m29.91,19.63c-.1.56-.64.94-1.21.84s-.94-.64-.84-1.21.64-.94,1.21-.84.94.64.84,1.21Z"/><path class="uuid-37d7b693-a004-4f53-a439-6c5da1bf6337" d="m29.09,18.35c.6.11,1.01.69.9,1.29s-.69,1.01-1.29.9-1.01-.69-.9-1.29.69-1.01,1.29-.9Zm-.37,2.04c.52.09,1.03-.25,1.12-.78s-.25-1.03-.78-1.12-1.03.25-1.12.78.25,1.03.78,1.12Z"/><path class="uuid-37d7b693-a004-4f53-a439-6c5da1bf6337" d="m20.7,5.87c-.1.56-.64.94-1.21.84s-.94-.64-.84-1.21.64-.94,1.21-.84.94.64.84,1.21Z"/><path class="uuid-37d7b693-a004-4f53-a439-6c5da1bf6337" d="m19.87,4.59c.6.11,1.01.69.9,1.29s-.69,1.01-1.29.9-1.01-.69-.9-1.29.69-1.01,1.29-.9Zm-.37,2.04c.52.09,1.03-.25,1.12-.78s-.25-1.03-.78-1.12-1.03.25-1.12.78.25,1.03.78,1.12Z"/><path class="uuid-37d7b693-a004-4f53-a439-6c5da1bf6337" d="m30.35,5.9c0,.57-.47,1.04-1.04,1.04s-1.04-.47-1.04-1.04.47-1.04,1.04-1.04,1.04.47,1.04,1.04Z"/><path class="uuid-37d7b693-a004-4f53-a439-6c5da1bf6337" d="m29.51,4.81c.52.09.91.55.91,1.09h0c0,.3-.12.58-.33.79-.21.21-.49.33-.79.33-.3,0-.58-.12-.79-.33-.21-.21-.33-.49-.33-.79,0-.61.5-1.11,1.11-1.11.07,0,.13,0,.2.02Zm-.37,2.04c.06.01.11.02.17.02.26,0,.5-.1.68-.28.18-.18.28-.42.28-.68h0c0-.53-.43-.97-.96-.97-.53,0-.96.43-.97.96,0,.26.1.5.28.68.14.14.32.23.51.27Z"/><rect class="uuid-37d7b693-a004-4f53-a439-6c5da1bf6337" x="25.03" y="8.31" width="5.85" height=".59" transform="translate(7.42 29.44) rotate(-62.51)"/><path class="uuid-37d7b693-a004-4f53-a439-6c5da1bf6337" d="m30.82,12.5c-.54.19-1.13-.09-1.33-.63-.19-.54.09-1.13.63-1.33s1.13.09,1.33.63c.19.54-.09,1.13-.63,1.33Z"/><path class="uuid-37d7b693-a004-4f53-a439-6c5da1bf6337" d="m30.67,10.43c.38.07.71.33.85.72.21.58-.09,1.21-.67,1.42h0c-.58.21-1.21-.09-1.42-.67-.1-.28-.09-.58.04-.85.13-.27.35-.47.63-.57.19-.07.39-.08.57-.05Zm.13,2c.5-.18.76-.73.58-1.23-.18-.5-.73-.76-1.23-.58-.24.09-.44.26-.55.5-.11.23-.12.49-.03.74.18.5.73.76,1.23.58h0Z"/><path class="uuid-37d7b693-a004-4f53-a439-6c5da1bf6337" d="m35.46,15.23c-.54.19-1.13-.09-1.33-.63-.19-.54.09-1.13.63-1.33.54-.19,1.13.09,1.33.63.19.54-.09,1.13-.63,1.33Z"/><path class="uuid-37d7b693-a004-4f53-a439-6c5da1bf6337" d="m35.31,13.15c.1.02.19.05.28.09.27.13.47.35.57.63.21.58-.09,1.21-.67,1.42h0c-.58.21-1.21-.09-1.42-.67-.1-.28-.09-.58.04-.85.13-.27.35-.47.63-.57.19-.07.38-.08.57-.05Zm.13,2c.5-.18.76-.73.58-1.23-.09-.24-.26-.44-.5-.55-.23-.11-.5-.12-.74-.04-.24.09-.44.26-.55.5-.11.23-.12.49-.03.74.18.5.73.76,1.23.58h0Z"/><path class="uuid-37d7b693-a004-4f53-a439-6c5da1bf6337" d="m38.29,19.77c-.54.19-1.13-.09-1.33-.63-.19-.54.09-1.13.63-1.33.54-.19,1.13.09,1.33.63.19.54-.09,1.13-.63,1.33Z"/><path class="uuid-37d7b693-a004-4f53-a439-6c5da1bf6337" d="m38.14,17.7c.1.02.19.05.28.09.27.13.47.35.57.63s.09.58-.04.85c-.13.27-.35.47-.63.57-.58.21-1.21-.09-1.42-.67-.1-.28-.09-.58.04-.85.13-.27.35-.47.63-.57.19-.07.38-.08.57-.05Zm-.37,2.04c.16.03.33.02.5-.04.24-.09.44-.26.55-.5.11-.23.12-.49.03-.74-.09-.24-.26-.44-.5-.55-.23-.11-.5-.12-.74-.04-.24.09-.44.26-.55.5-.11.23-.12.49-.03.74.12.34.41.56.74.62Z"/><path class="uuid-37d7b693-a004-4f53-a439-6c5da1bf6337" d="m33.8,19.6c-.54.19-1.13-.09-1.33-.63-.19-.54.09-1.13.63-1.33.54-.19,1.13.09,1.33.63.19.54-.09,1.13-.63,1.33Z"/><path class="uuid-37d7b693-a004-4f53-a439-6c5da1bf6337" d="m33.64,17.53c.38.07.71.33.85.72.1.28.09.58-.04.85-.13.27-.35.47-.63.57-.58.21-1.21-.09-1.42-.67-.21-.58.09-1.21.67-1.42.19-.07.39-.08.57-.05Zm-.36,2.04c.16.03.33.02.5-.04h0c.24-.09.44-.26.55-.5.11-.23.12-.49.03-.74-.18-.5-.73-.76-1.23-.58-.5.18-.76.73-.58,1.23.12.34.41.56.74.62Z"/><path class="uuid-37d7b693-a004-4f53-a439-6c5da1bf6337" d="m39.58,11.03c-.54.19-1.13-.09-1.33-.63-.19-.54.09-1.13.63-1.33.54-.19,1.13.09,1.33.63.19.54-.09,1.13-.63,1.33Z"/><path class="uuid-37d7b693-a004-4f53-a439-6c5da1bf6337" d="m39.43,8.96c.09.02.19.05.28.09.27.13.47.35.57.63.21.58-.09,1.21-.67,1.42h0c-.58.21-1.21-.09-1.42-.67-.21-.58.09-1.22.67-1.42.19-.07.38-.08.57-.05Zm.13,2c.5-.18.76-.73.58-1.23-.09-.24-.26-.44-.5-.55-.23-.11-.5-.12-.74-.04-.24.09-.44.26-.55.5-.11.23-.12.5-.03.74.18.5.73.76,1.23.58h0Z"/><path class="uuid-37d7b693-a004-4f53-a439-6c5da1bf6337" d="m44.38,19.58c-.51.27-1.13.08-1.4-.43s-.08-1.13.43-1.4,1.13-.08,1.4.43c.27.51.08,1.13-.43,1.4Z"/><path class="uuid-37d7b693-a004-4f53-a439-6c5da1bf6337" d="m44.08,17.57c.32.06.62.26.78.57.29.54.08,1.22-.46,1.5-.26.14-.56.17-.85.08-.28-.09-.52-.28-.66-.54-.29-.54-.08-1.22.46-1.5.23-.12.48-.16.72-.11Zm-.37,2.04c.21.04.43,0,.62-.1h0c.47-.25.65-.84.4-1.31-.25-.47-.84-.65-1.31-.4-.47.25-.65.84-.4,1.31.12.23.32.39.57.47.04.01.07.02.11.03Z"/><rect class="uuid-37d7b693-a004-4f53-a439-6c5da1bf6337" x="37.94" y="18.45" width="5.85" height=".59" transform="translate(-.21 .46) rotate(-.64)"/><rect class="uuid-37d7b693-a004-4f53-a439-6c5da1bf6337" x="26.45" y="14.55" width=".59" height="5.5" transform="translate(-4.37 24.14) rotate(-45.31)"/><g id="uuid-dd1b8375-59e3-4531-aab5-87a777a2ec9d"><path class="uuid-7fd5e53f-34c9-4d5a-bc8d-b65b5117cc2d" d="m23.81,24.79h5.49c.02.85-.1,1.62-.36,2.33-.26.71-.63,1.32-1.11,1.84-.48.52-1.05.92-1.72,1.21-.67.29-1.41.43-2.21.43-.54,0-1.05-.07-1.55-.2s-.96-.32-1.39-.57c-.43-.24-.82-.54-1.17-.88-.35-.34-.66-.72-.91-1.14s-.45-.87-.59-1.35c-.14-.48-.21-.99-.21-1.51s.07-1.03.21-1.52c.14-.48.33-.94.59-1.36s.56-.8.91-1.15c.35-.34.75-.64,1.17-.88.43-.24.89-.43,1.39-.57.5-.13,1.01-.2,1.55-.2.81,0,1.58.15,2.3.44.72.29,1.36.74,1.94,1.33l-.94.93c-.18-.21-.39-.4-.62-.58-.23-.18-.49-.33-.77-.47-.28-.13-.58-.24-.9-.31-.32-.07-.66-.11-1.01-.11-.61,0-1.18.11-1.71.34-.54.23-1,.54-1.4.94-.4.4-.71.87-.94,1.41-.23.54-.35,1.12-.35,1.75,0,.42.05.81.16,1.19.1.38.25.73.44,1.06.19.33.42.62.69.89.27.27.57.49.89.68.32.19.67.34,1.05.44.38.1.77.16,1.17.16.59,0,1.12-.08,1.59-.26.47-.17.87-.41,1.21-.72.34-.31.61-.68.81-1.11.2-.43.33-.9.39-1.43h-4.09v-1.05Z"/></g><g id="uuid-29ca0bb9-1744-4962-8b90-2dd3a938b94b"><path class="uuid-7fd5e53f-34c9-4d5a-bc8d-b65b5117cc2d" d="m34.72,30.42h5.1c.02.79-.09,1.51-.33,2.17-.24.66-.58,1.23-1.03,1.71-.44.48-.98.85-1.6,1.12-.62.27-1.31.4-2.05.4-.5,0-.98-.06-1.44-.19s-.89-.3-1.29-.53c-.4-.23-.76-.5-1.09-.82-.33-.32-.61-.67-.85-1.06s-.42-.81-.54-1.26c-.13-.45-.19-.92-.19-1.4s.06-.96.19-1.41c.13-.45.31-.87.54-1.26s.52-.75.85-1.06c.33-.32.69-.59,1.09-.82.4-.23.83-.4,1.29-.53.46-.12.94-.19,1.44-.19.76,0,1.47.14,2.13.41.66.27,1.27.68,1.81,1.24l-.88.87c-.17-.19-.36-.37-.58-.54-.22-.17-.46-.31-.72-.43-.26-.12-.54-.22-.83-.29-.3-.07-.61-.1-.93-.1-.56,0-1.09.1-1.59.31-.5.21-.93.5-1.3.87-.37.37-.66.81-.88,1.31-.22.5-.32,1.04-.32,1.62,0,.39.05.75.14,1.11.1.35.23.68.41.98.18.3.39.58.64.83.25.25.53.46.83.63.3.18.63.31.98.41.35.1.71.14,1.09.14.55,0,1.04-.08,1.48-.24.44-.16.81-.38,1.12-.67.31-.29.56-.63.75-1.03.19-.4.31-.84.36-1.32h-3.8v-.98Z"/></g></g></svg>