<svg width="200" height="200" viewBox="0 0 200 200" fill="none" xmlns="http://www.w3.org/2000/svg">
<path d="M99 154.6H119.96L121.56 153.8C121.2 153.44 121.04 152.88 121.32 152.28C121.6 151.68 121.96 151.16 122.36 150.72L119.36 152.32H99V154.64V154.6Z" fill="#30A46C"/>
<path d="M120.36 157.2C122.658 157.2 124.52 155.337 124.52 153.04C124.52 150.742 122.658 148.88 120.36 148.88C118.063 148.88 116.2 150.742 116.2 153.04C116.2 155.337 118.063 157.2 120.36 157.2Z" fill="#30A46C"/>
<path d="M121.16 148.68C123.56 149.12 125.2 151.44 124.76 153.84C124.32 156.24 122 157.88 119.6 157.44C117.2 157 115.56 154.68 116 152.28C116.44 149.88 118.76 148.24 121.16 148.68ZM119.68 156.84C121.76 157.2 123.8 155.84 124.16 153.72C124.52 151.6 123.16 149.6 121.04 149.24C118.92 148.88 116.92 150.24 116.56 152.36C116.2 154.48 117.56 156.48 119.68 156.84Z" fill="#30A46C"/>
<path d="M98.9598 157.92C101.257 157.92 103.12 156.058 103.12 153.76C103.12 151.463 101.257 149.6 98.9598 149.6C96.6623 149.6 94.7998 151.463 94.7998 153.76C94.7998 156.058 96.6623 157.92 98.9598 157.92Z" fill="#30A46C"/>
<path d="M99.7197 149.4C102.12 149.84 103.76 152.16 103.32 154.56C102.88 156.96 100.56 158.6 98.1597 158.16C95.7597 157.72 94.1197 155.4 94.5597 153C94.9997 150.6 97.3197 148.96 99.7197 149.4ZM98.2397 157.56C100.32 157.92 102.36 156.56 102.72 154.44C103.08 152.32 101.72 150.32 99.5997 149.96C97.4797 149.6 95.4797 150.96 95.1197 153.08C94.7597 155.2 96.1197 157.2 98.2397 157.56Z" fill="#30A46C"/>
<path d="M102.68 135.88C103.08 133.64 105.24 132.12 107.52 132.52C109.8 132.92 111.28 135.08 110.88 137.36C110.48 139.64 108.32 141.12 106.04 140.72C103.76 140.32 102.28 138.16 102.68 135.88Z" fill="#30A46C"/>
<path d="M107.56 132.24C109.96 132.68 111.6 135 111.16 137.4C110.72 139.8 108.4 141.44 106 141C103.6 140.56 101.96 138.24 102.4 135.84C102.84 133.44 105.16 131.8 107.56 132.24ZM106.08 140.4C108.16 140.76 110.2 139.4 110.56 137.28C110.92 135.16 109.56 133.16 107.44 132.8C105.32 132.44 103.32 133.8 102.96 135.92C102.6 138.04 103.96 140.04 106.08 140.4Z" fill="#30A46C"/>
<path d="M122.56 174.96C122.96 172.72 125.12 171.2 127.4 171.6C129.68 172 131.16 174.16 130.76 176.44C130.36 178.72 128.2 180.2 125.92 179.8C123.64 179.4 122.16 177.24 122.56 174.96Z" fill="#30A46C"/>
<path d="M127.44 171.32C129.84 171.76 131.48 174.08 131.04 176.48C130.6 178.88 128.28 180.52 125.88 180.08C123.48 179.64 121.84 177.32 122.28 174.92C122.72 172.52 125.04 170.88 127.44 171.32ZM125.96 179.48C128.04 179.84 130.08 178.48 130.44 176.36C130.8 174.24 129.44 172.24 127.32 171.88C125.2 171.52 123.2 172.88 122.84 175C122.48 177.12 123.84 179.12 125.96 179.48Z" fill="#30A46C"/>
<path d="M83.7596 178.12C86.0571 178.12 87.9196 176.258 87.9196 173.96C87.9196 171.663 86.0571 169.8 83.7596 169.8C81.4621 169.8 79.5996 171.663 79.5996 173.96C79.5996 176.258 81.4621 178.12 83.7596 178.12Z" fill="#30A46C"/>
<path d="M84.5596 169.6C86.9596 170.04 88.5996 172.36 88.1596 174.76C87.7196 177.16 85.3996 178.8 82.9996 178.36C80.5996 177.92 78.9596 175.6 79.3996 173.2C79.8396 170.8 82.1596 169.16 84.5596 169.6ZM83.0796 177.76C85.1596 178.12 87.1996 176.76 87.5596 174.64C87.9196 172.52 86.5596 170.52 84.4396 170.16C82.3196 169.8 80.3196 171.16 79.9596 173.28C79.5996 175.4 80.9596 177.4 83.0796 177.76Z" fill="#30A46C"/>
<path d="M121.884 153.201L119.594 153.769L125.092 175.937L127.383 175.369L121.884 153.201Z" fill="#30A46C"/>
<path d="M105.96 175.76C108.16 176.44 109.4 178.76 108.72 180.96C108.04 183.16 105.72 184.4 103.52 183.72C101.32 183.04 100.08 180.72 100.76 178.52C101.44 176.32 103.76 175.08 105.96 175.76Z" fill="#30A46C"/>
<path d="M109 181.04C108.28 183.4 105.8 184.72 103.44 184C101.08 183.28 99.7597 180.8 100.48 178.44C101.2 176.08 103.68 174.76 106.04 175.48C108.4 176.2 109.72 178.68 109 181.04ZM101.04 178.6C100.4 180.64 101.56 182.8 103.6 183.44C105.64 184.08 107.8 182.92 108.44 180.88C109.08 178.84 107.92 176.68 105.88 176.04C103.84 175.4 101.68 176.56 101.04 178.6Z" fill="#30A46C"/>
<path d="M127.372 175.327L104.708 178.154L105 180.496L127.664 177.669L127.372 175.327Z" fill="#30A46C"/>
<path d="M67.1998 162.2C68.6798 163.96 68.4398 166.6 66.6798 168.04C64.9198 169.52 62.2798 169.28 60.8398 167.52C59.3598 165.76 59.5998 163.12 61.3598 161.68C63.1198 160.2 65.7598 160.44 67.1998 162.2Z" fill="#30A46C"/>
<path d="M66.8396 168.28C64.9596 169.84 62.1596 169.6 60.5596 167.72C58.9596 165.84 59.2396 163.04 61.1196 161.44C62.9996 159.88 65.7996 160.12 67.3996 162C68.9596 163.88 68.7196 166.68 66.8396 168.28ZM61.5196 161.88C59.8796 163.24 59.6796 165.68 61.0396 167.32C62.3996 168.96 64.8396 169.16 66.4796 167.8C68.1196 166.44 68.3196 164 66.9596 162.36C65.5996 160.72 63.1596 160.52 61.5196 161.88Z" fill="#30A46C"/>
<path d="M64.8777 163.533L63.8398 165.653L84.3525 175.697L85.3904 173.578L64.8777 163.533Z" fill="#30A46C"/>
<path d="M37.3202 139.36C37.8802 141.6 36.5202 143.84 34.2802 144.4C32.0402 144.96 29.8002 143.6 29.2402 141.36C28.6802 139.12 30.0402 136.88 32.2802 136.32C34.5202 135.76 36.7602 137.12 37.3202 139.36Z" fill="#30A46C"/>
<path d="M34.3602 144.68C32.0002 145.28 29.5602 143.84 28.9602 141.44C28.3602 139.08 29.8002 136.64 32.2002 136.04C34.6002 135.44 37.0002 136.88 37.6002 139.28C38.2002 141.64 36.7602 144.08 34.3602 144.68ZM32.3602 136.64C30.2802 137.16 29.0402 139.24 29.5602 141.32C30.0802 143.4 32.1602 144.64 34.2402 144.12C36.3202 143.6 37.5602 141.52 37.0402 139.44C36.5202 137.36 34.4402 136.12 32.3602 136.64Z" fill="#30A46C"/>
<path d="M34.6454 139.482L32.791 140.942L46.9186 158.888L48.773 157.429L34.6454 139.482Z" fill="#30A46C"/>
<path d="M29.2798 100.84C28.8398 103.08 26.6398 104.56 24.3998 104.08C22.1598 103.64 20.6798 101.44 21.1598 99.2001C21.5998 96.9601 23.7998 95.4801 26.0398 95.9601C28.2798 96.4001 29.7598 98.6001 29.2798 100.84Z" fill="#30A46C"/>
<path d="M24.3197 104.36C21.9197 103.88 20.3597 101.52 20.8397 99.12C21.3197 96.72 23.6797 95.16 26.0797 95.64C28.4797 96.12 30.0397 98.48 29.5597 100.88C29.0797 103.28 26.7197 104.84 24.3197 104.36ZM25.9597 96.2C23.8797 95.76 21.8397 97.12 21.3997 99.2C20.9597 101.28 22.3197 103.32 24.3997 103.76C26.4797 104.2 28.5197 102.84 28.9597 100.76C29.3997 98.68 28.0397 96.64 25.9597 96.2Z" fill="#30A46C"/>
<path d="M26.7587 99.8196L24.457 100.341L29.5016 122.617L31.8034 122.096L26.7587 99.8196Z" fill="#30A46C"/>
<path d="M35.08 62.6401C33.44 64.2401 30.8 64.2401 29.2 62.6401C27.6 61.0401 27.6 58.3601 29.2 56.7601C30.84 55.1601 33.48 55.1601 35.08 56.7601C36.68 58.3601 36.68 61.0401 35.08 62.6401Z" fill="#30A46C"/>
<path d="M28.9999 62.8399C27.2799 61.0799 27.2799 58.2799 29.0399 56.5599C30.7999 54.8399 33.5999 54.8399 35.3199 56.5999C37.0399 58.3599 37.0399 61.1599 35.2799 62.8799C33.5199 64.5999 30.7199 64.5999 28.9999 62.8399ZM34.9199 56.9999C33.4399 55.4799 30.9599 55.4799 29.4799 56.9999C27.9599 58.4799 27.9599 60.9599 29.4799 62.4399C30.9599 63.9599 33.4399 63.9599 34.9199 62.4399C36.4399 60.9599 36.4399 58.4799 34.9199 56.9999Z" fill="#30A46C"/>
<path d="M31.4025 59.5782L23.1318 80.8682L25.3317 81.7227L33.6023 60.4328L31.4025 59.5782Z" fill="#30A46C"/>
<path d="M66.0802 37.2C63.8402 37.64 61.6402 36.2 61.2002 33.96C60.7602 31.72 62.2002 29.52 64.4402 29.08C66.6802 28.64 68.8802 30.08 69.3202 32.32C69.7602 34.56 68.3202 36.76 66.0802 37.2Z" fill="#30A46C"/>
<path d="M60.8797 34.0001C60.3997 31.6001 61.9597 29.2401 64.3597 28.7601C66.7597 28.2801 69.1197 29.8401 69.5997 32.2401C70.0797 34.6401 68.5197 37.0001 66.1197 37.4801C63.7197 37.9601 61.3597 36.4001 60.8797 34.0001ZM69.0397 32.3601C68.5997 30.2801 66.5997 28.9201 64.4797 29.3601C62.3997 29.8001 61.0397 31.8001 61.4797 33.9201C61.9197 36.0001 63.9197 37.3601 66.0397 36.9201C68.1597 36.4801 69.4797 34.4801 69.0397 32.3601Z" fill="#30A46C"/>
<path d="M64.6557 32.5635L46.0752 45.8462L47.4477 47.7661L66.0282 34.4833L64.6557 32.5635Z" fill="#30A46C"/>
<path d="M97.2796 24.2003C95.1196 23.4403 93.9596 21.0803 94.7196 18.9203C95.4796 16.7603 97.8396 15.6003 99.9996 16.3603C102.16 17.1203 103.32 19.4803 102.56 21.6403C101.8 23.8003 99.4396 24.9603 97.2796 24.2003Z" fill="#30A46C"/>
<path d="M94.4399 18.8001C95.2399 16.4801 97.7999 15.2801 100.12 16.0801C102.44 16.8801 103.64 19.4401 102.84 21.7601C102.04 24.0801 99.4799 25.2801 97.1599 24.4801C94.8399 23.6801 93.6399 21.1201 94.4399 18.8001ZM102.28 21.5601C103 19.5601 101.92 17.3601 99.9199 16.6401C97.9199 15.9201 95.7199 17.0001 94.9999 19.0001C94.2799 21.0001 95.3599 23.2001 97.3599 23.9201C99.3599 24.6401 101.56 23.5601 102.28 21.5601Z" fill="#30A46C"/>
<path d="M98.4184 19.5138L75.6602 21.4448L75.8597 23.7964L98.6179 21.8653L98.4184 19.5138Z" fill="#30A46C"/>
<path d="M135.28 34.6001C133.72 32.9201 133.76 30.3201 135.44 28.7201C137.12 27.1601 139.72 27.2001 141.32 28.8801C142.88 30.5601 142.84 33.1601 141.16 34.7601C139.48 36.3201 136.88 36.2801 135.28 34.6001Z" fill="#30A46C"/>
<path d="M135.24 28.4801C137.04 26.8001 139.84 26.8801 141.52 28.6401C143.2 30.4401 143.12 33.2401 141.36 34.9201C139.6 36.6001 136.76 36.5201 135.08 34.7601C133.4 33.0001 133.48 30.1601 135.24 28.4801ZM140.96 34.5201C142.52 33.0401 142.56 30.6001 141.12 29.0801C139.68 27.5601 137.2 27.4801 135.68 28.9201C134.16 30.3601 134.08 32.8401 135.52 34.3601C137 35.9201 139.44 35.9601 140.96 34.5201Z" fill="#30A46C"/>
<path d="M117.355 22.1973L116.455 24.3789L137.569 33.0899L138.469 30.9083L117.355 22.1973Z" fill="#30A46C"/>
<path d="M166.28 57.6002C165.84 55.3602 167.28 53.1602 169.52 52.7202C171.76 52.2802 173.96 53.7202 174.4 55.9602C174.84 58.2002 173.4 60.4002 171.16 60.8402C168.92 61.2802 166.72 59.8402 166.28 57.6002Z" fill="#30A46C"/>
<path d="M169.44 52.4002C171.84 51.9202 174.2 53.4802 174.68 55.8802C175.16 58.2802 173.6 60.6402 171.2 61.1202C168.8 61.6002 166.44 60.0402 165.96 57.6402C165.48 55.2402 167.04 52.8802 169.44 52.4002ZM171.08 60.5202C173.16 60.0802 174.52 58.0402 174.08 55.9602C173.64 53.8802 171.6 52.5202 169.52 52.9602C167.44 53.4002 166.08 55.4402 166.52 57.5202C166.96 59.6002 169 60.9602 171.08 60.5202Z" fill="#30A46C"/>
<path d="M157.543 37.6216L155.626 38.998L168.948 57.5507L170.865 56.1742L157.543 37.6216Z" fill="#30A46C"/>
<path d="M107.277 135.235L105.487 136.773L119.593 153.184L121.383 151.646L107.277 135.235Z" fill="#30A46C"/>
<path d="M123.24 44.8398L142 56.5198L152.44 74.7198L150.4 75.8798L140.24 58.1998L122 46.8398L123.24 44.8398Z" fill="#30A46C"/>
<path d="M156.235 39.7235L139.789 55.5723L141.427 57.2716L157.873 41.4228L156.235 39.7235Z" fill="#30A46C"/>
<path d="M139.151 57.6918L131.556 77.1841L133.755 78.041L141.35 58.5487L139.151 57.6918Z" fill="#30A46C"/>
<path d="M106.32 43.8403V46.2003L85.9598 46.1603L66.9598 56.2803L65.8398 54.2003L85.3598 43.8003L106.32 43.8403Z" fill="#30A46C"/>
<path d="M80.2496 22.5481L77.959 23.1162L83.4574 45.2845L85.748 44.7164L80.2496 22.5481Z" fill="#30A46C"/>
<path d="M97.7602 62.8799L85.2002 47.3599L87.0402 45.8799L100.16 62.0799" fill="#30A46C"/>
<path d="M56.5602 68.3599L58.5602 69.5599L48.3602 87.1999L47.6002 108.68L45.2402 108.6L46.0402 86.5199L56.5602 68.3599Z" fill="#30A46C"/>
<path d="M25.0302 80.2928L24.377 82.5605L46.3245 88.8829L46.9777 86.6151L25.0302 80.2928Z" fill="#30A46C"/>
<path d="M68.8032 82.8958L47.1084 86.0298L47.4458 88.3655L69.1406 85.2315L68.8032 82.8958Z" fill="#30A46C"/>
<path d="M54.9199 122.56L65.0799 140.24L83.3199 151.64L82.0799 153.64L63.3199 141.92L52.8799 123.76L54.9199 122.56Z" fill="#30A46C"/>
<path d="M63.9217 141.174L47.4727 157.02L49.11 158.719L65.5591 142.873L63.9217 141.174Z" fill="#30A46C"/>
<path d="M71.602 120.384L63.79 141.036L65.9974 141.871L73.8093 121.219L71.602 120.384Z" fill="#30A46C"/>
<path d="M97.2502 154.297L82.9502 172.819L84.8182 174.262L99.1183 155.739L97.2502 154.297Z" fill="#30A46C"/>
<path d="M82.0401 148.44C84.2001 147.68 86.5601 148.8 87.3601 150.96C88.1201 153.12 87.0001 155.48 84.8401 156.28C82.6801 157.04 80.3201 155.92 79.5201 153.76C78.7601 151.6 79.8801 149.24 82.0401 148.44Z" fill="#30A46C"/>
<path d="M84.2398 148C85.7598 148.28 87.0798 149.32 87.6398 150.88C88.0398 152 87.9998 153.2 87.4798 154.28C86.9598 155.36 86.0798 156.16 84.9598 156.56C83.8398 156.96 82.6398 156.92 81.5598 156.4C80.4798 155.88 79.6798 155 79.2798 153.88C78.4398 151.56 79.6398 149.04 81.9598 148.2C82.7198 147.92 83.5198 147.88 84.2398 148ZM82.7598 156.16C83.3998 156.28 84.0798 156.24 84.7598 156C85.7198 155.64 86.5198 154.96 86.9598 154C87.3998 153.08 87.4398 152.04 87.0798 151.04C86.3598 149.04 84.1598 148 82.1598 148.72C80.1598 149.44 79.1198 151.64 79.8398 153.64C80.1998 154.6 80.8798 155.4 81.8398 155.84C82.1598 156 82.4798 156.08 82.7998 156.16H82.7598Z" fill="#30A46C"/>
<path d="M63.4796 137.56C65.6396 136.8 67.9996 137.92 68.7996 140.08C69.5596 142.24 68.4396 144.6 66.2796 145.4C64.1196 146.16 61.7596 145.04 60.9596 142.88C60.1996 140.72 61.3196 138.36 63.4796 137.56Z" fill="#30A46C"/>
<path d="M65.6802 137.08C67.2002 137.36 68.5202 138.4 69.0802 139.96C69.9202 142.28 68.7202 144.84 66.4002 145.64C65.2802 146.04 64.0802 146 63.0002 145.48C61.9202 144.96 61.1202 144.08 60.7202 142.96C59.8802 140.64 61.0802 138.12 63.4002 137.28C64.1602 137 64.9602 136.96 65.6802 137.08ZM64.2002 145.24C64.8402 145.36 65.5202 145.32 66.2002 145.08C67.1602 144.72 67.9602 144.04 68.4002 143.08C68.8402 142.16 68.8802 141.08 68.5202 140.12C67.8002 138.12 65.6002 137.08 63.6002 137.8C61.6002 138.52 60.5602 140.72 61.2802 142.72C61.6402 143.68 62.3202 144.48 63.2802 144.92C63.6002 145.08 63.9202 145.16 64.2402 145.24H64.2002Z" fill="#30A46C"/>
<path d="M52.1602 119.36C54.3202 118.6 56.6802 119.72 57.4802 121.88C58.2402 124.04 57.1202 126.4 54.9602 127.2C52.8002 127.96 50.4402 126.84 49.6402 124.68C48.8802 122.52 50.0002 120.16 52.1602 119.36Z" fill="#30A46C"/>
<path d="M54.3599 118.88C54.7599 118.96 55.1199 119.08 55.4799 119.24C56.5599 119.76 57.3599 120.64 57.7599 121.76C58.1599 122.88 58.1199 124.08 57.5999 125.16C57.0799 126.24 56.1999 127.04 55.0799 127.44C52.7599 128.28 50.1999 127.08 49.3999 124.76C48.9999 123.64 49.0399 122.44 49.5599 121.36C50.0799 120.28 50.9599 119.48 52.0799 119.08C52.8399 118.8 53.5999 118.76 54.3599 118.88ZM52.9199 127.04C53.5599 127.16 54.2399 127.12 54.9199 126.88C55.8799 126.52 56.6799 125.84 57.1199 124.88C57.5599 123.96 57.5999 122.92 57.2399 121.92C56.8799 120.96 56.1999 120.16 55.2399 119.72C54.3199 119.28 53.2399 119.24 52.2799 119.56C51.3199 119.92 50.5199 120.6 50.0799 121.56C49.6399 122.48 49.5999 123.52 49.9599 124.52C50.4399 125.88 51.5999 126.76 52.9199 127V127.04Z" fill="#30A46C"/>
<path d="M70.92 117.56C73.08 116.8 75.44 117.92 76.24 120.08C77 122.24 75.88 124.6 73.72 125.4C71.56 126.16 69.2 125.04 68.4 122.88C67.64 120.72 68.76 118.36 70.92 117.56Z" fill="#30A46C"/>
<path d="M73.1197 117.08C74.6397 117.36 75.9597 118.4 76.5197 119.96C76.9197 121.08 76.8797 122.28 76.3597 123.36C75.8397 124.44 74.9597 125.24 73.8397 125.64C71.5197 126.48 68.9997 125.28 68.1597 122.96C67.3197 120.64 68.5197 118.12 70.8397 117.28C71.5997 117 72.3997 116.96 73.1197 117.08ZM71.6797 125.24C72.3197 125.36 72.9997 125.32 73.6797 125.08C74.6397 124.72 75.4397 124.04 75.8797 123.08C76.3197 122.16 76.3597 121.12 75.9997 120.12C75.2797 118.12 73.0797 117.08 71.0797 117.8C69.0797 118.52 68.0397 120.72 68.7597 122.72C69.2397 124.08 70.3997 124.96 71.7197 125.2L71.6797 125.24Z" fill="#30A46C"/>
<path d="M47.0001 154.32C49.1601 153.56 51.5201 154.68 52.3201 156.84C53.0801 159 51.9601 161.36 49.8001 162.16C47.6401 162.92 45.2801 161.8 44.4801 159.64C43.7201 157.48 44.8401 155.12 47.0001 154.32Z" fill="#30A46C"/>
<path d="M49.1998 153.84C49.5598 153.92 49.9598 154.04 50.3198 154.2C51.3998 154.72 52.1998 155.6 52.5998 156.72C52.9998 157.84 52.9598 159.04 52.4398 160.12C51.9198 161.2 51.0398 162 49.9198 162.4C47.5998 163.24 45.0398 162.04 44.2398 159.72C43.8398 158.6 43.8798 157.4 44.3998 156.32C44.9198 155.24 45.7998 154.44 46.9198 154.04C47.6798 153.76 48.4398 153.72 49.1998 153.84ZM47.7198 162C48.3598 162.12 49.0398 162.08 49.7198 161.84C50.6798 161.48 51.4798 160.8 51.9198 159.84C52.3598 158.92 52.3998 157.88 52.0398 156.88C51.6798 155.92 50.9998 155.12 50.0398 154.68C49.1198 154.24 48.0798 154.2 47.0798 154.52C46.1198 154.88 45.3198 155.56 44.8798 156.52C44.4398 157.44 44.3998 158.48 44.7598 159.48C45.2398 160.84 46.3998 161.72 47.7198 161.96V162Z" fill="#30A46C"/>
<path d="M28.9203 115.12C31.1203 114.4 33.4403 115.6 34.1603 117.8C34.8803 120 33.6803 122.32 31.4803 123.04C29.2803 123.76 26.9603 122.56 26.2403 120.36C25.5203 118.16 26.7203 115.84 28.9203 115.12Z" fill="#30A46C"/>
<path d="M30.9604 114.68C31.4004 114.76 31.8004 114.88 32.2004 115.12C33.2404 115.68 34.0404 116.6 34.4004 117.72C35.1604 120.04 33.8804 122.56 31.5204 123.32C30.4004 123.68 29.2004 123.6 28.1204 123.04C27.0804 122.48 26.2804 121.56 25.9204 120.44C25.5604 119.32 25.6404 118.12 26.2004 117.04C26.7604 116 27.6804 115.2 28.8004 114.84C29.5204 114.6 30.2404 114.56 30.9604 114.68ZM29.4804 122.84C30.0804 122.96 30.7204 122.92 31.3604 122.72C33.4004 122.08 34.5204 119.88 33.8404 117.88C33.5204 116.88 32.8404 116.08 31.9204 115.64C31.0004 115.16 29.9604 115.08 28.9604 115.4C27.9604 115.72 27.1604 116.4 26.7204 117.32C26.2404 118.24 26.1604 119.28 26.4804 120.28C26.8004 121.28 27.4804 122.08 28.4004 122.52C28.7604 122.68 29.1204 122.84 29.4804 122.88V122.84Z" fill="#30A46C"/>
<path d="M30.7729 117.797L30.3789 120.124L53.4505 124.03L53.8445 121.704L30.7729 117.797Z" fill="#30A46C"/>
<path d="M49.72 106C51.48 107.48 51.68 110.12 50.2 111.84C48.72 113.6 46.08 113.8 44.36 112.32C42.6 110.84 42.4 108.2 43.88 106.48C45.36 104.72 48 104.52 49.72 106Z" fill="#30A46C"/>
<path d="M47.8396 104.76C48.5996 104.88 49.3196 105.24 49.9196 105.76C50.8396 106.52 51.3996 107.6 51.4796 108.8C51.5596 110 51.1996 111.12 50.4396 112.04C48.8396 113.92 46.0396 114.16 44.1596 112.56C42.2796 110.96 42.0396 108.16 43.6396 106.28C44.3996 105.36 45.4796 104.8 46.6796 104.72C47.0796 104.72 47.4796 104.72 47.8396 104.76ZM46.3596 112.92C47.6796 113.16 49.0796 112.72 49.9996 111.6C50.6796 110.8 50.9996 109.8 50.8796 108.8C50.7996 107.76 50.3196 106.84 49.5196 106.16C48.7196 105.48 47.7196 105.16 46.7196 105.28C45.6796 105.36 44.7596 105.84 44.0796 106.64C42.7196 108.28 42.9196 110.72 44.5196 112.08C45.0396 112.52 45.6796 112.8 46.3196 112.92H46.3596Z" fill="#30A46C"/>
<path d="M49.8801 84.44C51.6401 85.92 51.8401 88.56 50.3601 90.28C48.8801 92.04 46.2401 92.24 44.5201 90.76C42.7601 89.28 42.5601 86.64 44.0401 84.92C45.5201 83.16 48.1601 82.96 49.8801 84.44Z" fill="#30A46C"/>
<path d="M48 83.2401C48.76 83.3601 49.44 83.6801 50.08 84.2001C51 84.9601 51.56 86.0401 51.64 87.2401C51.72 88.4401 51.36 89.5601 50.6 90.4801C49.84 91.4001 48.76 91.9601 47.56 92.0401C46.36 92.1601 45.24 91.7601 44.32 91.0001C43.4 90.2401 42.84 89.1601 42.76 87.9601C42.68 86.7601 43.04 85.6401 43.8 84.7201C44.88 83.4801 46.48 82.9601 48 83.2001V83.2401ZM49.68 84.6801C48.04 83.3201 45.6 83.5201 44.24 85.1201C43.56 85.9201 43.24 86.9201 43.36 87.9201C43.44 88.9601 43.92 89.8801 44.72 90.5601C45.52 91.2401 46.52 91.5601 47.52 91.4401C48.56 91.3601 49.48 90.8801 50.16 90.0801C50.84 89.2801 51.16 88.2801 51.04 87.2801C50.96 86.2401 50.48 85.3201 49.68 84.6401V84.6801Z" fill="#30A46C"/>
<path d="M59.9602 65.5601C61.7202 67.0401 61.9202 69.6801 60.4402 71.4001C58.9602 73.1201 56.3202 73.3601 54.6002 71.8801C52.8402 70.4001 52.6402 67.7601 54.1202 66.0401C55.6002 64.2801 58.2402 64.0801 59.9602 65.5601Z" fill="#30A46C"/>
<path d="M58.08 64.3603C58.84 64.4803 59.56 64.8403 60.16 65.3603C62.04 66.9603 62.28 69.7603 60.68 71.6403C59.08 73.5203 56.28 73.7603 54.4 72.1603C53.48 71.4003 52.92 70.3203 52.84 69.1203C52.76 67.9203 53.12 66.8003 53.88 65.8803C54.64 64.9603 55.72 64.4003 56.92 64.3203C57.32 64.3203 57.72 64.3203 58.08 64.3603ZM56.6 72.5203C57.92 72.7603 59.32 72.3203 60.24 71.2003C61.6 69.5603 61.4 67.1203 59.8 65.7603C59 65.0803 58 64.7603 57 64.8803C55.96 64.9603 55.04 65.4403 54.36 66.2403C53.68 67.0403 53.36 68.0403 53.48 69.0403C53.56 70.0803 54.04 71.0003 54.84 71.6803C55.36 72.1203 56 72.4003 56.64 72.5203H56.6Z" fill="#30A46C"/>
<path d="M70.9202 80.92C72.6802 82.4 72.8802 85.04 71.4002 86.76C69.9202 88.52 67.2802 88.72 65.5602 87.24C63.8002 85.76 63.6002 83.12 65.0802 81.4C66.5602 79.68 69.2002 79.44 70.9202 80.92Z" fill="#30A46C"/>
<path d="M69.0398 79.7202C69.7998 79.8402 70.5198 80.2002 71.1198 80.7202C72.0398 81.4802 72.5998 82.5602 72.6798 83.7602C72.7598 84.9602 72.3998 86.0802 71.6398 87.0002C70.0398 88.8802 67.2398 89.1202 65.3598 87.5202C63.4798 85.9202 63.2398 83.1202 64.8398 81.2402C65.5998 80.3202 66.6798 79.7602 67.8798 79.6802C68.2798 79.6802 68.6798 79.6802 69.0398 79.7202ZM67.5598 87.8802C68.8798 88.1202 70.2798 87.6802 71.1998 86.5602C71.8798 85.7602 72.1998 84.7602 72.0798 83.7602C71.9998 82.7202 71.5198 81.8002 70.7198 81.1202C69.9198 80.4402 68.9198 80.1202 67.9198 80.2402C66.8798 80.3202 65.9598 80.8002 65.2798 81.6002C63.9198 83.2402 64.1198 85.6802 65.7198 87.0402C66.2398 87.4802 66.8798 87.7602 67.5198 87.8802H67.5598Z" fill="#30A46C"/>
<path d="M27.1204 78.5601C28.8804 80.0401 29.0804 82.6801 27.6004 84.4001C26.1204 86.1601 23.4804 86.3601 21.7604 84.8801C20.0004 83.4001 19.8004 80.7601 21.2804 79.0401C22.7604 77.3201 25.4004 77.0801 27.1204 78.5601Z" fill="#30A46C"/>
<path d="M25.24 77.3602C26 77.4802 26.68 77.8002 27.32 78.3202C29.2 79.9202 29.44 82.7202 27.84 84.6002C27.08 85.5202 26 86.0802 24.8 86.1602C23.6 86.2802 22.48 85.8802 21.56 85.1202C19.68 83.5202 19.44 80.7202 21.04 78.8402C22.12 77.6002 23.72 77.0802 25.24 77.3202V77.3602ZM26.92 78.8002C25.28 77.4402 22.84 77.6402 21.48 79.2402C20.8 80.0402 20.48 81.0402 20.6 82.0402C20.68 83.0802 21.16 84.0002 21.96 84.6802C22.76 85.3602 23.76 85.6802 24.76 85.5602C25.8 85.4802 26.72 85.0002 27.4 84.2002C28.76 82.5602 28.56 80.1202 26.96 78.7602L26.92 78.8002Z" fill="#30A46C"/>
<path d="M51.0402 43.7202C52.7602 45.2402 52.9602 47.8402 51.4402 49.5602C49.9202 51.2802 47.3202 51.4802 45.6002 49.9602C43.8802 48.4402 43.6802 45.8402 45.2002 44.1202C46.7202 42.4002 49.3202 42.2002 51.0402 43.7202Z" fill="#30A46C"/>
<path d="M49.1201 42.4399C49.9201 42.5999 50.6401 42.9199 51.2401 43.4799C52.1201 44.2799 52.6801 45.3599 52.7601 46.5199C52.8401 47.7199 52.4401 48.8399 51.6801 49.7599C50.0801 51.5999 47.2401 51.7999 45.4001 50.1999C43.5601 48.5999 43.3601 45.7599 44.9601 43.9199C45.7601 43.0399 46.8401 42.4799 48.0001 42.3999C48.3601 42.3999 48.7601 42.3999 49.1201 42.4399ZM47.6401 50.5999C48.9201 50.8399 50.3201 50.3999 51.2401 49.3599C51.9201 48.5999 52.2401 47.5999 52.2001 46.5599C52.1201 45.5199 51.6801 44.5999 50.8801 43.9199C50.1201 43.2399 49.1201 42.9199 48.0801 42.9599C47.0401 43.0399 46.1201 43.4799 45.4401 44.2799C44.0401 45.8799 44.2001 48.3199 45.8001 49.7199C46.3601 50.1999 47.0001 50.4799 47.6401 50.5999Z" fill="#30A46C"/>
<path d="M49.7022 46.6464L47.5059 47.5098L56.0668 69.2875L58.2632 68.4241L49.7022 46.6464Z" fill="#30A46C"/>
<path d="M66.2401 60.1598C68.5376 60.1598 70.4001 58.2973 70.4001 55.9998C70.4001 53.7023 68.5376 51.8398 66.2401 51.8398C63.9426 51.8398 62.0801 53.7023 62.0801 55.9998C62.0801 58.2973 63.9426 60.1598 66.2401 60.1598Z" fill="#30A46C"/>
<path d="M67.04 51.6403C69.44 52.0803 71.08 54.4003 70.64 56.8003C70.2 59.2003 67.88 60.8403 65.48 60.4003C63.08 59.9603 61.44 57.6403 61.88 55.2403C62.32 52.8403 64.64 51.2003 67.04 51.6403ZM65.56 59.8003C67.64 60.1603 69.68 58.8003 70.04 56.6803C70.4 54.5603 69.04 52.5603 66.92 52.2003C64.8 51.8403 62.8 53.2003 62.44 55.3203C62.08 57.4403 63.44 59.4403 65.56 59.8003Z" fill="#30A46C"/>
<path d="M84.9998 49.5602C87.2974 49.5602 89.1599 47.6977 89.1599 45.4002C89.1599 43.1027 87.2974 41.2402 84.9998 41.2402C82.7023 41.2402 80.8398 43.1027 80.8398 45.4002C80.8398 47.6977 82.7023 49.5602 84.9998 49.5602Z" fill="#30A46C"/>
<path d="M85.7598 41.0402C88.1598 41.4802 89.7998 43.8002 89.3598 46.2002C88.9198 48.6002 86.5998 50.2402 84.1998 49.8002C81.7998 49.3602 80.1598 47.0402 80.5998 44.6402C81.0398 42.2402 83.3598 40.6002 85.7598 41.0402ZM84.2798 49.2002C86.3598 49.5602 88.3998 48.2002 88.7598 46.0802C89.1198 43.9602 87.7598 41.9602 85.6398 41.6002C83.5198 41.2402 81.5198 42.6002 81.1598 44.7202C80.7998 46.8402 82.1598 48.8402 84.2798 49.2002Z" fill="#30A46C"/>
<path d="M110.48 45.4399C110.08 47.6799 107.92 49.1999 105.64 48.7999C103.36 48.3999 101.88 46.2399 102.28 43.9599C102.68 41.6799 104.84 40.1999 107.12 40.5999C109.4 40.9999 110.88 43.1599 110.48 45.4399Z" fill="#30A46C"/>
<path d="M107.16 40.32C109.56 40.76 111.2 43.08 110.76 45.48C110.32 47.88 108 49.52 105.6 49.08C103.2 48.64 101.56 46.32 102 43.92C102.44 41.52 104.76 39.88 107.16 40.32ZM105.68 48.48C107.76 48.84 109.8 47.48 110.16 45.36C110.52 43.24 109.16 41.24 107.04 40.88C104.92 40.52 102.92 41.88 102.56 44C102.2 46.12 103.56 48.12 105.68 48.48Z" fill="#30A46C"/>
<path d="M98.6004 66.0002C100.898 66.0002 102.76 64.1377 102.76 61.8402C102.76 59.5427 100.898 57.6802 98.6004 57.6802C96.3029 57.6802 94.4404 59.5427 94.4404 61.8402C94.4404 64.1377 96.3029 66.0002 98.6004 66.0002Z" fill="#30A46C"/>
<path d="M99.3604 57.4801C101.76 57.9201 103.4 60.2401 102.96 62.6401C102.52 65.0401 100.2 66.6801 97.8004 66.2401C95.4004 65.8001 93.7604 63.4801 94.2004 61.0801C94.6404 58.6801 96.9604 57.0401 99.3604 57.4801ZM97.8804 65.6401C99.9604 66.0001 102 64.6401 102.36 62.5201C102.72 60.4001 101.36 58.4001 99.2404 58.0401C97.1204 57.6801 95.1204 59.0401 94.7604 61.1601C94.4004 63.2801 95.7604 65.2801 97.8804 65.6401Z" fill="#30A46C"/>
<path d="M119.64 78.5199C119.24 80.7599 117.08 82.2799 114.8 81.8799C112.52 81.4799 111.04 79.3199 111.44 77.0399C111.84 74.7599 114 73.2799 116.28 73.6799C118.56 74.0799 120.04 76.2399 119.64 78.5199Z" fill="#30A46C"/>
<path d="M116.36 73.4001C118.76 73.8401 120.4 76.1601 119.96 78.5601C119.52 80.9601 117.2 82.6001 114.8 82.1601C112.4 81.7201 110.76 79.4001 111.2 77.0001C111.64 74.6001 113.96 72.9601 116.36 73.4001ZM114.88 81.5601C116.96 81.9201 119 80.5601 119.36 78.4401C119.72 76.3201 118.36 74.3201 116.24 73.9601C114.12 73.6001 112.12 74.9601 111.76 77.0801C111.4 79.2001 112.76 81.2001 114.88 81.5601Z" fill="#30A46C"/>
<path d="M82.8004 23.4799C82.4004 25.7199 80.2404 27.2399 77.9604 26.8399C75.6804 26.4399 74.2003 24.2799 74.6003 21.9999C75.0003 19.7199 77.1604 18.2399 79.4404 18.6399C81.7204 19.0399 83.2004 21.1999 82.8004 23.4799Z" fill="#30A46C"/>
<path d="M79.4805 18.36C81.8805 18.8 83.5205 21.12 83.0805 23.52C82.6405 25.92 80.3205 27.56 77.9205 27.12C75.5205 26.68 73.8805 24.36 74.3205 21.96C74.7605 19.56 77.0805 17.92 79.4805 18.36ZM78.0005 26.52C80.0805 26.88 82.1205 25.52 82.4805 23.4C82.8405 21.28 81.4805 19.28 79.3605 18.92C77.2405 18.56 75.2405 19.92 74.8805 22.04C74.5205 24.16 75.8805 26.16 78.0005 26.52Z" fill="#30A46C"/>
<path d="M121.4 23.5999C121.4 25.8799 119.52 27.7599 117.24 27.7599C114.96 27.7599 113.08 25.8799 113.08 23.5999C113.08 21.3199 114.96 19.4399 117.24 19.4399C119.52 19.4399 121.4 21.3199 121.4 23.5999Z" fill="#30A46C"/>
<path d="M118.04 19.2402C120.12 19.6002 121.68 21.4402 121.68 23.6002C121.68 24.8002 121.2 25.9202 120.36 26.7602C119.52 27.6002 118.4 28.0802 117.2 28.0802C116 28.0802 114.88 27.6002 114.04 26.7602C113.2 25.9202 112.72 24.8002 112.72 23.6002C112.72 21.1602 114.72 19.1602 117.16 19.1602C117.44 19.1602 117.68 19.1602 117.96 19.2402H118.04ZM116.56 27.4002C116.8 27.4402 117 27.4802 117.24 27.4802C118.28 27.4802 119.24 27.0802 119.96 26.3602C120.68 25.6402 121.08 24.6802 121.08 23.6402C121.08 21.5202 119.36 19.7602 117.24 19.7602C115.12 19.7602 113.4 21.4802 113.36 23.6002C113.36 24.6402 113.76 25.6002 114.48 26.3202C115.04 26.8802 115.76 27.2402 116.52 27.4002H116.56Z" fill="#30A46C"/>
<path d="M116.183 23.5302L105.382 44.2881L107.475 45.3774L118.277 24.6195L116.183 23.5302Z" fill="#30A46C"/>
<path d="M123.28 50C121.12 50.76 118.76 49.64 117.96 47.48C117.2 45.32 118.32 42.96 120.48 42.16C122.64 41.36 125 42.52 125.8 44.68C126.56 46.84 125.44 49.2 123.28 50Z" fill="#30A46C"/>
<path d="M122.68 41.72C124.2 42 125.52 43.04 126.08 44.6C126.92 46.92 125.72 49.44 123.4 50.28C121.08 51.12 118.56 49.92 117.72 47.6C117.32 46.48 117.36 45.28 117.88 44.2C118.4 43.12 119.28 42.32 120.4 41.92C121.16 41.64 121.96 41.6 122.68 41.72ZM123.2 49.72C125.2 49 126.24 46.8 125.52 44.8C124.8 42.8 122.6 41.76 120.6 42.48C119.64 42.84 118.84 43.52 118.4 44.48C117.96 45.4 117.92 46.44 118.28 47.44C119 49.44 121.2 50.48 123.2 49.76V49.72Z" fill="#30A46C"/>
<path d="M141.84 60.9202C139.68 61.6802 137.32 60.5602 136.52 58.4002C135.76 56.2402 136.88 53.8802 139.04 53.0802C141.2 52.3202 143.56 53.4402 144.36 55.6002C145.12 57.7602 144 60.1202 141.84 60.9202Z" fill="#30A46C"/>
<path d="M141.24 52.5999C141.64 52.6799 142 52.7999 142.36 52.9599C143.44 53.4799 144.24 54.3599 144.64 55.4799C145.48 57.7999 144.28 60.3199 141.96 61.1599C139.64 61.9999 137.12 60.7999 136.28 58.4799C135.88 57.3599 135.92 56.1599 136.44 55.0799C136.96 53.9999 137.84 53.1999 138.96 52.7999C139.72 52.5199 140.48 52.4799 141.24 52.5999ZM141.76 60.5999C143.76 59.8799 144.8 57.6799 144.08 55.6799C143.72 54.7199 143.04 53.9199 142.08 53.4799C141.16 53.0399 140.08 52.9999 139.12 53.3199C138.16 53.6799 137.36 54.3599 136.92 55.3199C136.48 56.2399 136.44 57.2799 136.8 58.2799C137.52 60.2799 139.72 61.3199 141.72 60.5999H141.76Z" fill="#30A46C"/>
<path d="M153.16 79.0798C151 79.8398 148.64 78.7198 147.84 76.5598C147.08 74.3998 148.2 72.0398 150.36 71.2398C152.52 70.4798 154.88 71.5998 155.68 73.7598C156.44 75.9198 155.32 78.2798 153.16 79.0798Z" fill="#30A46C"/>
<path d="M152.56 70.8001C152.96 70.8801 153.32 71.0001 153.68 71.1601C154.76 71.6801 155.56 72.5601 155.96 73.6801C156.36 74.8001 156.32 76.0001 155.8 77.0801C155.28 78.1601 154.4 78.9601 153.28 79.3601C150.96 80.2001 148.44 79.0001 147.6 76.6801C147.2 75.5601 147.24 74.3601 147.76 73.2801C148.28 72.2001 149.16 71.4001 150.28 71.0001C151.04 70.7201 151.8 70.6801 152.56 70.8001ZM151.08 78.9601C151.72 79.0801 152.4 79.0401 153.08 78.8001C154.04 78.4401 154.84 77.7601 155.28 76.8001C155.72 75.8801 155.76 74.8401 155.4 73.8401C155.04 72.8801 154.36 72.0801 153.4 71.6401C152.48 71.2001 151.4 71.1601 150.44 71.4801C149.48 71.8401 148.68 72.5201 148.24 73.4801C147.8 74.4001 147.76 75.4401 148.12 76.4401C148.6 77.8001 149.76 78.6801 151.08 78.9201V78.9601Z" fill="#30A46C"/>
<path d="M135.2 78.4001C133.04 79.1601 130.68 78.0401 129.88 75.8801C129.12 73.7201 130.24 71.3601 132.4 70.5601C134.56 69.8001 136.92 70.9201 137.72 73.0801C138.48 75.2401 137.36 77.6001 135.2 78.4001Z" fill="#30A46C"/>
<path d="M134.56 70.1199C136.08 70.3999 137.4 71.4399 137.96 72.9999C138.36 74.1199 138.32 75.3199 137.8 76.3999C137.28 77.4799 136.4 78.2799 135.28 78.6799C132.96 79.5199 130.44 78.3199 129.6 75.9999C128.76 73.6799 129.96 71.1599 132.28 70.3199C133.04 70.0399 133.84 69.9999 134.56 70.1199ZM133.12 78.2799C133.76 78.3999 134.44 78.3599 135.12 78.1199C136.08 77.7599 136.88 77.0799 137.32 76.1199C137.76 75.1999 137.8 74.1599 137.44 73.1599C136.72 71.1599 134.52 70.1199 132.52 70.8399C130.52 71.5599 129.48 73.7599 130.2 75.7599C130.68 77.1199 131.84 77.9999 133.16 78.2399L133.12 78.2799Z" fill="#30A46C"/>
<path d="M158.32 44.1199C156.16 44.8799 153.8 43.7599 153 41.5999C152.24 39.4399 153.36 37.0799 155.52 36.2799C157.68 35.5199 160.04 36.6399 160.84 38.7999C161.6 40.9599 160.48 43.3199 158.32 44.1199Z" fill="#30A46C"/>
<path d="M157.72 35.8401C158.08 35.9201 158.48 36.0402 158.84 36.2002C159.92 36.7202 160.72 37.6002 161.12 38.7202C161.96 41.0402 160.76 43.5602 158.44 44.4002C156.12 45.2402 153.6 44.0402 152.76 41.7202C151.92 39.4002 153.12 36.8402 155.44 36.0402C156.2 35.7602 156.96 35.7201 157.72 35.8401ZM158.24 43.8401C160.24 43.1201 161.28 40.9201 160.56 38.9201C160.2 37.9601 159.52 37.1602 158.56 36.7202C157.64 36.2802 156.56 36.2402 155.6 36.5602C154.64 36.9202 153.84 37.6002 153.4 38.5602C152.96 39.4802 152.92 40.5602 153.28 41.5202C154 43.5202 156.2 44.5601 158.2 43.8401H158.24Z" fill="#30A46C"/>
<path d="M177.52 78.3199C175.48 79.3999 173 78.6399 171.92 76.5999C170.84 74.5599 171.6 72.0799 173.64 70.9999C175.68 69.9199 178.16 70.6799 179.24 72.7199C180.32 74.7599 179.56 77.2399 177.52 78.3199Z" fill="#30A46C"/>
<path d="M176.32 70.28C177.6 70.52 178.8 71.32 179.44 72.56C180.6 74.72 179.76 77.44 177.6 78.56C176.56 79.12 175.36 79.24 174.2 78.88C173.08 78.52 172.12 77.76 171.56 76.72C170.4 74.56 171.24 71.84 173.4 70.72C174.32 70.24 175.32 70.08 176.28 70.28H176.32ZM174.84 78.44C175.68 78.6 176.56 78.44 177.32 78.04C179.2 77.04 179.92 74.68 178.92 72.8C177.92 70.92 175.56 70.2 173.68 71.2C171.8 72.2 171.08 74.56 172.08 76.44C172.56 77.36 173.36 78 174.36 78.32C174.52 78.36 174.64 78.4 174.8 78.44H174.84Z" fill="#30A46C"/>
<path d="M175.134 73.6791L151.735 73.9404L151.762 76.3003L175.16 76.0389L175.134 73.6791Z" fill="#30A46C"/>
<path d="M99.9615 60.5971L98.3018 62.2749L113.942 77.7469L115.602 76.0691L99.9615 60.5971Z" fill="#30A46C"/>
<path d="M95.2403 99.1601H117.2C117.28 102.56 116.8 105.64 115.76 108.48C114.72 111.32 113.24 113.76 111.32 115.84C109.4 117.92 107.12 119.52 104.44 120.68C101.76 121.84 98.8003 122.4 95.6003 122.4C93.4403 122.4 91.4003 122.12 89.4003 121.6C87.4003 121.08 85.5603 120.32 83.8403 119.32C82.1203 118.36 80.5603 117.16 79.1603 115.8C77.7603 114.44 76.5203 112.92 75.5203 111.24C74.5203 109.56 73.7203 107.76 73.1603 105.84C72.6003 103.92 72.3203 101.88 72.3203 99.8001C72.3203 97.7201 72.6003 95.6801 73.1603 93.7201C73.7203 91.8001 74.4803 89.9601 75.5203 88.2801C76.5603 86.6001 77.7603 85.0801 79.1603 83.6801C80.5603 82.3201 82.1603 81.1201 83.8403 80.1601C85.5603 79.2001 87.4003 78.4401 89.4003 77.8801C91.4003 77.3601 93.4403 77.0801 95.6003 77.0801C98.8403 77.0801 101.92 77.6801 104.8 78.8401C107.68 80.0001 110.24 81.8001 112.56 84.1601L108.8 87.8801C108.08 87.0401 107.24 86.2801 106.32 85.5601C105.4 84.8401 104.36 84.2401 103.24 83.6801C102.12 83.1601 100.92 82.7201 99.6403 82.4401C98.3603 82.1601 97.0003 82.0001 95.6003 82.0001C93.1603 82.0001 90.8803 82.4401 88.7603 83.3601C86.6003 84.2801 84.7603 85.5201 83.1603 87.1201C81.5603 88.7201 80.3203 90.6001 79.4003 92.7601C78.4803 94.9201 78.0003 97.2401 78.0003 99.7601C78.0003 101.44 78.2003 103 78.6403 104.52C79.0403 106.04 79.6403 107.44 80.4003 108.76C81.1603 110.08 82.0803 111.24 83.1603 112.32C84.2403 113.4 85.4403 114.28 86.7203 115.04C88.0003 115.8 89.4003 116.4 90.9203 116.8C92.4403 117.2 94.0003 117.44 95.6003 117.44C97.9603 117.44 100.08 117.12 101.96 116.4C103.84 115.72 105.44 114.76 106.8 113.52C108.16 112.28 109.24 110.8 110.04 109.08C110.84 107.36 111.36 105.48 111.6 103.36H95.2403V99.1601Z" fill="white"/>
<path d="M138.88 121.68H159.28C159.36 124.84 158.92 127.72 157.96 130.36C157 133 155.64 135.28 153.84 137.2C152.08 139.12 149.92 140.6 147.44 141.68C144.96 142.76 142.2 143.28 139.24 143.28C137.24 143.28 135.32 143.04 133.48 142.52C131.64 142 129.92 141.32 128.32 140.4C126.72 139.48 125.28 138.4 123.96 137.12C122.64 135.84 121.52 134.44 120.56 132.88C119.6 131.32 118.88 129.64 118.4 127.84C117.88 126.04 117.64 124.16 117.64 122.24C117.64 120.32 117.88 118.4 118.4 116.6C118.92 114.8 119.64 113.12 120.56 111.56C121.48 110 122.64 108.56 123.96 107.32C125.28 106.04 126.72 104.96 128.32 104.04C129.92 103.12 131.64 102.44 133.48 101.92C135.32 101.44 137.24 101.16 139.24 101.16C142.28 101.16 145.12 101.72 147.76 102.8C150.4 103.88 152.84 105.52 155 107.76L151.48 111.24C150.8 110.48 150.04 109.76 149.16 109.08C148.28 108.4 147.32 107.84 146.28 107.36C145.24 106.88 144.12 106.48 142.96 106.2C141.76 105.92 140.52 105.8 139.24 105.8C137 105.8 134.88 106.2 132.88 107.04C130.88 107.88 129.16 109.04 127.68 110.52C126.2 112 125.04 113.76 124.16 115.76C123.28 117.76 122.88 119.92 122.88 122.24C122.88 123.8 123.08 125.24 123.44 126.68C123.84 128.08 124.36 129.4 125.08 130.6C125.8 131.8 126.64 132.92 127.64 133.92C128.64 134.92 129.76 135.76 130.96 136.44C132.16 137.16 133.48 137.68 134.88 138.08C136.28 138.48 137.72 138.64 139.24 138.64C141.44 138.64 143.4 138.32 145.16 137.68C146.92 137.04 148.4 136.16 149.64 135C150.88 133.84 151.88 132.48 152.64 130.88C153.4 129.28 153.88 127.52 154.08 125.6H138.88V121.68Z" fill="white"/>
</svg>
