<svg width="201" height="200" viewBox="0 0 201 200" fill="none" xmlns="http://www.w3.org/2000/svg">
<path d="M99.5 154.6H120.46L122.06 153.8C121.7 153.44 121.54 152.88 121.82 152.28C122.1 151.68 122.46 151.16 122.86 150.72L119.86 152.32H99.5V154.64V154.6Z" fill="#30A46C"/>
<path d="M120.86 157.2C123.158 157.2 125.02 155.337 125.02 153.04C125.02 150.742 123.158 148.88 120.86 148.88C118.563 148.88 116.7 150.742 116.7 153.04C116.7 155.337 118.563 157.2 120.86 157.2Z" fill="#30A46C"/>
<path d="M121.66 148.68C124.06 149.12 125.7 151.44 125.26 153.84C124.82 156.24 122.5 157.88 120.1 157.44C117.7 157 116.06 154.68 116.5 152.28C116.94 149.88 119.26 148.24 121.66 148.68ZM120.18 156.84C122.26 157.2 124.3 155.84 124.66 153.72C125.02 151.6 123.66 149.6 121.54 149.24C119.42 148.88 117.42 150.24 117.06 152.36C116.7 154.48 118.06 156.48 120.18 156.84Z" fill="#30A46C"/>
<path d="M99.4598 157.92C101.757 157.92 103.62 156.057 103.62 153.76C103.62 151.462 101.757 149.6 99.4598 149.6C97.1623 149.6 95.2998 151.462 95.2998 153.76C95.2998 156.057 97.1623 157.92 99.4598 157.92Z" fill="#30A46C"/>
<path d="M100.22 149.4C102.62 149.84 104.26 152.16 103.82 154.56C103.38 156.96 101.06 158.6 98.6597 158.16C96.2597 157.72 94.6197 155.4 95.0597 153C95.4997 150.6 97.8197 148.96 100.22 149.4ZM98.7397 157.56C100.82 157.92 102.86 156.56 103.22 154.44C103.58 152.32 102.22 150.32 100.1 149.96C97.9797 149.6 95.9797 150.96 95.6197 153.08C95.2597 155.2 96.6197 157.2 98.7397 157.56Z" fill="#30A46C"/>
<path d="M103.18 135.88C103.58 133.64 105.74 132.12 108.02 132.52C110.3 132.92 111.78 135.08 111.38 137.36C110.98 139.64 108.82 141.12 106.54 140.72C104.26 140.32 102.78 138.16 103.18 135.88Z" fill="#30A46C"/>
<path d="M108.06 132.239C110.46 132.679 112.1 134.999 111.66 137.399C111.22 139.799 108.9 141.439 106.5 140.999C104.1 140.559 102.46 138.239 102.9 135.839C103.34 133.439 105.66 131.799 108.06 132.239ZM106.58 140.399C108.66 140.759 110.7 139.399 111.06 137.279C111.42 135.159 110.06 133.159 107.94 132.799C105.82 132.439 103.82 133.799 103.46 135.919C103.1 138.039 104.46 140.039 106.58 140.399Z" fill="#30A46C"/>
<path d="M123.06 174.96C123.46 172.72 125.62 171.2 127.9 171.6C130.18 172 131.66 174.16 131.26 176.44C130.86 178.72 128.7 180.2 126.42 179.8C124.14 179.4 122.66 177.24 123.06 174.96Z" fill="#30A46C"/>
<path d="M127.94 171.32C130.34 171.76 131.98 174.079 131.54 176.479C131.1 178.879 128.78 180.519 126.38 180.079C123.98 179.639 122.34 177.319 122.78 174.919C123.22 172.519 125.54 170.88 127.94 171.32ZM126.46 179.479C128.54 179.839 130.58 178.479 130.94 176.359C131.3 174.239 129.94 172.239 127.82 171.879C125.7 171.519 123.7 172.879 123.34 174.999C122.98 177.119 124.34 179.119 126.46 179.479Z" fill="#30A46C"/>
<path d="M84.2596 178.12C86.5571 178.12 88.4196 176.257 88.4196 173.96C88.4196 171.662 86.5571 169.8 84.2596 169.8C81.9621 169.8 80.0996 171.662 80.0996 173.96C80.0996 176.257 81.9621 178.12 84.2596 178.12Z" fill="#30A46C"/>
<path d="M85.0596 169.6C87.4596 170.04 89.0996 172.36 88.6596 174.76C88.2196 177.16 85.8996 178.8 83.4996 178.36C81.0996 177.92 79.4596 175.6 79.8996 173.2C80.3396 170.8 82.6596 169.16 85.0596 169.6ZM83.5796 177.76C85.6596 178.12 87.6996 176.76 88.0596 174.64C88.4196 172.52 87.0596 170.52 84.9396 170.16C82.8196 169.8 80.8196 171.16 80.4596 173.28C80.0996 175.4 81.4596 177.4 83.5796 177.76Z" fill="#30A46C"/>
<path d="M122.384 153.2L120.094 153.769L125.592 175.937L127.883 175.369L122.384 153.2Z" fill="#30A46C"/>
<path d="M106.46 175.76C108.66 176.44 109.9 178.76 109.22 180.96C108.54 183.16 106.22 184.4 104.02 183.72C101.82 183.04 100.58 180.72 101.26 178.52C101.94 176.32 104.26 175.08 106.46 175.76Z" fill="#30A46C"/>
<path d="M109.5 181.04C108.78 183.4 106.3 184.72 103.94 184C101.58 183.28 100.26 180.8 100.98 178.44C101.7 176.08 104.18 174.76 106.54 175.48C108.9 176.2 110.22 178.68 109.5 181.04ZM101.54 178.6C100.9 180.64 102.06 182.8 104.1 183.44C106.14 184.08 108.3 182.92 108.94 180.88C109.58 178.84 108.42 176.68 106.38 176.04C104.34 175.4 102.18 176.56 101.54 178.6Z" fill="#30A46C"/>
<path d="M127.872 175.327L105.208 178.154L105.5 180.496L128.164 177.669L127.872 175.327Z" fill="#30A46C"/>
<path d="M67.6998 162.2C69.1798 163.96 68.9398 166.6 67.1798 168.04C65.4198 169.52 62.7798 169.28 61.3398 167.52C59.8598 165.76 60.0998 163.12 61.8598 161.68C63.6198 160.2 66.2598 160.44 67.6998 162.2Z" fill="#30A46C"/>
<path d="M67.3396 168.28C65.4596 169.84 62.6596 169.6 61.0596 167.72C59.4596 165.84 59.7396 163.04 61.6196 161.44C63.4996 159.88 66.2996 160.12 67.8996 162C69.4596 163.88 69.2196 166.68 67.3396 168.28ZM62.0196 161.88C60.3796 163.24 60.1796 165.68 61.5396 167.32C62.8996 168.96 65.3396 169.16 66.9796 167.8C68.6196 166.44 68.8196 164 67.4596 162.36C66.0996 160.72 63.6596 160.52 62.0196 161.88Z" fill="#30A46C"/>
<path d="M65.3777 163.533L64.3398 165.652L84.8525 175.697L85.8904 173.577L65.3777 163.533Z" fill="#30A46C"/>
<path d="M37.8202 139.359C38.3802 141.599 37.0202 143.839 34.7802 144.399C32.5402 144.959 30.3002 143.599 29.7402 141.359C29.1802 139.119 30.5402 136.879 32.7802 136.319C35.0202 135.759 37.2602 137.119 37.8202 139.359Z" fill="#30A46C"/>
<path d="M34.8602 144.679C32.5002 145.279 30.0602 143.839 29.4602 141.439C28.8602 139.079 30.3002 136.639 32.7002 136.039C35.1002 135.439 37.5002 136.879 38.1002 139.279C38.7002 141.639 37.2602 144.079 34.8602 144.679ZM32.8602 136.639C30.7802 137.159 29.5402 139.239 30.0602 141.319C30.5802 143.399 32.6602 144.639 34.7402 144.119C36.8202 143.599 38.0602 141.519 37.5402 139.439C37.0202 137.359 34.9402 136.119 32.8602 136.639Z" fill="#30A46C"/>
<path d="M35.1454 139.482L33.291 140.941L47.4186 158.888L49.273 157.428L35.1454 139.482Z" fill="#30A46C"/>
<path d="M29.7798 100.84C29.3398 103.08 27.1398 104.56 24.8998 104.08C22.6598 103.64 21.1798 101.44 21.6598 99.1996C22.0998 96.9596 24.2998 95.4796 26.5398 95.9596C28.7798 96.3996 30.2598 98.5996 29.7798 100.84Z" fill="#30A46C"/>
<path d="M24.8197 104.36C22.4197 103.88 20.8597 101.52 21.3397 99.1195C21.8197 96.7195 24.1797 95.1595 26.5797 95.6395C28.9797 96.1195 30.5397 98.4795 30.0597 100.88C29.5797 103.28 27.2197 104.84 24.8197 104.36ZM26.4597 96.1995C24.3797 95.7595 22.3397 97.1195 21.8997 99.1995C21.4597 101.28 22.8197 103.32 24.8997 103.76C26.9797 104.2 29.0197 102.84 29.4597 100.76C29.8997 98.6795 28.5397 96.6395 26.4597 96.1995Z" fill="#30A46C"/>
<path d="M27.2587 99.8186L24.957 100.34L30.0016 122.616L32.3034 122.095L27.2587 99.8186Z" fill="#30A46C"/>
<path d="M35.58 62.6396C33.94 64.2396 31.3 64.2396 29.7 62.6396C28.1 61.0396 28.1 58.3596 29.7 56.7596C31.34 55.1596 33.98 55.1596 35.58 56.7596C37.18 58.3596 37.18 61.0396 35.58 62.6396Z" fill="#30A46C"/>
<path d="M29.4999 62.8395C27.7799 61.0795 27.7799 58.2795 29.5399 56.5595C31.2999 54.8395 34.0999 54.8395 35.8199 56.5995C37.5399 58.3595 37.5399 61.1595 35.7799 62.8795C34.0199 64.5995 31.2199 64.5995 29.4999 62.8395ZM35.4199 56.9995C33.9399 55.4795 31.4599 55.4795 29.9799 56.9995C28.4599 58.4795 28.4599 60.9595 29.9799 62.4395C31.4599 63.9595 33.9399 63.9595 35.4199 62.4395C36.9399 60.9595 36.9399 58.4795 35.4199 56.9995Z" fill="#30A46C"/>
<path d="M31.9025 59.5772L23.6318 80.8672L25.8317 81.7218L34.1023 60.4318L31.9025 59.5772Z" fill="#30A46C"/>
<path d="M66.5802 37.2C64.3402 37.64 62.1402 36.2 61.7002 33.96C61.2602 31.72 62.7002 29.52 64.9402 29.08C67.1802 28.64 69.3802 30.08 69.8202 32.32C70.2602 34.56 68.8202 36.76 66.5802 37.2Z" fill="#30A46C"/>
<path d="M61.3797 33.9996C60.8997 31.5996 62.4597 29.2396 64.8597 28.7596C67.2597 28.2796 69.6197 29.8396 70.0997 32.2396C70.5797 34.6396 69.0197 36.9996 66.6197 37.4796C64.2197 37.9596 61.8597 36.3996 61.3797 33.9996ZM69.5397 32.3596C69.0997 30.2796 67.0997 28.9196 64.9797 29.3596C62.8997 29.7996 61.5397 31.7996 61.9797 33.9196C62.4197 35.9996 64.4197 37.3596 66.5397 36.9196C68.6597 36.4796 69.9797 34.4796 69.5397 32.3596Z" fill="#30A46C"/>
<path d="M65.1557 32.563L46.5752 45.8457L47.9477 47.7656L66.5282 34.4829L65.1557 32.563Z" fill="#30A46C"/>
<path d="M97.7796 24.1993C95.6196 23.4393 94.4596 21.0793 95.2196 18.9193C95.9796 16.7593 98.3396 15.5993 100.5 16.3593C102.66 17.1193 103.82 19.4793 103.06 21.6393C102.3 23.7993 99.9396 24.9593 97.7796 24.1993Z" fill="#30A46C"/>
<path d="M94.9399 18.7996C95.7399 16.4796 98.2999 15.2796 100.62 16.0796C102.94 16.8796 104.14 19.4396 103.34 21.7596C102.54 24.0796 99.9799 25.2796 97.6599 24.4796C95.3399 23.6796 94.1399 21.1196 94.9399 18.7996ZM102.78 21.5596C103.5 19.5596 102.42 17.3596 100.42 16.6396C98.4199 15.9196 96.2199 16.9996 95.4999 18.9996C94.7799 20.9996 95.8599 23.1996 97.8599 23.9196C99.8599 24.6396 102.06 23.5596 102.78 21.5596Z" fill="#30A46C"/>
<path d="M98.9184 19.5133L76.1602 21.4443L76.3597 23.7959L99.1179 21.8648L98.9184 19.5133Z" fill="#30A46C"/>
<path d="M135.78 34.5992C134.22 32.9192 134.26 30.3192 135.94 28.7192C137.62 27.1592 140.22 27.1992 141.82 28.8792C143.38 30.5592 143.34 33.1592 141.66 34.7592C139.98 36.3192 137.38 36.2792 135.78 34.5992Z" fill="#30A46C"/>
<path d="M135.74 28.4791C137.54 26.7991 140.34 26.8791 142.02 28.6391C143.7 30.4391 143.62 33.2391 141.86 34.9191C140.1 36.5991 137.26 36.5191 135.58 34.7591C133.9 32.9991 133.98 30.1591 135.74 28.4791ZM141.46 34.5191C143.02 33.0391 143.06 30.5991 141.62 29.0791C140.18 27.5591 137.7 27.4791 136.18 28.9191C134.66 30.3591 134.58 32.8391 136.02 34.3591C137.5 35.9191 139.94 35.9591 141.46 34.5191Z" fill="#30A46C"/>
<path d="M117.855 22.1973L116.955 24.3789L138.069 33.0899L138.969 30.9083L117.855 22.1973Z" fill="#30A46C"/>
<path d="M166.78 57.5997C166.34 55.3597 167.78 53.1597 170.02 52.7197C172.26 52.2797 174.46 53.7197 174.9 55.9597C175.34 58.1997 173.9 60.3997 171.66 60.8397C169.42 61.2797 167.22 59.8397 166.78 57.5997Z" fill="#30A46C"/>
<path d="M169.94 52.3993C172.34 51.9193 174.7 53.4793 175.18 55.8793C175.66 58.2793 174.1 60.6393 171.7 61.1193C169.3 61.5993 166.94 60.0393 166.46 57.6393C165.98 55.2393 167.54 52.8793 169.94 52.3993ZM171.58 60.5193C173.66 60.0793 175.02 58.0393 174.58 55.9593C174.14 53.8793 172.1 52.5193 170.02 52.9593C167.94 53.3993 166.58 55.4393 167.02 57.5193C167.46 59.5993 169.5 60.9593 171.58 60.5193Z" fill="#30A46C"/>
<path d="M158.043 37.6206L156.126 38.9971L169.448 57.5497L171.365 56.1732L158.043 37.6206Z" fill="#30A46C"/>
<path d="M107.777 135.234L105.987 136.772L120.093 153.183L121.883 151.645L107.777 135.234Z" fill="#30A46C"/>
<path d="M123.74 44.8398L142.5 56.5198L152.94 74.7198L150.9 75.8798L140.74 58.1998L122.5 46.8398L123.74 44.8398Z" fill="#30A46C"/>
<path d="M156.735 39.7225L140.289 55.5713L141.927 57.2706L158.373 41.4219L156.735 39.7225Z" fill="#30A46C"/>
<path d="M139.651 57.6913L132.056 77.1836L134.255 78.0405L141.85 58.5482L139.651 57.6913Z" fill="#30A46C"/>
<path d="M106.82 43.8398V46.1998L86.4598 46.1598L67.4598 56.2798L66.3398 54.1998L85.8598 43.7998L106.82 43.8398Z" fill="#30A46C"/>
<path d="M80.7496 22.5481L78.459 23.1162L83.9574 45.2845L86.248 44.7164L80.7496 22.5481Z" fill="#30A46C"/>
<path d="M98.2602 62.8799L85.7002 47.3599L87.5402 45.8799L100.66 62.0799" fill="#30A46C"/>
<path d="M57.0602 68.3594L59.0602 69.5594L48.8602 87.1994L48.1002 108.679L45.7402 108.599L46.5402 86.5194L57.0602 68.3594Z" fill="#30A46C"/>
<path d="M25.5302 80.2918L24.877 82.5596L46.8245 88.8819L47.4777 86.6142L25.5302 80.2918Z" fill="#30A46C"/>
<path d="M69.3032 82.8953L47.6084 86.0293L47.9458 88.3651L69.6406 85.2311L69.3032 82.8953Z" fill="#30A46C"/>
<path d="M55.4199 122.56L65.5799 140.24L83.8199 151.64L82.5799 153.64L63.8199 141.92L53.3799 123.76L55.4199 122.56Z" fill="#30A46C"/>
<path d="M64.4217 141.174L47.9727 157.02L49.61 158.719L66.0591 142.873L64.4217 141.174Z" fill="#30A46C"/>
<path d="M72.102 120.383L64.29 141.035L66.4974 141.87L74.3093 121.218L72.102 120.383Z" fill="#30A46C"/>
<path d="M97.7502 154.297L83.4502 172.819L85.3182 174.262L99.6183 155.739L97.7502 154.297Z" fill="#30A46C"/>
<path d="M82.5401 148.44C84.7001 147.68 87.0601 148.8 87.8601 150.96C88.6201 153.12 87.5001 155.48 85.3401 156.28C83.1801 157.04 80.8201 155.92 80.0201 153.76C79.2601 151.6 80.3801 149.24 82.5401 148.44Z" fill="#30A46C"/>
<path d="M84.7398 147.999C86.2598 148.279 87.5798 149.319 88.1398 150.879C88.5398 151.999 88.4998 153.199 87.9798 154.279C87.4598 155.359 86.5798 156.159 85.4598 156.559C84.3398 156.959 83.1398 156.919 82.0598 156.399C80.9798 155.879 80.1798 154.999 79.7798 153.879C78.9398 151.559 80.1398 149.039 82.4598 148.199C83.2198 147.919 84.0198 147.879 84.7398 147.999ZM83.2598 156.159C83.8998 156.279 84.5798 156.239 85.2598 155.999C86.2198 155.639 87.0198 154.959 87.4598 153.999C87.8998 153.079 87.9398 152.039 87.5798 151.039C86.8598 149.039 84.6598 147.999 82.6598 148.719C80.6598 149.439 79.6198 151.639 80.3398 153.639C80.6998 154.599 81.3798 155.399 82.3398 155.839C82.6598 155.999 82.9798 156.079 83.2998 156.159H83.2598Z" fill="#30A46C"/>
<path d="M63.9796 137.559C66.1396 136.799 68.4996 137.919 69.2996 140.079C70.0596 142.239 68.9396 144.599 66.7796 145.399C64.6196 146.159 62.2596 145.039 61.4596 142.879C60.6996 140.719 61.8196 138.359 63.9796 137.559Z" fill="#30A46C"/>
<path d="M66.1802 137.079C67.7002 137.359 69.0202 138.399 69.5802 139.959C70.4202 142.279 69.2202 144.839 66.9002 145.639C65.7802 146.039 64.5802 145.999 63.5002 145.479C62.4202 144.959 61.6202 144.079 61.2202 142.959C60.3802 140.639 61.5802 138.119 63.9002 137.279C64.6602 136.999 65.4602 136.959 66.1802 137.079ZM64.7002 145.239C65.3402 145.359 66.0202 145.319 66.7002 145.079C67.6602 144.719 68.4602 144.039 68.9002 143.079C69.3402 142.159 69.3802 141.079 69.0202 140.119C68.3002 138.119 66.1002 137.079 64.1002 137.799C62.1002 138.519 61.0602 140.719 61.7802 142.719C62.1402 143.679 62.8202 144.479 63.7802 144.919C64.1002 145.079 64.4202 145.159 64.7402 145.239H64.7002Z" fill="#30A46C"/>
<path d="M52.6602 119.36C54.8202 118.6 57.1802 119.72 57.9802 121.88C58.7402 124.04 57.6202 126.4 55.4602 127.2C53.3002 127.96 50.9402 126.84 50.1402 124.68C49.3802 122.52 50.5002 120.16 52.6602 119.36Z" fill="#30A46C"/>
<path d="M54.8599 118.879C55.2599 118.959 55.6199 119.079 55.9799 119.239C57.0599 119.759 57.8599 120.639 58.2599 121.759C58.6599 122.879 58.6199 124.079 58.0999 125.159C57.5799 126.239 56.6999 127.039 55.5799 127.439C53.2599 128.279 50.6999 127.079 49.8999 124.759C49.4999 123.639 49.5399 122.439 50.0599 121.359C50.5799 120.279 51.4599 119.479 52.5799 119.079C53.3399 118.799 54.0999 118.759 54.8599 118.879ZM53.4199 127.039C54.0599 127.159 54.7399 127.119 55.4199 126.879C56.3799 126.519 57.1799 125.839 57.6199 124.879C58.0599 123.959 58.0999 122.919 57.7399 121.919C57.3799 120.959 56.6999 120.159 55.7399 119.719C54.8199 119.279 53.7399 119.239 52.7799 119.559C51.8199 119.919 51.0199 120.599 50.5799 121.559C50.1399 122.479 50.0999 123.519 50.4599 124.519C50.9399 125.879 52.0999 126.759 53.4199 126.999V127.039Z" fill="#30A46C"/>
<path d="M71.42 117.559C73.58 116.799 75.94 117.919 76.74 120.079C77.5 122.239 76.38 124.599 74.22 125.399C72.06 126.159 69.7 125.039 68.9 122.879C68.14 120.719 69.26 118.359 71.42 117.559Z" fill="#30A46C"/>
<path d="M73.6197 117.079C75.1397 117.359 76.4597 118.399 77.0197 119.959C77.4197 121.079 77.3797 122.279 76.8597 123.359C76.3397 124.439 75.4597 125.239 74.3397 125.639C72.0197 126.479 69.4997 125.279 68.6597 122.959C67.8197 120.639 69.0197 118.119 71.3397 117.279C72.0997 116.999 72.8997 116.959 73.6197 117.079ZM72.1797 125.239C72.8197 125.359 73.4997 125.319 74.1797 125.079C75.1397 124.719 75.9397 124.039 76.3797 123.079C76.8197 122.159 76.8597 121.119 76.4997 120.119C75.7797 118.119 73.5797 117.079 71.5797 117.799C69.5797 118.519 68.5397 120.719 69.2597 122.719C69.7397 124.079 70.8997 124.959 72.2197 125.199L72.1797 125.239Z" fill="#30A46C"/>
<path d="M47.5001 154.32C49.6601 153.56 52.0201 154.68 52.8201 156.84C53.5801 159 52.4601 161.36 50.3001 162.16C48.1401 162.92 45.7801 161.8 44.9801 159.64C44.2201 157.48 45.3401 155.12 47.5001 154.32Z" fill="#30A46C"/>
<path d="M49.6998 153.839C50.0598 153.919 50.4598 154.039 50.8198 154.199C51.8998 154.719 52.6998 155.599 53.0998 156.719C53.4998 157.839 53.4598 159.039 52.9398 160.119C52.4198 161.199 51.5398 161.999 50.4198 162.399C48.0998 163.239 45.5398 162.039 44.7398 159.719C44.3398 158.599 44.3798 157.399 44.8998 156.319C45.4198 155.239 46.2998 154.439 47.4198 154.039C48.1798 153.759 48.9398 153.719 49.6998 153.839ZM48.2198 161.999C48.8598 162.119 49.5398 162.079 50.2198 161.839C51.1798 161.479 51.9798 160.799 52.4198 159.839C52.8598 158.919 52.8998 157.879 52.5398 156.879C52.1798 155.919 51.4998 155.119 50.5398 154.679C49.6198 154.239 48.5798 154.199 47.5798 154.519C46.6198 154.879 45.8198 155.559 45.3798 156.519C44.9398 157.439 44.8998 158.479 45.2598 159.479C45.7398 160.839 46.8998 161.719 48.2198 161.959V161.999Z" fill="#30A46C"/>
<path d="M29.4203 115.119C31.6203 114.399 33.9403 115.599 34.6603 117.799C35.3803 119.999 34.1803 122.319 31.9803 123.039C29.7803 123.759 27.4603 122.559 26.7403 120.359C26.0203 118.159 27.2203 115.839 29.4203 115.119Z" fill="#30A46C"/>
<path d="M31.4604 114.68C31.9004 114.76 32.3004 114.88 32.7004 115.12C33.7404 115.68 34.5404 116.6 34.9004 117.72C35.6604 120.04 34.3804 122.56 32.0204 123.32C30.9004 123.68 29.7004 123.6 28.6204 123.04C27.5804 122.48 26.7804 121.56 26.4204 120.44C26.0604 119.32 26.1404 118.12 26.7004 117.04C27.2604 116 28.1804 115.2 29.3004 114.84C30.0204 114.6 30.7404 114.56 31.4604 114.68ZM29.9804 122.84C30.5804 122.96 31.2204 122.92 31.8604 122.72C33.9004 122.08 35.0204 119.88 34.3404 117.88C34.0204 116.88 33.3404 116.08 32.4204 115.64C31.5004 115.16 30.4604 115.08 29.4604 115.4C28.4604 115.72 27.6604 116.4 27.2204 117.32C26.7404 118.24 26.6604 119.28 26.9804 120.28C27.3004 121.28 27.9804 122.08 28.9004 122.52C29.2604 122.68 29.6204 122.84 29.9804 122.88V122.84Z" fill="#30A46C"/>
<path d="M31.2729 117.797L30.8789 120.124L53.9505 124.03L54.3445 121.704L31.2729 117.797Z" fill="#30A46C"/>
<path d="M50.22 105.999C51.98 107.479 52.18 110.119 50.7 111.839C49.22 113.599 46.58 113.799 44.86 112.319C43.1 110.839 42.9 108.199 44.38 106.479C45.86 104.719 48.5 104.519 50.22 105.999Z" fill="#30A46C"/>
<path d="M48.3396 104.76C49.0996 104.88 49.8196 105.24 50.4196 105.76C51.3396 106.52 51.8996 107.6 51.9796 108.8C52.0596 110 51.6996 111.12 50.9396 112.04C49.3396 113.92 46.5396 114.16 44.6596 112.56C42.7796 110.96 42.5396 108.16 44.1396 106.28C44.8996 105.36 45.9796 104.8 47.1796 104.72C47.5796 104.72 47.9796 104.72 48.3396 104.76ZM46.8596 112.92C48.1796 113.16 49.5796 112.72 50.4996 111.6C51.1796 110.8 51.4996 109.8 51.3796 108.8C51.2996 107.76 50.8196 106.84 50.0196 106.16C49.2196 105.48 48.2196 105.16 47.2196 105.28C46.1796 105.36 45.2596 105.84 44.5796 106.64C43.2196 108.28 43.4196 110.72 45.0196 112.08C45.5396 112.52 46.1796 112.8 46.8196 112.92H46.8596Z" fill="#30A46C"/>
<path d="M50.3801 84.4395C52.1401 85.9195 52.3401 88.5595 50.8601 90.2795C49.3801 92.0395 46.7401 92.2395 45.0201 90.7595C43.2601 89.2795 43.0601 86.6395 44.5401 84.9195C46.0201 83.1595 48.6601 82.9595 50.3801 84.4395Z" fill="#30A46C"/>
<path d="M48.5 83.2396C49.26 83.3596 49.94 83.6796 50.58 84.1996C51.5 84.9596 52.06 86.0396 52.14 87.2396C52.22 88.4396 51.86 89.5596 51.1 90.4796C50.34 91.3996 49.26 91.9596 48.06 92.0396C46.86 92.1596 45.74 91.7596 44.82 90.9996C43.9 90.2396 43.34 89.1596 43.26 87.9596C43.18 86.7596 43.54 85.6396 44.3 84.7196C45.38 83.4796 46.98 82.9596 48.5 83.1996V83.2396ZM50.18 84.6796C48.54 83.3196 46.1 83.5196 44.74 85.1196C44.06 85.9196 43.74 86.9196 43.86 87.9196C43.94 88.9596 44.42 89.8796 45.22 90.5596C46.02 91.2396 47.02 91.5596 48.02 91.4396C49.06 91.3596 49.98 90.8796 50.66 90.0796C51.34 89.2796 51.66 88.2796 51.54 87.2796C51.46 86.2396 50.98 85.3196 50.18 84.6396V84.6796Z" fill="#30A46C"/>
<path d="M60.4602 65.5597C62.2202 67.0397 62.4202 69.6797 60.9402 71.3997C59.4602 73.1197 56.8202 73.3596 55.1002 71.8796C53.3402 70.3996 53.1402 67.7597 54.6202 66.0397C56.1002 64.2797 58.7402 64.0796 60.4602 65.5597Z" fill="#30A46C"/>
<path d="M58.58 64.3593C59.34 64.4793 60.06 64.8393 60.66 65.3593C62.54 66.9593 62.78 69.7593 61.18 71.6393C59.58 73.5193 56.78 73.7593 54.9 72.1593C53.98 71.3993 53.42 70.3193 53.34 69.1193C53.26 67.9193 53.62 66.7993 54.38 65.8793C55.14 64.9593 56.22 64.3993 57.42 64.3193C57.82 64.3193 58.22 64.3193 58.58 64.3593ZM57.1 72.5193C58.42 72.7593 59.82 72.3193 60.74 71.1993C62.1 69.5593 61.9 67.1193 60.3 65.7593C59.5 65.0793 58.5 64.7593 57.5 64.8793C56.46 64.9593 55.54 65.4393 54.86 66.2393C54.18 67.0393 53.86 68.0393 53.98 69.0393C54.06 70.0793 54.54 70.9993 55.34 71.6793C55.86 72.1193 56.5 72.3993 57.14 72.5193H57.1Z" fill="#30A46C"/>
<path d="M71.4202 80.9195C73.1802 82.3995 73.3802 85.0395 71.9002 86.7595C70.4202 88.5195 67.7802 88.7195 66.0602 87.2395C64.3002 85.7595 64.1002 83.1195 65.5802 81.3995C67.0602 79.6795 69.7002 79.4395 71.4202 80.9195Z" fill="#30A46C"/>
<path d="M69.5398 79.7197C70.2998 79.8397 71.0198 80.1997 71.6198 80.7197C72.5398 81.4797 73.0998 82.5597 73.1798 83.7597C73.2598 84.9597 72.8998 86.0797 72.1398 86.9997C70.5398 88.8797 67.7398 89.1197 65.8598 87.5197C63.9798 85.9197 63.7398 83.1197 65.3398 81.2397C66.0998 80.3197 67.1798 79.7597 68.3798 79.6797C68.7798 79.6797 69.1798 79.6797 69.5398 79.7197ZM68.0598 87.8797C69.3798 88.1197 70.7798 87.6797 71.6998 86.5597C72.3798 85.7597 72.6998 84.7597 72.5798 83.7597C72.4998 82.7197 72.0198 81.7997 71.2198 81.1197C70.4198 80.4397 69.4198 80.1197 68.4198 80.2397C67.3798 80.3197 66.4598 80.7997 65.7798 81.5997C64.4198 83.2397 64.6198 85.6797 66.2198 87.0397C66.7398 87.4797 67.3798 87.7597 68.0198 87.8797H68.0598Z" fill="#30A46C"/>
<path d="M27.6204 78.5591C29.3804 80.0391 29.5804 82.6791 28.1004 84.3991C26.6204 86.1591 23.9804 86.3591 22.2604 84.8791C20.5004 83.3991 20.3004 80.7591 21.7804 79.0391C23.2604 77.3191 25.9004 77.0791 27.6204 78.5591Z" fill="#30A46C"/>
<path d="M25.74 77.3597C26.5 77.4797 27.18 77.7997 27.82 78.3197C29.7 79.9197 29.94 82.7197 28.34 84.5997C27.58 85.5197 26.5 86.0797 25.3 86.1597C24.1 86.2797 22.98 85.8797 22.06 85.1197C20.18 83.5197 19.94 80.7197 21.54 78.8397C22.62 77.5997 24.22 77.0797 25.74 77.3197V77.3597ZM27.42 78.7997C25.78 77.4397 23.34 77.6397 21.98 79.2397C21.3 80.0397 20.98 81.0397 21.1 82.0397C21.18 83.0797 21.66 83.9997 22.46 84.6797C23.26 85.3597 24.26 85.6797 25.26 85.5597C26.3 85.4797 27.22 84.9997 27.9 84.1997C29.26 82.5597 29.06 80.1197 27.46 78.7597L27.42 78.7997Z" fill="#30A46C"/>
<path d="M51.5402 43.7197C53.2602 45.2397 53.4602 47.8397 51.9402 49.5597C50.4202 51.2797 47.8202 51.4797 46.1002 49.9597C44.3802 48.4397 44.1802 45.8397 45.7002 44.1197C47.2202 42.3997 49.8202 42.1997 51.5402 43.7197Z" fill="#30A46C"/>
<path d="M49.6201 42.4394C50.4201 42.5994 51.1401 42.9194 51.7401 43.4794C52.6201 44.2794 53.1801 45.3594 53.2601 46.5194C53.3401 47.7194 52.9401 48.8394 52.1801 49.7594C50.5801 51.5994 47.7401 51.7994 45.9001 50.1994C44.0601 48.5994 43.8601 45.7594 45.4601 43.9194C46.2601 43.0394 47.3401 42.4794 48.5001 42.3994C48.8601 42.3994 49.2601 42.3994 49.6201 42.4394ZM48.1401 50.5994C49.4201 50.8394 50.8201 50.3994 51.7401 49.3594C52.4201 48.5994 52.7401 47.5994 52.7001 46.5594C52.6201 45.5194 52.1801 44.5994 51.3801 43.9194C50.6201 43.2394 49.6201 42.9194 48.5801 42.9594C47.5401 43.0394 46.6201 43.4794 45.9401 44.2794C44.5401 45.8794 44.7001 48.3194 46.3001 49.7194C46.8601 50.1994 47.5001 50.4794 48.1401 50.5994Z" fill="#30A46C"/>
<path d="M50.2022 46.6464L48.0059 47.5098L56.5668 69.2875L58.7632 68.4241L50.2022 46.6464Z" fill="#30A46C"/>
<path d="M66.7401 60.1598C69.0376 60.1598 70.9001 58.2973 70.9001 55.9998C70.9001 53.7023 69.0376 51.8398 66.7401 51.8398C64.4426 51.8398 62.5801 53.7023 62.5801 55.9998C62.5801 58.2973 64.4426 60.1598 66.7401 60.1598Z" fill="#30A46C"/>
<path d="M67.54 51.6398C69.94 52.0798 71.58 54.3998 71.14 56.7998C70.7 59.1998 68.38 60.8398 65.98 60.3998C63.58 59.9598 61.94 57.6398 62.38 55.2398C62.82 52.8398 65.14 51.1998 67.54 51.6398ZM66.06 59.7998C68.14 60.1598 70.18 58.7998 70.54 56.6798C70.9 54.5598 69.54 52.5598 67.42 52.1998C65.3 51.8398 63.3 53.1998 62.94 55.3198C62.58 57.4398 63.94 59.4398 66.06 59.7998Z" fill="#30A46C"/>
<path d="M85.4998 49.5593C87.7974 49.5593 89.6599 47.6968 89.6599 45.3993C89.6599 43.1018 87.7974 41.2393 85.4998 41.2393C83.2023 41.2393 81.3398 43.1018 81.3398 45.3993C81.3398 47.6968 83.2023 49.5593 85.4998 49.5593Z" fill="#30A46C"/>
<path d="M86.2598 41.0392C88.6598 41.4792 90.2998 43.7992 89.8598 46.1992C89.4198 48.5992 87.0998 50.2392 84.6998 49.7992C82.2998 49.3592 80.6598 47.0392 81.0998 44.6392C81.5398 42.2392 83.8598 40.5992 86.2598 41.0392ZM84.7798 49.1992C86.8598 49.5592 88.8998 48.1992 89.2598 46.0792C89.6198 43.9592 88.2598 41.9592 86.1398 41.5992C84.0198 41.2392 82.0198 42.5992 81.6598 44.7192C81.2998 46.8392 82.6598 48.8392 84.7798 49.1992Z" fill="#30A46C"/>
<path d="M110.98 45.4394C110.58 47.6794 108.42 49.1994 106.14 48.7994C103.86 48.3994 102.38 46.2394 102.78 43.9594C103.18 41.6794 105.34 40.1994 107.62 40.5994C109.9 40.9994 111.38 43.1594 110.98 45.4394Z" fill="#30A46C"/>
<path d="M107.66 40.3195C110.06 40.7595 111.7 43.0795 111.26 45.4795C110.82 47.8795 108.5 49.5195 106.1 49.0795C103.7 48.6395 102.06 46.3195 102.5 43.9195C102.94 41.5195 105.26 39.8795 107.66 40.3195ZM106.18 48.4795C108.26 48.8395 110.3 47.4795 110.66 45.3595C111.02 43.2395 109.66 41.2395 107.54 40.8795C105.42 40.5195 103.42 41.8795 103.06 43.9995C102.7 46.1195 104.06 48.1195 106.18 48.4795Z" fill="#30A46C"/>
<path d="M99.1004 65.9997C101.398 65.9997 103.26 64.1372 103.26 61.8397C103.26 59.5422 101.398 57.6797 99.1004 57.6797C96.8029 57.6797 94.9404 59.5422 94.9404 61.8397C94.9404 64.1372 96.8029 65.9997 99.1004 65.9997Z" fill="#30A46C"/>
<path d="M99.8604 57.4797C102.26 57.9197 103.9 60.2397 103.46 62.6397C103.02 65.0397 100.7 66.6797 98.3004 66.2397C95.9004 65.7997 94.2604 63.4797 94.7004 61.0797C95.1404 58.6797 97.4604 57.0397 99.8604 57.4797ZM98.3804 65.6397C100.46 65.9997 102.5 64.6397 102.86 62.5197C103.22 60.3997 101.86 58.3997 99.7404 58.0397C97.6204 57.6797 95.6204 59.0397 95.2604 61.1597C94.9004 63.2797 96.2604 65.2797 98.3804 65.6397Z" fill="#30A46C"/>
<path d="M120.14 78.5194C119.74 80.7594 117.58 82.2794 115.3 81.8794C113.02 81.4794 111.54 79.3195 111.94 77.0395C112.34 74.7595 114.5 73.2795 116.78 73.6795C119.06 74.0795 120.54 76.2394 120.14 78.5194Z" fill="#30A46C"/>
<path d="M116.86 73.3996C119.26 73.8396 120.9 76.1596 120.46 78.5596C120.02 80.9596 117.7 82.5996 115.3 82.1596C112.9 81.7196 111.26 79.3996 111.7 76.9996C112.14 74.5996 114.46 72.9596 116.86 73.3996ZM115.38 81.5596C117.46 81.9196 119.5 80.5596 119.86 78.4396C120.22 76.3196 118.86 74.3196 116.74 73.9596C114.62 73.5996 112.62 74.9596 112.26 77.0796C111.9 79.1996 113.26 81.1996 115.38 81.5596Z" fill="#30A46C"/>
<path d="M83.3004 23.4794C82.9004 25.7194 80.7404 27.2394 78.4604 26.8394C76.1804 26.4394 74.7003 24.2794 75.1003 21.9994C75.5003 19.7194 77.6604 18.2394 79.9404 18.6394C82.2204 19.0394 83.7004 21.1994 83.3004 23.4794Z" fill="#30A46C"/>
<path d="M79.9805 18.3595C82.3805 18.7995 84.0205 21.1195 83.5805 23.5195C83.1405 25.9195 80.8205 27.5595 78.4205 27.1195C76.0205 26.6795 74.3805 24.3595 74.8205 21.9595C75.2605 19.5595 77.5805 17.9195 79.9805 18.3595ZM78.5005 26.5195C80.5805 26.8795 82.6205 25.5195 82.9805 23.3995C83.3405 21.2795 81.9805 19.2795 79.8605 18.9195C77.7405 18.5595 75.7405 19.9195 75.3805 22.0395C75.0205 24.1595 76.3805 26.1595 78.5005 26.5195Z" fill="#30A46C"/>
<path d="M121.9 23.5995C121.9 25.8795 120.02 27.7595 117.74 27.7595C115.46 27.7595 113.58 25.8795 113.58 23.5995C113.58 21.3195 115.46 19.4395 117.74 19.4395C120.02 19.4395 121.9 21.3195 121.9 23.5995Z" fill="#30A46C"/>
<path d="M118.54 19.2392C120.62 19.5992 122.18 21.4392 122.18 23.5992C122.18 24.7992 121.7 25.9192 120.86 26.7592C120.02 27.5992 118.9 28.0792 117.7 28.0792C116.5 28.0792 115.38 27.5992 114.54 26.7592C113.7 25.9192 113.22 24.7992 113.22 23.5992C113.22 21.1592 115.22 19.1592 117.66 19.1592C117.94 19.1592 118.18 19.1592 118.46 19.2392H118.54ZM117.06 27.3992C117.3 27.4392 117.5 27.4792 117.74 27.4792C118.78 27.4792 119.74 27.0792 120.46 26.3592C121.18 25.6392 121.58 24.6792 121.58 23.6392C121.58 21.5192 119.86 19.7592 117.74 19.7592C115.62 19.7592 113.9 21.4792 113.86 23.5992C113.86 24.6392 114.26 25.5992 114.98 26.3192C115.54 26.8792 116.26 27.2392 117.02 27.3992H117.06Z" fill="#30A46C"/>
<path d="M116.683 23.5292L105.882 44.2871L107.975 45.3765L118.777 24.6185L116.683 23.5292Z" fill="#30A46C"/>
<path d="M123.78 50C121.62 50.76 119.26 49.64 118.46 47.48C117.7 45.32 118.82 42.96 120.98 42.16C123.14 41.36 125.5 42.52 126.3 44.68C127.06 46.84 125.94 49.2 123.78 50Z" fill="#30A46C"/>
<path d="M123.18 41.72C124.7 42 126.02 43.04 126.58 44.6C127.42 46.92 126.22 49.44 123.9 50.28C121.58 51.12 119.06 49.92 118.22 47.6C117.82 46.48 117.86 45.28 118.38 44.2C118.9 43.12 119.78 42.32 120.9 41.92C121.66 41.64 122.46 41.6 123.18 41.72ZM123.7 49.72C125.7 49 126.74 46.8 126.02 44.8C125.3 42.8 123.1 41.76 121.1 42.48C120.14 42.84 119.34 43.52 118.9 44.48C118.46 45.4 118.42 46.44 118.78 47.44C119.5 49.44 121.7 50.48 123.7 49.76V49.72Z" fill="#30A46C"/>
<path d="M142.34 60.9197C140.18 61.6797 137.82 60.5597 137.02 58.3997C136.26 56.2397 137.38 53.8797 139.54 53.0797C141.7 52.3197 144.06 53.4397 144.86 55.5997C145.62 57.7597 144.5 60.1197 142.34 60.9197Z" fill="#30A46C"/>
<path d="M141.74 52.5999C142.14 52.6799 142.5 52.7999 142.86 52.9599C143.94 53.4799 144.74 54.3599 145.14 55.4799C145.98 57.7999 144.78 60.3199 142.46 61.1599C140.14 61.9999 137.62 60.7999 136.78 58.4799C136.38 57.3599 136.42 56.1599 136.94 55.0799C137.46 53.9999 138.34 53.1999 139.46 52.7999C140.22 52.5199 140.98 52.4799 141.74 52.5999ZM142.26 60.5999C144.26 59.8799 145.3 57.6799 144.58 55.6799C144.22 54.7199 143.54 53.9199 142.58 53.4799C141.66 53.0399 140.58 52.9999 139.62 53.3199C138.66 53.6799 137.86 54.3599 137.42 55.3199C136.98 56.2399 136.94 57.2799 137.3 58.2799C138.02 60.2799 140.22 61.3199 142.22 60.5999H142.26Z" fill="#30A46C"/>
<path d="M153.66 79.0798C151.5 79.8398 149.14 78.7198 148.34 76.5598C147.58 74.3998 148.7 72.0398 150.86 71.2398C153.02 70.4798 155.38 71.5998 156.18 73.7598C156.94 75.9198 155.82 78.2798 153.66 79.0798Z" fill="#30A46C"/>
<path d="M153.06 70.7991C153.46 70.8791 153.82 70.9991 154.18 71.1591C155.26 71.6791 156.06 72.5591 156.46 73.6791C156.86 74.7991 156.82 75.9991 156.3 77.0791C155.78 78.1591 154.9 78.9591 153.78 79.3591C151.46 80.1991 148.94 78.9991 148.1 76.6791C147.7 75.5591 147.74 74.3591 148.26 73.2791C148.78 72.1991 149.66 71.3991 150.78 70.9991C151.54 70.7191 152.3 70.6791 153.06 70.7991ZM151.58 78.9591C152.22 79.0791 152.9 79.0391 153.58 78.7991C154.54 78.4391 155.34 77.7591 155.78 76.7991C156.22 75.8791 156.26 74.8391 155.9 73.8391C155.54 72.8791 154.86 72.0791 153.9 71.6391C152.98 71.1991 151.9 71.1591 150.94 71.4791C149.98 71.8391 149.18 72.5191 148.74 73.4791C148.3 74.3991 148.26 75.4391 148.62 76.4391C149.1 77.7991 150.26 78.6791 151.58 78.9191V78.9591Z" fill="#30A46C"/>
<path d="M135.7 78.3992C133.54 79.1592 131.18 78.0392 130.38 75.8792C129.62 73.7192 130.74 71.3592 132.9 70.5592C135.06 69.7992 137.42 70.9192 138.22 73.0792C138.98 75.2392 137.86 77.5992 135.7 78.3992Z" fill="#30A46C"/>
<path d="M135.06 70.1194C136.58 70.3994 137.9 71.4394 138.46 72.9994C138.86 74.1194 138.82 75.3194 138.3 76.3994C137.78 77.4794 136.9 78.2794 135.78 78.6794C133.46 79.5194 130.94 78.3194 130.1 75.9994C129.26 73.6794 130.46 71.1594 132.78 70.3194C133.54 70.0394 134.34 69.9994 135.06 70.1194ZM133.62 78.2794C134.26 78.3994 134.94 78.3594 135.62 78.1194C136.58 77.7594 137.38 77.0794 137.82 76.1194C138.26 75.1994 138.3 74.1594 137.94 73.1594C137.22 71.1594 135.02 70.1194 133.02 70.8394C131.02 71.5594 129.98 73.7594 130.7 75.7594C131.18 77.1194 132.34 77.9994 133.66 78.2394L133.62 78.2794Z" fill="#30A46C"/>
<path d="M158.82 44.1199C156.66 44.8799 154.3 43.7599 153.5 41.5999C152.74 39.4399 153.86 37.0799 156.02 36.2799C158.18 35.5199 160.54 36.6399 161.34 38.7999C162.1 40.9599 160.98 43.3199 158.82 44.1199Z" fill="#30A46C"/>
<path d="M158.22 35.8392C158.58 35.9192 158.98 36.0392 159.34 36.1992C160.42 36.7192 161.22 37.5992 161.62 38.7192C162.46 41.0392 161.26 43.5592 158.94 44.3992C156.62 45.2392 154.1 44.0392 153.26 41.7192C152.42 39.3992 153.62 36.8392 155.94 36.0392C156.7 35.7592 157.46 35.7192 158.22 35.8392ZM158.74 43.8392C160.74 43.1192 161.78 40.9192 161.06 38.9192C160.7 37.9592 160.02 37.1592 159.06 36.7192C158.14 36.2792 157.06 36.2392 156.1 36.5592C155.14 36.9192 154.34 37.5992 153.9 38.5592C153.46 39.4792 153.42 40.5592 153.78 41.5192C154.5 43.5192 156.7 44.5592 158.7 43.8392H158.74Z" fill="#30A46C"/>
<path d="M178.02 78.3194C175.98 79.3994 173.5 78.6394 172.42 76.5994C171.34 74.5594 172.1 72.0794 174.14 70.9994C176.18 69.9194 178.66 70.6794 179.74 72.7194C180.82 74.7594 180.06 77.2394 178.02 78.3194Z" fill="#30A46C"/>
<path d="M176.82 70.2795C178.1 70.5195 179.3 71.3195 179.94 72.5595C181.1 74.7195 180.26 77.4395 178.1 78.5595C177.06 79.1195 175.86 79.2395 174.7 78.8795C173.58 78.5195 172.62 77.7595 172.06 76.7195C170.9 74.5595 171.74 71.8395 173.9 70.7195C174.82 70.2395 175.82 70.0795 176.78 70.2795H176.82ZM175.34 78.4395C176.18 78.5995 177.06 78.4395 177.82 78.0395C179.7 77.0395 180.42 74.6795 179.42 72.7995C178.42 70.9195 176.06 70.1995 174.18 71.1995C172.3 72.1995 171.58 74.5595 172.58 76.4395C173.06 77.3595 173.86 77.9995 174.86 78.3195C175.02 78.3595 175.14 78.3995 175.3 78.4395H175.34Z" fill="#30A46C"/>
<path d="M175.634 73.6781L152.235 73.9395L152.262 76.2993L175.66 76.0379L175.634 73.6781Z" fill="#30A46C"/>
<path d="M100.461 60.5966L98.8018 62.2744L114.442 77.7464L116.102 76.0686L100.461 60.5966Z" fill="#30A46C"/>
<path d="M95.7403 99.1591H117.7C117.78 102.559 117.3 105.639 116.26 108.479C115.22 111.319 113.74 113.759 111.82 115.839C109.9 117.919 107.62 119.519 104.94 120.679C102.26 121.839 99.3003 122.399 96.1003 122.399C93.9403 122.399 91.9003 122.119 89.9003 121.599C87.9003 121.079 86.0603 120.319 84.3403 119.319C82.6203 118.359 81.0603 117.159 79.6603 115.799C78.2603 114.439 77.0203 112.919 76.0203 111.239C75.0203 109.559 74.2203 107.759 73.6603 105.839C73.1003 103.919 72.8203 101.879 72.8203 99.7991C72.8203 97.7191 73.1003 95.6791 73.6603 93.7191C74.2203 91.7991 74.9803 89.9591 76.0203 88.2791C77.0603 86.5991 78.2603 85.0791 79.6603 83.6791C81.0603 82.3191 82.6603 81.1191 84.3403 80.1591C86.0603 79.1991 87.9003 78.4391 89.9003 77.8791C91.9003 77.3591 93.9403 77.0791 96.1003 77.0791C99.3403 77.0791 102.42 77.6791 105.3 78.8391C108.18 79.9991 110.74 81.7991 113.06 84.1591L109.3 87.8791C108.58 87.0391 107.74 86.2791 106.82 85.5591C105.9 84.8391 104.86 84.2391 103.74 83.6791C102.62 83.1591 101.42 82.7191 100.14 82.4391C98.8603 82.1591 97.5003 81.9991 96.1003 81.9991C93.6603 81.9991 91.3803 82.4391 89.2603 83.3591C87.1003 84.2791 85.2603 85.5191 83.6603 87.1191C82.0603 88.7191 80.8203 90.5991 79.9003 92.7591C78.9803 94.9191 78.5003 97.2391 78.5003 99.7591C78.5003 101.439 78.7003 102.999 79.1403 104.519C79.5403 106.039 80.1403 107.439 80.9003 108.759C81.6603 110.079 82.5803 111.239 83.6603 112.319C84.7403 113.399 85.9403 114.279 87.2203 115.039C88.5003 115.799 89.9003 116.399 91.4203 116.799C92.9403 117.199 94.5003 117.439 96.1003 117.439C98.4603 117.439 100.58 117.119 102.46 116.399C104.34 115.719 105.94 114.759 107.3 113.519C108.66 112.279 109.74 110.799 110.54 109.079C111.34 107.359 111.86 105.479 112.1 103.359H95.7403V99.1591Z" fill="#111113"/>
<path d="M139.38 121.679H159.78C159.86 124.839 159.42 127.719 158.46 130.359C157.5 132.999 156.14 135.279 154.34 137.199C152.58 139.119 150.42 140.599 147.94 141.679C145.46 142.759 142.7 143.279 139.74 143.279C137.74 143.279 135.82 143.039 133.98 142.519C132.14 141.999 130.42 141.319 128.82 140.399C127.22 139.479 125.78 138.399 124.46 137.119C123.14 135.839 122.02 134.439 121.06 132.879C120.1 131.319 119.38 129.639 118.9 127.839C118.38 126.039 118.14 124.159 118.14 122.239C118.14 120.319 118.38 118.399 118.9 116.599C119.42 114.799 120.14 113.119 121.06 111.559C121.98 109.999 123.14 108.559 124.46 107.319C125.78 106.039 127.22 104.959 128.82 104.039C130.42 103.119 132.14 102.439 133.98 101.919C135.82 101.439 137.74 101.159 139.74 101.159C142.78 101.159 145.62 101.719 148.26 102.799C150.9 103.879 153.34 105.519 155.5 107.759L151.98 111.239C151.3 110.479 150.54 109.759 149.66 109.079C148.78 108.399 147.82 107.839 146.78 107.359C145.74 106.879 144.62 106.479 143.46 106.199C142.26 105.919 141.02 105.799 139.74 105.799C137.5 105.799 135.38 106.199 133.38 107.039C131.38 107.879 129.66 109.039 128.18 110.519C126.7 111.999 125.54 113.759 124.66 115.759C123.78 117.759 123.38 119.919 123.38 122.239C123.38 123.799 123.58 125.239 123.94 126.679C124.34 128.079 124.86 129.399 125.58 130.599C126.3 131.799 127.14 132.919 128.14 133.919C129.14 134.919 130.26 135.759 131.46 136.439C132.66 137.159 133.98 137.679 135.38 138.079C136.78 138.479 138.22 138.639 139.74 138.639C141.94 138.639 143.9 138.319 145.66 137.679C147.42 137.039 148.9 136.159 150.14 134.999C151.38 133.839 152.38 132.479 153.14 130.879C153.9 129.279 154.38 127.519 154.58 125.599H139.38V121.679Z" fill="#111113"/>
</svg>
