<svg width="100" height="40" viewBox="0 0 100 40" fill="none" xmlns="http://www.w3.org/2000/svg">
<g clip-path="url(#clip0_2482_38054)">
<path d="M18.5605 32.5997H23.4805L23.8605 32.4097C23.7805 32.3197 23.7405 32.1897 23.8105 32.0497C23.8805 31.9097 23.9605 31.7897 24.0505 31.6797L23.3505 32.0497H18.5605V32.5897V32.5997Z" fill="#30A46C"/>
<path d="M23.5698 33.2198C24.1111 33.2198 24.5498 32.781 24.5498 32.2398C24.5498 31.6985 24.1111 31.2598 23.5698 31.2598C23.0286 31.2598 22.5898 31.6985 22.5898 32.2398C22.5898 32.781 23.0286 33.2198 23.5698 33.2198Z" fill="#30A46C"/>
<path d="M23.7602 31.2098C24.3302 31.3098 24.7002 31.8598 24.6002 32.4198C24.5002 32.9798 23.9502 33.3598 23.3902 33.2598C22.8302 33.1598 22.4502 32.6098 22.5502 32.0498C22.6502 31.4898 23.2002 31.1098 23.7602 31.2098ZM23.4102 33.1298C23.9002 33.2198 24.3702 32.8898 24.4602 32.3998C24.5502 31.9098 24.2202 31.4398 23.7302 31.3498C23.2402 31.2598 22.7702 31.5898 22.6802 32.0798C22.5902 32.5698 22.9202 33.0398 23.4102 33.1298Z" fill="#30A46C"/>
<path d="M18.5503 33.3799C19.0916 33.3799 19.5303 32.9412 19.5303 32.3999C19.5303 31.8587 19.0916 31.4199 18.5503 31.4199C18.0091 31.4199 17.5703 31.8587 17.5703 32.3999C17.5703 32.9412 18.0091 33.3799 18.5503 33.3799Z" fill="#30A46C"/>
<path d="M18.7299 31.37C19.2999 31.47 19.6699 32.02 19.5699 32.58C19.4699 33.14 18.9199 33.52 18.3599 33.42C17.7999 33.32 17.4199 32.77 17.5199 32.21C17.6199 31.65 18.1699 31.27 18.7299 31.37ZM18.3799 33.29C18.8699 33.38 19.3399 33.05 19.4299 32.56C19.5199 32.07 19.1899 31.6 18.6999 31.51C18.2099 31.42 17.7399 31.75 17.6499 32.24C17.5599 32.73 17.8899 33.2 18.3799 33.29Z" fill="#30A46C"/>
<path d="M19.4203 28.1996C19.5203 27.6696 20.0203 27.3196 20.5503 27.4096C21.0803 27.4996 21.4303 28.0096 21.3403 28.5396C21.2503 29.0696 20.7403 29.4196 20.2103 29.3296C19.6803 29.2396 19.3303 28.7296 19.4203 28.1996Z" fill="#30A46C"/>
<path d="M20.5697 27.3397C21.1397 27.4397 21.5097 27.9897 21.4097 28.5497C21.3097 29.1097 20.7597 29.4897 20.1997 29.3897C19.6397 29.2897 19.2597 28.7397 19.3597 28.1797C19.4597 27.6197 20.0097 27.2397 20.5697 27.3397ZM20.2197 29.2597C20.7097 29.3497 21.1797 29.0197 21.2697 28.5297C21.3597 28.0397 21.0297 27.5697 20.5397 27.4797C20.0497 27.3897 19.5797 27.7197 19.4897 28.2097C19.3997 28.6997 19.7297 29.1697 20.2197 29.2597Z" fill="#30A46C"/>
<path d="M24.0903 37.3798C24.1903 36.8498 24.6903 36.4998 25.2203 36.5898C25.7503 36.6798 26.1003 37.1898 26.0103 37.7198C25.9203 38.2498 25.4103 38.5998 24.8803 38.5098C24.3503 38.4198 24.0003 37.9098 24.0903 37.3798Z" fill="#30A46C"/>
<path d="M25.2406 36.5297C25.8106 36.6297 26.1806 37.1797 26.0806 37.7397C25.9806 38.2997 25.4306 38.6797 24.8706 38.5797C24.3106 38.4797 23.9306 37.9297 24.0306 37.3697C24.1306 36.8097 24.6806 36.4297 25.2406 36.5297ZM24.8906 38.4497C25.3806 38.5397 25.8506 38.2097 25.9406 37.7197C26.0306 37.2297 25.7006 36.7597 25.2106 36.6697C24.7206 36.5797 24.2506 36.9097 24.1606 37.3997C24.0706 37.8897 24.4006 38.3597 24.8906 38.4497Z" fill="#30A46C"/>
<path d="M14.98 38.1299C15.5212 38.1299 15.96 37.6912 15.96 37.1499C15.96 36.6087 15.5212 36.1699 14.98 36.1699C14.4388 36.1699 14 36.6087 14 37.1499C14 37.6912 14.4388 38.1299 14.98 38.1299Z" fill="#30A46C"/>
<path d="M15.1703 36.12C15.7403 36.22 16.1103 36.77 16.0103 37.33C15.9103 37.89 15.3603 38.27 14.8003 38.17C14.2403 38.07 13.8603 37.52 13.9603 36.96C14.0603 36.4 14.6103 36.02 15.1703 36.12ZM14.8203 38.04C15.3103 38.13 15.7803 37.8 15.8703 37.31C15.9603 36.82 15.6303 36.35 15.1403 36.26C14.6503 36.17 14.1803 36.5 14.0903 36.99C14.0003 37.48 14.3303 37.95 14.8203 38.04Z" fill="#30A46C"/>
<path d="M23.9235 32.2738L23.3896 32.4062L24.68 37.6086L25.2138 37.4762L23.9235 32.2738Z" fill="#30A46C"/>
<path d="M20.19 37.5696C20.71 37.7296 20.99 38.2696 20.84 38.7896C20.68 39.3096 20.14 39.5896 19.62 39.4396C19.1 39.2896 18.82 38.7396 18.97 38.2196C19.13 37.6996 19.67 37.4196 20.19 37.5696Z" fill="#30A46C"/>
<path d="M20.8999 38.7997C20.7299 39.3497 20.1499 39.6597 19.5999 39.4897C19.0499 39.3197 18.7399 38.7397 18.9099 38.1897C19.0799 37.6397 19.6599 37.3297 20.2099 37.4997C20.7599 37.6697 21.0699 38.2497 20.8999 38.7997ZM19.0299 38.2297C18.8799 38.7097 19.1499 39.2197 19.6299 39.3597C20.1099 39.4997 20.6199 39.2397 20.7599 38.7597C20.9099 38.2797 20.6399 37.7697 20.1599 37.6297C19.6799 37.4897 19.1699 37.7497 19.0299 38.2297Z" fill="#30A46C"/>
<path d="M25.2143 37.4713L19.8955 38.1348L19.9636 38.6805L25.2824 38.0171L25.2143 37.4713Z" fill="#30A46C"/>
<path d="M11.0902 34.3799C11.4302 34.7899 11.3802 35.4099 10.9602 35.7499C10.5502 36.0899 9.9302 36.0399 9.5902 35.6199C9.2502 35.2099 9.3002 34.5899 9.7202 34.2499C10.1302 33.9099 10.7502 33.9599 11.0902 34.3799Z" fill="#30A46C"/>
<path d="M11.0099 35.8096C10.5699 36.1796 9.90992 36.1196 9.53992 35.6696C9.16992 35.2196 9.22992 34.5696 9.67992 34.1996C10.1199 33.8296 10.7799 33.8896 11.1499 34.3396C11.5199 34.7796 11.4599 35.4396 11.0099 35.8096ZM9.75992 34.3096C9.37992 34.6296 9.31992 35.1996 9.63992 35.5896C9.95992 35.9696 10.5299 36.0296 10.9199 35.7096C11.2999 35.3896 11.3599 34.8196 11.0399 34.4296C10.7199 34.0496 10.1499 33.9896 9.75992 34.3096Z" fill="#30A46C"/>
<path d="M10.5339 34.6911L10.292 35.1851L15.1058 37.5423L15.3477 37.0483L10.5339 34.6911Z" fill="#30A46C"/>
<path d="M4.07034 29.01C4.20034 29.53 3.88034 30.06 3.36034 30.19C2.84034 30.32 2.31034 30 2.18034 29.48C2.05034 28.96 2.37034 28.43 2.89034 28.3C3.41034 28.17 3.94034 28.49 4.07034 29.01Z" fill="#30A46C"/>
<path d="M3.38059 30.2597C2.82059 30.3997 2.25058 30.0597 2.11058 29.4997C1.97058 28.9397 2.31058 28.3697 2.87058 28.2297C3.43058 28.0897 4.00058 28.4297 4.14058 28.9897C4.28058 29.5497 3.94059 30.1197 3.38059 30.2597ZM2.91059 28.3697C2.43059 28.4897 2.13058 28.9797 2.25058 29.4697C2.37058 29.9597 2.86058 30.2497 3.35058 30.1297C3.84058 30.0097 4.13059 29.5197 4.01059 29.0297C3.89059 28.5497 3.40059 28.2497 2.91059 28.3697Z" fill="#30A46C"/>
<path d="M3.42826 29.0558L2.99609 29.396L6.3115 33.6076L6.74366 33.2674L3.42826 29.0558Z" fill="#30A46C"/>
<path d="M2.18067 19.97C2.07067 20.5 1.56067 20.84 1.03067 20.73C0.500668 20.62 0.160668 20.11 0.270668 19.58C0.380668 19.05 0.890668 18.71 1.42067 18.82C1.95067 18.93 2.29067 19.44 2.18067 19.97Z" fill="#30A46C"/>
<path d="M1.02003 20.7998C0.460031 20.6898 0.0900309 20.1298 0.200031 19.5698C0.310031 19.0098 0.870031 18.6398 1.43003 18.7498C1.99003 18.8598 2.36003 19.4198 2.25003 19.9798C2.14003 20.5398 1.58003 20.9098 1.02003 20.7998ZM1.41003 18.8898C0.920031 18.7898 0.440031 19.1098 0.340031 19.5998C0.240031 20.0898 0.560031 20.5698 1.05003 20.6698C1.54003 20.7698 2.02003 20.4498 2.12003 19.9598C2.22003 19.4698 1.90003 18.9898 1.41003 18.8898Z" fill="#30A46C"/>
<path d="M1.59403 19.7389L1.05762 19.8604L2.24147 25.088L2.77789 24.9665L1.59403 19.7389Z" fill="#30A46C"/>
<path d="M3.54993 10.9996C3.16993 11.3796 2.54993 11.3696 2.16993 10.9996C1.78993 10.6296 1.79993 9.99964 2.16993 9.61964C2.54993 9.23964 3.16993 9.24964 3.54993 9.61964C3.92993 9.98964 3.91993 10.6196 3.54993 10.9996Z" fill="#30A46C"/>
<path d="M2.12031 11.0396C1.72031 10.6296 1.72031 9.96962 2.12031 9.55962C2.52031 9.14962 3.19031 9.15962 3.60031 9.55962C4.01031 9.95962 4.00031 10.6296 3.60031 11.0396C3.20031 11.4496 2.53031 11.4396 2.12031 11.0396ZM3.51031 9.66962C3.16031 9.30962 2.58031 9.30962 2.23031 9.66962C1.87031 10.0196 1.87031 10.5996 2.23031 10.9496C2.58031 11.3096 3.16031 11.3096 3.51031 10.9496C3.87031 10.5996 3.87031 10.0196 3.51031 9.66962Z" fill="#30A46C"/>
<path d="M2.6753 10.2772L0.734375 15.2734L1.24705 15.4726L3.18797 10.4764L2.6753 10.2772Z" fill="#30A46C"/>
<path d="M10.8206 5.01961C10.2906 5.12961 9.78064 4.77961 9.67064 4.25961C9.56064 3.72961 9.91065 3.21961 10.4306 3.10961C10.9506 2.99961 11.4706 3.34961 11.5806 3.86961C11.6906 4.39961 11.3406 4.90961 10.8206 5.01961Z" fill="#30A46C"/>
<path d="M9.61057 4.26977C9.50057 3.70977 9.86057 3.14977 10.4306 3.03977C10.9906 2.92977 11.5506 3.28977 11.6606 3.85977C11.7706 4.41977 11.4106 4.97977 10.8406 5.08977C10.2806 5.19977 9.72057 4.83977 9.61057 4.26977ZM11.5206 3.87977C11.4206 3.38977 10.9406 3.06977 10.4506 3.16977C9.96057 3.26977 9.64057 3.74977 9.74057 4.23977C9.84057 4.72977 10.3206 5.04977 10.8106 4.94977C11.3006 4.84977 11.6206 4.36977 11.5206 3.87977Z" fill="#30A46C"/>
<path d="M10.4844 3.93072L6.12402 7.04785L6.44388 7.49528L10.8043 4.37814L10.4844 3.93072Z" fill="#30A46C"/>
<path d="M18.15 1.97003C17.64 1.79003 17.37 1.24003 17.55 0.730029C17.73 0.220029 18.28 -0.0499713 18.79 0.130029C19.3 0.310029 19.57 0.860029 19.39 1.37003C19.21 1.88003 18.66 2.15003 18.15 1.97003Z" fill="#30A46C"/>
<path d="M17.49 0.699795C17.68 0.159795 18.28 -0.130205 18.82 0.0597946C19.36 0.249795 19.65 0.849795 19.46 1.38979C19.27 1.92979 18.67 2.21979 18.13 2.02979C17.59 1.83979 17.3 1.23979 17.49 0.699795ZM19.33 1.34979C19.5 0.879795 19.25 0.359795 18.77 0.189795C18.3 0.0197946 17.78 0.269795 17.61 0.749795C17.44 1.22979 17.69 1.73979 18.17 1.90979C18.64 2.07979 19.16 1.82979 19.33 1.34979Z" fill="#30A46C"/>
<path d="M18.416 0.866162L13.0752 1.31934L13.1217 1.86737L18.4625 1.41419L18.416 0.866162Z" fill="#30A46C"/>
<path d="M27.0799 4.39984C26.7099 4.00984 26.7299 3.38984 27.1199 3.01984C27.5099 2.64984 28.1299 2.66984 28.4999 3.05984C28.8699 3.44984 28.8499 4.06984 28.4599 4.43984C28.0699 4.80984 27.4499 4.78984 27.0799 4.39984Z" fill="#30A46C"/>
<path d="M27.0701 2.96955C27.4901 2.56955 28.1501 2.58955 28.5501 3.00955C28.9501 3.42955 28.9301 4.08955 28.5101 4.48955C28.0901 4.88955 27.4301 4.86955 27.0301 4.44955C26.6301 4.02955 26.6501 3.36955 27.0701 2.96955ZM28.4101 4.38955C28.7701 4.04955 28.7901 3.46955 28.4501 3.10955C28.1101 2.74955 27.5301 2.72955 27.1701 3.06955C26.8101 3.40955 26.7901 3.98955 27.1301 4.34955C27.4701 4.70955 28.0501 4.72955 28.4101 4.38955Z" fill="#30A46C"/>
<path d="M22.8719 1.50622L22.6621 2.01465L27.617 4.05892L27.8267 3.55049L22.8719 1.50622Z" fill="#30A46C"/>
<path d="M34.3605 9.80983C34.2505 9.27983 34.5905 8.76983 35.1205 8.65983C35.6505 8.54983 36.1605 8.88983 36.2705 9.41983C36.3805 9.94983 36.0405 10.4598 35.5105 10.5698C34.9805 10.6798 34.4705 10.3398 34.3605 9.80983Z" fill="#30A46C"/>
<path d="M35.11 8.59001C35.67 8.47001 36.23 8.84001 36.34 9.40001C36.45 9.96001 36.09 10.52 35.53 10.63C34.97 10.74 34.41 10.38 34.3 9.82001C34.19 9.26001 34.55 8.70001 35.11 8.59001ZM35.5 10.5C35.99 10.4 36.31 9.92001 36.21 9.43001C36.11 8.94001 35.63 8.62001 35.14 8.72001C34.65 8.82001 34.33 9.30001 34.43 9.79001C34.53 10.28 35.01 10.6 35.5 10.5Z" fill="#30A46C"/>
<path d="M32.3188 5.12257L31.8721 5.44336L34.9983 9.79722L35.4451 9.47643L32.3188 5.12257Z" fill="#30A46C"/>
<path d="M20.4982 28.0443L20.0811 28.4028L23.3924 32.2553L23.8095 31.8968L20.4982 28.0443Z" fill="#30A46C"/>
<path d="M24.26 6.80957L28.66 9.55957L31.12 13.8296L30.64 14.1096L28.25 9.95957L23.96 7.27957L24.26 6.80957Z" fill="#30A46C"/>
<path d="M32.0012 5.62833L28.1416 9.34766L28.5232 9.74369L32.3828 6.02436L32.0012 5.62833Z" fill="#30A46C"/>
<path d="M27.9888 9.84305L26.2061 14.418L26.7185 14.6177L28.5013 10.0428L27.9888 9.84305Z" fill="#30A46C"/>
<path d="M20.2805 6.57982V7.12982H15.4905L11.0305 9.49982L10.7705 9.00982L15.3505 6.56982L20.2805 6.57982Z" fill="#30A46C"/>
<path d="M14.15 1.57121L13.6162 1.70361L14.9066 6.90598L15.4404 6.77357L14.15 1.57121Z" fill="#30A46C"/>
<path d="M18.2703 11.0496L15.3203 7.40957L15.7503 7.05957L18.8303 10.8596" fill="#30A46C"/>
<path d="M8.58066 12.3398L9.06066 12.6198L6.66066 16.7598L6.49066 21.8098L5.93066 21.7898L6.11066 16.5998L8.58066 12.3398Z" fill="#30A46C"/>
<path d="M1.17959 15.1434L1.02734 15.6719L6.1779 17.1556L6.33014 16.6271L1.17959 15.1434Z" fill="#30A46C"/>
<path d="M11.4662 15.7559L6.36914 16.4922L6.44778 17.0365L11.5449 16.3002L11.4662 15.7559Z" fill="#30A46C"/>
<path d="M8.2007 25.0698L10.5907 29.2198L14.8807 31.8998L14.5807 32.3698L10.1807 29.6198L7.7207 25.3498L8.2007 25.0698Z" fill="#30A46C"/>
<path d="M10.3124 29.4391L6.45215 33.1577L6.83373 33.5538L10.6939 29.8352L10.3124 29.4391Z" fill="#30A46C"/>
<path d="M12.1169 24.574L10.2842 29.4189L10.7986 29.6135L12.6313 24.7686L12.1169 24.574Z" fill="#30A46C"/>
<path d="M18.1414 32.5347L14.7803 36.8882L15.2156 37.2243L18.5767 32.8708L18.1414 32.5347Z" fill="#30A46C"/>
<path d="M14.5806 31.1497C15.0906 30.9697 15.6506 31.2297 15.8306 31.7397C16.0106 32.2497 15.7506 32.8097 15.2406 32.9897C14.7306 33.1697 14.1706 32.9097 13.9906 32.3997C13.8106 31.8897 14.0706 31.3297 14.5806 31.1497Z" fill="#30A46C"/>
<path d="M15.0898 31.0399C15.4498 31.0999 15.7598 31.3499 15.8898 31.7099C15.9798 31.9699 15.9698 32.2599 15.8498 32.5099C15.7298 32.7599 15.5198 32.9499 15.2598 33.0499C14.9998 33.1399 14.7098 33.1299 14.4598 33.0099C14.2098 32.8899 14.0198 32.6799 13.9198 32.4199C13.7298 31.8799 14.0098 31.2799 14.5498 31.0799C14.7298 31.0199 14.9098 30.9999 15.0898 31.0299V31.0399ZM14.7498 32.9599C14.8998 32.9899 15.0598 32.9699 15.2198 32.9199C15.4498 32.8399 15.6298 32.6699 15.7298 32.4499C15.8298 32.2299 15.8398 31.9799 15.7598 31.7599C15.5898 31.2899 15.0698 31.0399 14.5998 31.2099C14.1298 31.3799 13.8798 31.8999 14.0498 32.3699C14.1298 32.5999 14.2998 32.7799 14.5198 32.8799C14.5898 32.9099 14.6698 32.9399 14.7498 32.9499V32.9599Z" fill="#30A46C"/>
<path d="M10.2202 28.5897C10.7302 28.4097 11.2902 28.6697 11.4702 29.1797C11.6502 29.6897 11.3902 30.2497 10.8802 30.4297C10.3702 30.6097 9.81021 30.3497 9.63021 29.8397C9.45021 29.3297 9.71021 28.7697 10.2202 28.5897Z" fill="#30A46C"/>
<path d="M10.7304 28.4798C11.0904 28.5398 11.4004 28.7898 11.5304 29.1498C11.7204 29.6898 11.4404 30.2898 10.9004 30.4898C10.6404 30.5798 10.3504 30.5698 10.1004 30.4498C9.85045 30.3298 9.66045 30.1198 9.56045 29.8598C9.37045 29.3198 9.65045 28.7198 10.1904 28.5198C10.3704 28.4598 10.5504 28.4398 10.7304 28.4698V28.4798ZM10.3904 30.3998C10.5404 30.4298 10.7004 30.4098 10.8604 30.3598C11.0904 30.2798 11.2704 30.1098 11.3704 29.8898C11.4704 29.6698 11.4804 29.4198 11.4004 29.1998C11.2304 28.7298 10.7104 28.4798 10.2404 28.6498C9.77045 28.8198 9.52045 29.3398 9.69045 29.8098C9.77045 30.0398 9.94045 30.2198 10.1604 30.3198C10.2304 30.3498 10.3104 30.3798 10.3904 30.3898V30.3998Z" fill="#30A46C"/>
<path d="M7.56006 24.3197C8.07006 24.1397 8.63006 24.3997 8.81006 24.9097C8.99006 25.4197 8.73006 25.9797 8.22006 26.1597C7.71006 26.3397 7.15006 26.0797 6.97006 25.5697C6.79006 25.0597 7.05006 24.4997 7.56006 24.3197Z" fill="#30A46C"/>
<path d="M8.07069 24.2098C8.16069 24.2298 8.25069 24.2498 8.33069 24.2898C8.58069 24.4098 8.77069 24.6198 8.87069 24.8798C8.96069 25.1398 8.95069 25.4298 8.83069 25.6798C8.71069 25.9298 8.50069 26.1198 8.24069 26.2198C7.70069 26.4098 7.10069 26.1298 6.90069 25.5898C6.81069 25.3298 6.82069 25.0398 6.94069 24.7898C7.06069 24.5398 7.27069 24.3498 7.53069 24.2498C7.70069 24.1898 7.89069 24.1698 8.07069 24.1998V24.2098ZM7.73069 26.1298C7.88069 26.1598 8.04069 26.1498 8.20069 26.0898C8.43069 26.0098 8.61069 25.8398 8.71069 25.6198C8.81069 25.3998 8.82069 25.1498 8.74069 24.9298C8.66069 24.6998 8.49069 24.5198 8.27069 24.4198C8.05069 24.3198 7.80069 24.3098 7.58069 24.3898C7.35069 24.4698 7.17069 24.6398 7.07069 24.8598C6.97069 25.0798 6.96069 25.3298 7.04069 25.5498C7.15069 25.8698 7.42069 26.0798 7.73069 26.1398V26.1298Z" fill="#30A46C"/>
<path d="M11.9702 23.89C12.4802 23.71 13.0402 23.97 13.2202 24.48C13.4002 24.99 13.1402 25.55 12.6302 25.73C12.1202 25.91 11.5602 25.65 11.3802 25.14C11.2002 24.63 11.4602 24.07 11.9702 23.89Z" fill="#30A46C"/>
<path d="M12.4804 23.7796C12.8404 23.8396 13.1504 24.0896 13.2804 24.4496C13.3704 24.7096 13.3604 24.9996 13.2404 25.2496C13.1204 25.4996 12.9104 25.6896 12.6504 25.7896C12.1104 25.9896 11.5104 25.6996 11.3104 25.1596C11.1204 24.6196 11.4004 24.0196 11.9404 23.8196C12.1204 23.7596 12.3004 23.7396 12.4804 23.7696V23.7796ZM12.1404 25.6996C12.2904 25.7296 12.4504 25.7196 12.6104 25.6596C12.8404 25.5796 13.0204 25.4096 13.1204 25.1896C13.2204 24.9696 13.2304 24.7196 13.1504 24.4996C12.9804 24.0296 12.4604 23.7796 11.9904 23.9496C11.5204 24.1196 11.2704 24.6396 11.4404 25.1096C11.5504 25.4296 11.8304 25.6396 12.1304 25.6996H12.1404Z" fill="#30A46C"/>
<path d="M6.3501 32.5296C6.8601 32.3496 7.4201 32.6096 7.6001 33.1196C7.7801 33.6296 7.5201 34.1896 7.0101 34.3696C6.5001 34.5496 5.9401 34.2896 5.7601 33.7796C5.5801 33.2696 5.8401 32.7096 6.3501 32.5296Z" fill="#30A46C"/>
<path d="M6.85975 32.4198C6.94975 32.4398 7.03975 32.4598 7.11975 32.4998C7.36975 32.6198 7.55975 32.8298 7.65975 33.0898C7.74975 33.3498 7.73975 33.6398 7.61975 33.8898C7.49975 34.1398 7.28975 34.3298 7.02975 34.4298C6.48975 34.6298 5.88975 34.3398 5.68975 33.7998C5.59975 33.5398 5.60975 33.2498 5.72975 32.9998C5.84975 32.7498 6.05975 32.5598 6.31975 32.4598C6.48975 32.3998 6.67975 32.3798 6.85975 32.4098V32.4198ZM6.51975 34.3398C6.66975 34.3698 6.82975 34.3598 6.98975 34.2998C7.21975 34.2198 7.39975 34.0498 7.49975 33.8298C7.59975 33.6098 7.60975 33.3598 7.52975 33.1398C7.44975 32.9098 7.27975 32.7298 7.05975 32.6298C6.83975 32.5298 6.58975 32.5198 6.36975 32.5998C6.13975 32.6798 5.95975 32.8498 5.85975 33.0698C5.75975 33.2898 5.74975 33.5398 5.82975 33.7598C5.93975 34.0798 6.20975 34.2898 6.51975 34.3498V34.3398Z" fill="#30A46C"/>
<path d="M2.09003 23.3199C2.60003 23.1599 3.15003 23.4399 3.32003 23.9499C3.49003 24.4599 3.20003 25.0099 2.69003 25.1799C2.18003 25.3399 1.63003 25.0599 1.46003 24.5499C1.30003 24.0399 1.58003 23.4899 2.09003 23.3199Z" fill="#30A46C"/>
<path d="M2.5706 23.2197C2.6706 23.2397 2.7706 23.2697 2.8606 23.3197C3.1106 23.4497 3.2906 23.6597 3.3806 23.9297C3.5606 24.4797 3.2506 25.0697 2.7106 25.2397C2.4406 25.3297 2.1606 25.2997 1.9106 25.1697C1.6606 25.0397 1.4806 24.8297 1.3906 24.5597C1.3006 24.2897 1.3306 24.0097 1.4606 23.7597C1.5906 23.5097 1.8006 23.3297 2.0706 23.2397C2.2406 23.1897 2.4106 23.1797 2.5706 23.2097V23.2197ZM2.2306 25.1397C2.3706 25.1697 2.5206 25.1597 2.6706 25.1097C3.1506 24.9597 3.4106 24.4497 3.2606 23.9697C3.1906 23.7397 3.0306 23.5497 2.8106 23.4397C2.6006 23.3297 2.3506 23.3097 2.1206 23.3797C1.8906 23.4497 1.7006 23.6097 1.5906 23.8297C1.4806 24.0497 1.4606 24.2897 1.5306 24.5197C1.6006 24.7497 1.7606 24.9397 1.9806 25.0497C2.0606 25.0897 2.1506 25.1197 2.2306 25.1397Z" fill="#30A46C"/>
<path d="M2.53518 23.9475L2.44336 24.4897L7.86618 25.4079L7.95799 24.8656L2.53518 23.9475Z" fill="#30A46C"/>
<path d="M6.98011 21.1799C7.39011 21.5299 7.44011 22.1399 7.09011 22.5499C6.74011 22.9599 6.13011 23.0099 5.72011 22.6599C5.31011 22.3099 5.26011 21.6999 5.61011 21.2899C5.96011 20.8799 6.57011 20.8299 6.98011 21.1799Z" fill="#30A46C"/>
<path d="M6.54033 20.8896C6.72033 20.9196 6.89033 20.9996 7.03033 21.1196C7.24033 21.2996 7.37033 21.5496 7.40033 21.8296C7.42033 22.1096 7.34033 22.3796 7.16033 22.5896C6.79033 23.0296 6.13033 23.0796 5.69033 22.7096C5.25033 22.3396 5.20033 21.6796 5.57033 21.2396C5.75033 21.0296 6.00033 20.8996 6.28033 20.8696C6.37033 20.8696 6.46033 20.8696 6.55033 20.8796L6.54033 20.8896ZM6.19033 22.8096C6.50033 22.8696 6.83033 22.7596 7.04033 22.4996C7.20033 22.3196 7.27033 22.0796 7.25033 21.8396C7.23033 21.5996 7.12033 21.3796 6.93033 21.2196C6.75033 21.0596 6.51033 20.9896 6.27033 21.0096C6.03033 21.0296 5.81033 21.1396 5.65033 21.3296C5.33033 21.7096 5.38033 22.2796 5.76033 22.6096C5.89033 22.7196 6.03033 22.7796 6.18033 22.8096H6.19033Z" fill="#30A46C"/>
<path d="M7.02014 16.1199C7.43014 16.4699 7.48014 17.0799 7.13014 17.4899C6.78014 17.8999 6.17014 17.9499 5.76014 17.5999C5.35014 17.2499 5.30014 16.6399 5.65014 16.2299C6.00014 15.8199 6.61014 15.7699 7.02014 16.1199Z" fill="#30A46C"/>
<path d="M6.58042 15.84C6.75042 15.87 6.92042 15.95 7.07042 16.07C7.28042 16.25 7.41042 16.5 7.44042 16.78C7.46042 17.06 7.38042 17.33 7.20042 17.54C7.02042 17.75 6.77042 17.88 6.49042 17.91C6.21042 17.93 5.94042 17.85 5.73042 17.67C5.52042 17.49 5.39042 17.24 5.36042 16.96C5.34042 16.68 5.42042 16.41 5.60042 16.2C5.85042 15.9 6.23042 15.78 6.58042 15.85V15.84ZM6.98042 16.18C6.60042 15.86 6.03042 15.91 5.70042 16.29C5.54042 16.47 5.47042 16.71 5.49042 16.95C5.51042 17.19 5.62042 17.41 5.81042 17.57C5.99042 17.73 6.23042 17.8 6.47042 17.78C6.71042 17.76 6.93042 17.65 7.09042 17.46C7.25042 17.28 7.32042 17.04 7.30042 16.8C7.28042 16.56 7.17042 16.34 6.98042 16.18Z" fill="#30A46C"/>
<path d="M9.39026 11.6799C9.80026 12.0299 9.85026 12.6399 9.50026 13.0499C9.15026 13.4599 8.54026 13.5099 8.13026 13.1599C7.72026 12.8099 7.67026 12.1999 8.02026 11.7899C8.37026 11.3799 8.98026 11.3299 9.39026 11.6799Z" fill="#30A46C"/>
<path d="M8.9498 11.3999C9.1298 11.4299 9.2998 11.5099 9.4398 11.6299C9.8798 11.9999 9.9398 12.6599 9.5598 13.0999C9.1898 13.5399 8.5298 13.5999 8.0898 13.2199C7.8798 13.0399 7.7498 12.7899 7.7198 12.5099C7.6998 12.2299 7.7798 11.9599 7.9598 11.7499C8.1398 11.5399 8.3898 11.4099 8.6698 11.3799C8.7598 11.3799 8.8498 11.3799 8.9398 11.3899L8.9498 11.3999ZM8.5998 13.3199C8.9098 13.3799 9.2398 13.2699 9.4498 13.0099C9.7698 12.6299 9.7298 12.0599 9.3398 11.7299C9.1598 11.5699 8.9198 11.4999 8.6798 11.5199C8.4398 11.5399 8.2198 11.6499 8.0598 11.8399C7.8998 12.0199 7.8298 12.2599 7.8498 12.4999C7.8698 12.7399 7.9798 12.9599 8.1698 13.1199C8.2998 13.2299 8.4398 13.2899 8.5898 13.3199H8.5998Z" fill="#30A46C"/>
<path d="M11.9606 15.2898C12.3706 15.6398 12.4206 16.2498 12.0706 16.6598C11.7206 17.0698 11.1106 17.1198 10.7006 16.7698C10.2906 16.4198 10.2406 15.8098 10.5906 15.3998C10.9406 14.9898 11.5506 14.9398 11.9606 15.2898Z" fill="#30A46C"/>
<path d="M11.52 15C11.7 15.03 11.87 15.11 12.01 15.23C12.22 15.41 12.35 15.66 12.38 15.94C12.4 16.22 12.32 16.49 12.14 16.7C11.77 17.14 11.11 17.19 10.67 16.82C10.23 16.45 10.17 15.79 10.55 15.35C10.73 15.14 10.98 15.01 11.26 14.98C11.35 14.98 11.44 14.98 11.53 14.99L11.52 15ZM11.17 16.92C11.48 16.98 11.81 16.87 12.02 16.61C12.18 16.43 12.25 16.19 12.23 15.95C12.21 15.71 12.1 15.49 11.91 15.33C11.73 15.17 11.49 15.1 11.25 15.12C11.01 15.14 10.79 15.25 10.63 15.44C10.31 15.82 10.35 16.39 10.74 16.72C10.87 16.83 11.01 16.89 11.16 16.92H11.17Z" fill="#30A46C"/>
<path d="M1.67053 14.74C2.08053 15.09 2.13053 15.7 1.78053 16.11C1.43053 16.52 0.820535 16.57 0.410535 16.22C0.000534892 15.87 -0.0494651 15.26 0.300535 14.85C0.650535 14.44 1.26053 14.39 1.67053 14.74Z" fill="#30A46C"/>
<path d="M1.23022 14.4596C1.40022 14.4896 1.57022 14.5696 1.72022 14.6896C2.16022 15.0596 2.21022 15.7196 1.84022 16.1596C1.66022 16.3696 1.41022 16.4996 1.13022 16.5296C0.850218 16.5496 0.580218 16.4696 0.370218 16.2896C-0.0697821 15.9196 -0.129782 15.2596 0.250218 14.8196C0.500218 14.5196 0.880218 14.3996 1.23022 14.4696V14.4596ZM1.63022 14.7996C1.25022 14.4796 0.680218 14.5196 0.350218 14.9096C0.190218 15.0896 0.120218 15.3296 0.140218 15.5696C0.160218 15.8096 0.270218 16.0296 0.460218 16.1896C0.640218 16.3496 0.880218 16.4196 1.12022 16.3996C1.36022 16.3796 1.58022 16.2696 1.74022 16.0796C2.06022 15.6996 2.01022 15.1296 1.63022 14.7996Z" fill="#30A46C"/>
<path d="M7.28987 6.55C7.69987 6.9 7.73987 7.52 7.37987 7.93C7.02987 8.34 6.40987 8.38001 5.99987 8.02C5.58987 7.66 5.54987 7.05 5.90987 6.64C6.26987 6.23 6.87987 6.19 7.28987 6.55Z" fill="#30A46C"/>
<path d="M6.84037 6.24975C7.02037 6.27975 7.19037 6.36975 7.34037 6.48975C7.55037 6.66975 7.68037 6.92975 7.70037 7.20975C7.72037 7.48975 7.63037 7.75975 7.45037 7.96975C7.07037 8.39975 6.41037 8.44975 5.98037 8.06975C5.55037 7.68975 5.50037 7.02975 5.88037 6.59975C6.06037 6.38975 6.32037 6.25975 6.60037 6.23975C6.69037 6.23975 6.77037 6.23975 6.86037 6.24975H6.84037ZM6.49037 8.16975C6.79037 8.21975 7.12037 8.11975 7.34037 7.86975C7.50037 7.68975 7.58037 7.44975 7.56037 7.20975C7.54037 6.96975 7.43037 6.74975 7.25037 6.58975C7.07037 6.42975 6.83037 6.34975 6.59037 6.36975C6.35037 6.38975 6.13037 6.49975 5.97037 6.67975C5.64037 7.05975 5.68037 7.62975 6.06037 7.95975C6.19037 8.06975 6.34037 8.13975 6.49037 8.16975Z" fill="#30A46C"/>
<path d="M6.97476 7.24654L6.46289 7.44775L8.47507 12.5665L8.98694 12.3652L6.97476 7.24654Z" fill="#30A46C"/>
<path d="M10.8706 10.42C11.4119 10.42 11.8506 9.9812 11.8506 9.43996C11.8506 8.89872 11.4119 8.45996 10.8706 8.45996C10.3294 8.45996 9.89062 8.89872 9.89062 9.43996C9.89062 9.9812 10.3294 10.42 10.8706 10.42Z" fill="#30A46C"/>
<path d="M11.0499 8.41002C11.6199 8.51002 11.9899 9.06002 11.8899 9.62002C11.7899 10.18 11.2399 10.56 10.6799 10.46C10.1199 10.36 9.7299 9.81002 9.8399 9.25002C9.9499 8.69002 10.4899 8.31002 11.0499 8.41002ZM10.6999 10.33C11.1899 10.42 11.6599 10.09 11.7499 9.60003C11.8399 9.11003 11.5099 8.64003 11.0199 8.55003C10.5299 8.46003 10.0599 8.79002 9.9699 9.28002C9.8799 9.77002 10.2099 10.24 10.6999 10.33Z" fill="#30A46C"/>
<path d="M15.27 7.92973C15.8113 7.92973 16.25 7.49097 16.25 6.94973C16.25 6.40849 15.8113 5.96973 15.27 5.96973C14.7288 5.96973 14.29 6.40849 14.29 6.94973C14.29 7.49097 14.7288 7.92973 15.27 7.92973Z" fill="#30A46C"/>
<path d="M15.4506 5.91979C16.0206 6.01979 16.3906 6.56979 16.2906 7.12979C16.1906 7.68979 15.6406 8.06979 15.0806 7.96979C14.5206 7.86979 14.1406 7.31979 14.2406 6.75979C14.3406 6.19979 14.8906 5.81979 15.4506 5.91979ZM15.1006 7.83979C15.5906 7.92979 16.0606 7.59979 16.1506 7.10979C16.2406 6.61979 15.9106 6.14979 15.4206 6.05979C14.9306 5.96979 14.4606 6.29979 14.3706 6.78979C14.2806 7.27979 14.6106 7.74979 15.1006 7.83979Z" fill="#30A46C"/>
<path d="M21.2505 6.94976C21.1505 7.47976 20.6505 7.82976 20.1205 7.73976C19.5905 7.64976 19.2405 7.13976 19.3305 6.60976C19.4205 6.07976 19.9305 5.72976 20.4605 5.81976C20.9905 5.90976 21.3405 6.41976 21.2505 6.94976Z" fill="#30A46C"/>
<path d="M20.4799 5.74987C21.0499 5.84987 21.4199 6.39987 21.3199 6.95987C21.2199 7.51987 20.6699 7.89987 20.1099 7.79987C19.5499 7.69987 19.1699 7.14987 19.2699 6.58987C19.3699 6.02987 19.9199 5.64987 20.4799 5.74987ZM20.1299 7.66987C20.6199 7.75987 21.0899 7.42987 21.1799 6.93987C21.2699 6.44987 20.9399 5.97987 20.4499 5.88987C19.9599 5.79987 19.4899 6.12987 19.3999 6.61987C19.3099 7.10987 19.6399 7.57987 20.1299 7.66987Z" fill="#30A46C"/>
<path d="M18.4605 11.7896C19.0017 11.7896 19.4405 11.3508 19.4405 10.8096C19.4405 10.2684 19.0017 9.82959 18.4605 9.82959C17.9192 9.82959 17.4805 10.2684 17.4805 10.8096C17.4805 11.3508 17.9192 11.7896 18.4605 11.7896Z" fill="#30A46C"/>
<path d="M18.64 9.77965C19.21 9.87965 19.58 10.4297 19.48 10.9897C19.38 11.5497 18.83 11.9297 18.27 11.8297C17.71 11.7297 17.33 11.1797 17.43 10.6197C17.53 10.0597 18.08 9.67965 18.64 9.77965ZM18.29 11.6997C18.78 11.7897 19.25 11.4597 19.34 10.9697C19.43 10.4797 19.1 10.0097 18.61 9.91965C18.12 9.82965 17.65 10.1597 17.56 10.6497C17.47 11.1397 17.8 11.6097 18.29 11.6997Z" fill="#30A46C"/>
<path d="M23.4107 14.7198C23.3107 15.2498 22.8107 15.5998 22.2807 15.5098C21.7507 15.4198 21.4007 14.9098 21.4907 14.3798C21.5807 13.8498 22.0907 13.4998 22.6207 13.5898C23.1507 13.6798 23.5007 14.1898 23.4107 14.7198Z" fill="#30A46C"/>
<path d="M22.64 13.5199C23.21 13.6199 23.58 14.1699 23.48 14.7299C23.38 15.2899 22.83 15.6699 22.27 15.5699C21.71 15.4699 21.33 14.9199 21.43 14.3599C21.53 13.7999 22.08 13.4199 22.64 13.5199ZM22.29 15.4399C22.78 15.5299 23.25 15.1999 23.34 14.7099C23.43 14.2199 23.1 13.7499 22.61 13.6599C22.12 13.5699 21.65 13.8999 21.56 14.3899C21.47 14.8799 21.8 15.3499 22.29 15.4399Z" fill="#30A46C"/>
<path d="M14.7505 1.79986C14.6505 2.32986 14.1505 2.67986 13.6205 2.58986C13.0905 2.49986 12.7405 1.98986 12.8305 1.45986C12.9205 0.92986 13.4305 0.57986 13.9605 0.66986C14.4905 0.75986 14.8405 1.26986 14.7505 1.79986Z" fill="#30A46C"/>
<path d="M13.9701 0.599966C14.5401 0.699966 14.9101 1.24997 14.8101 1.80997C14.7101 2.36997 14.1601 2.74997 13.6001 2.64997C13.0401 2.54997 12.6601 1.99997 12.7601 1.43997C12.8601 0.879966 13.4101 0.499966 13.9701 0.599966ZM13.6201 2.51997C14.1101 2.60997 14.5801 2.27997 14.6701 1.78997C14.7601 1.29997 14.4301 0.829966 13.9401 0.739966C13.4501 0.649966 12.9801 0.979966 12.8901 1.46997C12.8001 1.95997 13.1301 2.42997 13.6201 2.51997Z" fill="#30A46C"/>
<path d="M23.8204 1.82961C23.8204 2.36961 23.3804 2.80961 22.8404 2.80961C22.3004 2.80961 21.8604 2.36961 21.8604 1.82961C21.8604 1.28961 22.3004 0.849609 22.8404 0.849609C23.3804 0.849609 23.8204 1.28961 23.8204 1.82961Z" fill="#30A46C"/>
<path d="M23.03 0.799551C23.52 0.889551 23.89 1.31955 23.89 1.82955C23.89 2.10955 23.78 2.36955 23.58 2.56955C23.38 2.76955 23.12 2.87955 22.84 2.87955C22.56 2.87955 22.3 2.76955 22.1 2.56955C21.9 2.36955 21.79 2.10955 21.79 1.82955C21.79 1.24955 22.26 0.789551 22.84 0.789551C22.9 0.789551 22.97 0.789551 23.03 0.809551V0.799551ZM22.68 2.71955C22.73 2.71955 22.79 2.72955 22.84 2.72955C23.08 2.72955 23.31 2.63955 23.48 2.45955C23.65 2.28955 23.75 2.05955 23.75 1.81955C23.75 1.31955 23.34 0.909551 22.84 0.909551C22.34 0.909551 21.93 1.31955 21.93 1.81955C21.93 2.05955 22.02 2.28955 22.2 2.45955C22.33 2.58955 22.5 2.67955 22.68 2.70955V2.71955Z" fill="#30A46C"/>
<path d="M22.5993 1.79483L20.0605 6.67383L20.5484 6.9277L23.0872 2.0487L22.5993 1.79483Z" fill="#30A46C"/>
<path d="M24.2601 8.02978C23.7501 8.20978 23.1901 7.94978 23.0101 7.43978C22.8301 6.92978 23.0901 6.36978 23.6001 6.18978C24.1101 6.00978 24.6701 6.26978 24.8501 6.77978C25.0301 7.28978 24.7701 7.84978 24.2601 8.02978Z" fill="#30A46C"/>
<path d="M24.1205 6.07994C24.4805 6.13994 24.7905 6.38994 24.9205 6.74994C25.1105 7.28994 24.8305 7.88994 24.2905 8.08994C23.7505 8.27994 23.1505 7.99994 22.9505 7.45994C22.8605 7.19994 22.8705 6.90993 22.9905 6.65993C23.1105 6.40993 23.3205 6.21994 23.5805 6.11994C23.7605 6.05994 23.9405 6.03994 24.1205 6.06994V6.07994ZM24.2405 7.95994C24.7105 7.78994 24.9605 7.26994 24.7905 6.79994C24.6205 6.32994 24.1005 6.07994 23.6305 6.24994C23.4005 6.32994 23.2205 6.49993 23.1205 6.71993C23.0205 6.93993 23.0105 7.18993 23.0905 7.40993C23.2605 7.87993 23.7805 8.11994 24.2505 7.95994H24.2405Z" fill="#30A46C"/>
<path d="M28.6204 10.5898C28.1104 10.7698 27.5504 10.5098 27.3704 9.99984C27.1904 9.48984 27.4504 8.92984 27.9604 8.74984C28.4704 8.56984 29.0304 8.82984 29.2104 9.33984C29.3904 9.84984 29.1304 10.4098 28.6204 10.5898Z" fill="#30A46C"/>
<path d="M28.4799 8.63999C28.5699 8.65999 28.6599 8.67999 28.7399 8.71999C28.9899 8.83999 29.1799 9.04999 29.2799 9.30999C29.4699 9.84999 29.1899 10.45 28.6499 10.65C28.1099 10.85 27.5099 10.56 27.3099 10.02C27.2199 9.75999 27.2299 9.46999 27.3499 9.21999C27.4699 8.96999 27.6799 8.77999 27.9399 8.67999C28.1099 8.61999 28.2999 8.59999 28.4799 8.62999V8.63999ZM28.5999 10.52C29.0699 10.35 29.3199 9.82999 29.1499 9.35999C29.0699 9.12999 28.8999 8.94999 28.6799 8.84999C28.4599 8.74999 28.2099 8.72999 27.9899 8.81999C27.7599 8.89999 27.5799 9.06999 27.4799 9.28999C27.3799 9.50999 27.3699 9.75999 27.4499 9.97999C27.6199 10.45 28.1399 10.7 28.6099 10.53L28.5999 10.52Z" fill="#30A46C"/>
<path d="M31.2806 14.8599C30.7706 15.0399 30.2106 14.7799 30.0306 14.2699C29.8506 13.7599 30.1106 13.1999 30.6206 13.0199C31.1306 12.8399 31.6906 13.0999 31.8706 13.6099C32.0506 14.1199 31.7906 14.6799 31.2806 14.8599Z" fill="#30A46C"/>
<path d="M31.14 12.91C31.23 12.93 31.32 12.95 31.4 12.99C31.65 13.11 31.84 13.32 31.94 13.58C32.04 13.84 32.02 14.13 31.9 14.38C31.78 14.63 31.57 14.82 31.31 14.92C30.77 15.11 30.17 14.83 29.97 14.29C29.88 14.03 29.89 13.74 30.01 13.49C30.13 13.24 30.34 13.05 30.6 12.95C30.77 12.89 30.96 12.87 31.14 12.9V12.91ZM30.8 14.83C30.95 14.86 31.11 14.85 31.27 14.79C31.5 14.71 31.68 14.54 31.78 14.32C31.88 14.1 31.89 13.85 31.81 13.63C31.73 13.4 31.56 13.22 31.34 13.12C31.12 13.02 30.87 13 30.65 13.09C30.42 13.17 30.24 13.34 30.14 13.56C30.04 13.78 30.03 14.03 30.11 14.25C30.22 14.57 30.49 14.78 30.8 14.84V14.83Z" fill="#30A46C"/>
<path d="M27.0599 14.6997C26.5499 14.8797 25.9899 14.6197 25.8099 14.1097C25.6299 13.5997 25.8899 13.0397 26.3999 12.8597C26.9099 12.6797 27.4699 12.9397 27.6499 13.4497C27.8299 13.9597 27.5699 14.5197 27.0599 14.6997Z" fill="#30A46C"/>
<path d="M26.9101 12.7499C27.2701 12.8099 27.5801 13.0599 27.7101 13.4199C27.8001 13.6799 27.7901 13.9699 27.6701 14.2199C27.5501 14.4699 27.3401 14.6599 27.0801 14.7599C26.5401 14.9599 25.9401 14.6699 25.7401 14.1299C25.5501 13.5899 25.8301 12.9899 26.3701 12.7899C26.5501 12.7299 26.7301 12.7099 26.9101 12.7399V12.7499ZM26.5701 14.6699C26.7201 14.6999 26.8801 14.6899 27.0401 14.6299C27.2701 14.5499 27.4501 14.3799 27.5501 14.1599C27.6501 13.9399 27.6601 13.6899 27.5801 13.4699C27.4101 12.9999 26.8901 12.7499 26.4201 12.9199C25.9501 13.0899 25.7001 13.6099 25.8701 14.0799C25.9801 14.3999 26.2601 14.6099 26.5601 14.6699H26.5701Z" fill="#30A46C"/>
<path d="M32.4906 6.6499C31.9806 6.8299 31.4206 6.5699 31.2406 6.0599C31.0606 5.5499 31.3206 4.9899 31.8306 4.8099C32.3406 4.6299 32.9006 4.8899 33.0806 5.3999C33.2606 5.9099 33.0006 6.4699 32.4906 6.6499Z" fill="#30A46C"/>
<path d="M32.3506 4.69956C32.4406 4.71956 32.5306 4.73956 32.6106 4.77956C32.8606 4.89956 33.0506 5.10956 33.1506 5.36956C33.3406 5.90956 33.0606 6.50956 32.5206 6.70956C31.9806 6.90956 31.3806 6.61956 31.1806 6.07956C30.9906 5.53956 31.2706 4.93956 31.8106 4.73956C31.9806 4.67956 32.1706 4.65956 32.3506 4.68956V4.69956ZM32.4706 6.57956C32.9406 6.40956 33.1906 5.88956 33.0206 5.41956C32.9406 5.18956 32.7706 5.00956 32.5506 4.90956C32.3306 4.80956 32.0806 4.79956 31.8606 4.87956C31.6306 4.95956 31.4506 5.12956 31.3506 5.34956C31.2506 5.56956 31.2406 5.81956 31.3206 6.03956C31.4906 6.50956 32.0106 6.75956 32.4806 6.58956L32.4706 6.57956Z" fill="#30A46C"/>
<path d="M37.0001 14.6799C36.5201 14.9299 35.9301 14.7499 35.6801 14.2799C35.4301 13.8099 35.6101 13.2099 36.0801 12.9599C36.5501 12.7099 37.1501 12.8899 37.4001 13.3599C37.6501 13.8399 37.4701 14.4299 37.0001 14.6799Z" fill="#30A46C"/>
<path d="M36.7307 12.7896C37.0307 12.8396 37.3107 13.0296 37.4707 13.3296C37.7407 13.8396 37.5507 14.4696 37.0407 14.7396C36.7907 14.8696 36.5107 14.8996 36.2407 14.8196C35.9707 14.7396 35.7507 14.5596 35.6207 14.3096C35.3507 13.7996 35.5407 13.1696 36.0507 12.8996C36.2707 12.7896 36.5007 12.7496 36.7307 12.7896ZM36.3907 14.7096C36.5907 14.7496 36.7907 14.7096 36.9807 14.6196C37.4207 14.3796 37.5907 13.8296 37.3507 13.3896C37.1107 12.9496 36.5607 12.7796 36.1207 13.0196C35.6807 13.2596 35.5107 13.8096 35.7507 14.2496C35.8607 14.4596 36.0507 14.6196 36.2907 14.6896C36.3207 14.6996 36.3607 14.7096 36.3907 14.7196V14.7096Z" fill="#30A46C"/>
<path d="M36.4499 13.5919L30.9502 13.6533L30.9563 14.2033L36.456 14.1419L36.4499 13.5919Z" fill="#30A46C"/>
<path d="M18.7813 10.5211L18.3945 10.9121L22.07 14.548L22.4568 14.157L18.7813 10.5211Z" fill="#30A46C"/>
<path d="M17.8805 20.1301H23.0105C23.0205 20.9001 22.9005 21.6101 22.6605 22.2701C22.4205 22.9201 22.0705 23.4901 21.6305 23.9701C21.1805 24.4501 20.6505 24.8201 20.0305 25.0901C19.4105 25.3601 18.7205 25.4901 17.9705 25.4901C17.4705 25.4901 16.9905 25.4301 16.5305 25.3001C16.0705 25.1801 15.6405 25.0001 15.2405 24.7701C14.8405 24.5401 14.4705 24.2701 14.1405 23.9401C13.8105 23.6201 13.5305 23.2601 13.3005 22.8701C13.0705 22.4801 12.8905 22.0501 12.7605 21.6001C12.6305 21.1501 12.5605 20.6801 12.5605 20.1901C12.5605 19.7001 12.6205 19.2201 12.7605 18.7601C12.8905 18.3001 13.0705 17.8801 13.3005 17.4901C13.5305 17.1001 13.8105 16.7401 14.1405 16.4201C14.4705 16.1001 14.8405 15.8201 15.2405 15.5901C15.6405 15.3601 16.0705 15.1901 16.5305 15.0601C16.9905 14.9401 17.4705 14.8701 17.9705 14.8701C18.7305 14.8701 19.4405 15.0101 20.1105 15.2801C20.7805 15.5501 21.3905 15.9801 21.9405 16.5501L21.3405 17.1301C21.1505 16.9201 20.9405 16.7301 20.7105 16.5501C20.4805 16.3701 20.2105 16.2101 19.9305 16.0801C19.6405 15.9501 19.3405 15.8401 19.0105 15.7701C18.6805 15.6901 18.3405 15.6601 17.9805 15.6601C17.3505 15.6601 16.7705 15.7801 16.2105 16.0101C15.6605 16.2401 15.1805 16.5601 14.7705 16.9701C14.3605 17.3801 14.0405 17.8601 13.8005 18.4101C13.5605 18.9601 13.4405 19.5501 13.4405 20.1901C13.4405 20.8301 13.5605 21.4101 13.8005 21.9601C14.0405 22.5101 14.3605 22.9901 14.7705 23.3901C15.1805 23.8001 15.6605 24.1101 16.2105 24.3501C16.7605 24.5801 17.3505 24.7001 17.9805 24.7001C18.6105 24.7001 19.1305 24.6001 19.6305 24.4101C20.1205 24.2201 20.5505 23.9501 20.9005 23.6101C21.2605 23.2701 21.5405 22.8601 21.7505 22.3901C21.9605 21.9201 22.0905 21.4001 22.1405 20.8301H17.8805V20.1401V20.1301Z" fill="white"/>
<path d="M29.041 18.4802H28.271C27.851 18.4802 27.461 18.5402 27.111 18.6702C26.761 18.8002 26.451 18.9802 26.201 19.2302C25.951 19.4802 25.751 19.7902 25.611 20.1602C25.471 20.5302 25.401 20.9602 25.401 21.4502V25.2902H24.541V17.6902H25.281L25.371 19.1502C25.501 18.9402 25.661 18.7402 25.851 18.5602C26.041 18.3802 26.251 18.2202 26.501 18.0902C26.751 17.9602 27.011 17.8602 27.311 17.7902C27.601 17.7202 27.921 17.6802 28.261 17.6802H29.061V18.4702L29.041 18.4802Z" fill="white"/>
<path d="M29.3408 21.49C29.3408 20.94 29.4408 20.41 29.6508 19.93C29.8608 19.44 30.1408 19.02 30.5108 18.66C30.8808 18.3 31.3008 18.02 31.8008 17.81C32.2908 17.6 32.8308 17.5 33.4108 17.5C33.7808 17.5 34.1208 17.55 34.4608 17.64C34.7908 17.73 35.1008 17.85 35.3908 18.01C35.6808 18.17 35.9308 18.35 36.1608 18.57C36.3908 18.79 36.5808 19.02 36.7408 19.27L36.8108 17.71H37.5808V25.31H36.8108L36.7408 23.76C36.5808 24.01 36.3808 24.24 36.1508 24.45C35.9208 24.66 35.6608 24.85 35.3808 25.01C35.0908 25.17 34.7908 25.29 34.4608 25.38C34.1308 25.47 33.7808 25.52 33.4208 25.52C32.8408 25.52 32.3108 25.42 31.8108 25.21C31.3108 25 30.8908 24.72 30.5208 24.36C30.1608 24 29.8708 23.58 29.6608 23.09C29.4508 22.6 29.3508 22.08 29.3508 21.52L29.3408 21.49ZM30.2108 21.49C30.2108 21.95 30.3008 22.38 30.4708 22.77C30.6408 23.17 30.8708 23.51 31.1708 23.8C31.4708 24.09 31.8108 24.32 32.2108 24.48C32.6108 24.64 33.0308 24.72 33.4808 24.72C33.9308 24.72 34.3508 24.64 34.7508 24.48C35.1508 24.32 35.4908 24.09 35.7908 23.8C36.0908 23.51 36.3208 23.17 36.4908 22.78C36.6608 22.39 36.7508 21.96 36.7508 21.49C36.7508 21.02 36.6608 20.61 36.4908 20.21C36.3208 19.81 36.0808 19.47 35.7908 19.19C35.4908 18.9 35.1508 18.68 34.7508 18.51C34.3508 18.34 33.9308 18.26 33.4808 18.26C33.0308 18.26 32.6108 18.34 32.2108 18.51C31.8108 18.67 31.4708 18.9 31.1708 19.19C30.8808 19.48 30.6508 19.82 30.4808 20.21C30.3108 20.61 30.2208 21.03 30.2208 21.49H30.2108Z" fill="white"/>
<path d="M46.7607 25.3H45.8807V21.17C45.8807 20.16 45.6507 19.43 45.1907 18.96C44.7307 18.49 44.0707 18.26 43.2007 18.26C42.8107 18.26 42.4507 18.33 42.1107 18.47C41.7707 18.61 41.4707 18.81 41.2107 19.06C40.9507 19.32 40.7507 19.62 40.6007 19.98C40.4507 20.34 40.3707 20.74 40.3707 21.17V25.28H39.5107V17.68H40.2507L40.3307 19C40.4807 18.78 40.6507 18.58 40.8607 18.4C41.0707 18.22 41.3007 18.05 41.5607 17.92C41.8207 17.78 42.0907 17.67 42.3907 17.6C42.6907 17.52 42.9907 17.48 43.3107 17.48C44.4607 17.48 45.3207 17.78 45.9007 18.38C46.4807 18.98 46.7607 19.9 46.7607 21.14V25.28V25.3Z" fill="white"/>
<path d="M48.8805 15.4302H49.5605V17.7002H52.4305V18.4702H49.5605V22.4602C49.5605 22.9102 49.6105 23.2702 49.7105 23.5602C49.8105 23.8502 49.9505 24.0802 50.1205 24.2402C50.2905 24.4102 50.4905 24.5302 50.7105 24.5902C50.9305 24.6602 51.1605 24.6902 51.3905 24.6902H52.7605V25.4302H51.3305C50.9505 25.4302 50.6105 25.3802 50.2905 25.2802C49.9705 25.1802 49.6905 25.0102 49.4605 24.7802C49.2205 24.5502 49.0405 24.2402 48.9105 23.8602C48.7805 23.4802 48.7105 23.0102 48.7105 22.4602V18.4702H47.3105V17.7602L48.6905 17.6302L48.8905 15.4302H48.8805Z" fill="white"/>
<path d="M61.2404 20.0401H66.4004C66.4204 20.8401 66.3104 21.5701 66.0704 22.2301C65.8304 22.9001 65.4803 23.4701 65.0303 23.9601C64.5803 24.4501 64.0404 24.8201 63.4104 25.0901C62.7804 25.3601 62.0904 25.5001 61.3304 25.5001C60.8204 25.5001 60.3403 25.4401 59.8703 25.3101C59.4003 25.1801 58.9704 25.0101 58.5704 24.7801C58.1704 24.5501 57.8004 24.2701 57.4704 23.9501C57.1404 23.6301 56.8504 23.2701 56.6104 22.8801C56.3704 22.4901 56.1904 22.0601 56.0604 21.6101C55.9304 21.1501 55.8604 20.6801 55.8604 20.1901C55.8604 19.7001 55.9304 19.2201 56.0604 18.7601C56.1904 18.3001 56.3704 17.8801 56.6104 17.4801C56.8504 17.0801 57.1304 16.7301 57.4704 16.4001C57.8004 16.0801 58.1704 15.8001 58.5704 15.5701C58.9704 15.3401 59.4103 15.1601 59.8703 15.0401C60.3403 14.9201 60.8204 14.8501 61.3304 14.8501C62.1004 14.8501 62.8104 14.9901 63.4904 15.2601C64.1604 15.5401 64.7704 15.9501 65.3204 16.5101L64.4304 17.3901C64.2604 17.1901 64.0604 17.0101 63.8404 16.8501C63.6204 16.6801 63.3803 16.5401 63.1203 16.4101C62.8603 16.2901 62.5803 16.1901 62.2803 16.1201C61.9803 16.0501 61.6604 16.0201 61.3304 16.0201C60.7604 16.0201 60.2204 16.1301 59.7204 16.3401C59.2204 16.5501 58.7804 16.8501 58.4104 17.2201C58.0404 17.6001 57.7404 18.0401 57.5204 18.5401C57.3004 19.0501 57.1903 19.5901 57.1903 20.1801C57.1903 20.5701 57.2404 20.9401 57.3404 21.3001C57.4404 21.6601 57.5803 21.9901 57.7603 22.2901C57.9403 22.6001 58.1604 22.8801 58.4104 23.1301C58.6604 23.3801 58.9404 23.5901 59.2504 23.7701C59.5604 23.9501 59.8804 24.0801 60.2404 24.1801C60.5904 24.2801 60.9604 24.3301 61.3404 24.3301C61.9004 24.3301 62.3904 24.2501 62.8304 24.0901C63.2704 23.9301 63.6504 23.7001 63.9704 23.4101C64.2904 23.1201 64.5404 22.7701 64.7304 22.3701C64.9204 21.9701 65.0403 21.5201 65.0903 21.0301H61.2504V20.0401H61.2404Z" fill="white"/>
<path d="M72.5608 18.8001H71.7208C71.3308 18.8001 70.9708 18.8601 70.6508 18.9701C70.3308 19.0901 70.0508 19.2601 69.8208 19.4901C69.5908 19.7201 69.4108 20.0001 69.2908 20.3401C69.1608 20.6801 69.1008 21.0701 69.1008 21.5201V25.2901H67.8008V17.6401H68.8708L69.0108 18.8301C69.1408 18.6601 69.2908 18.5001 69.4708 18.3601C69.6508 18.2201 69.8508 18.0901 70.0708 17.9801C70.2908 17.8801 70.5408 17.7901 70.8008 17.7301C71.0708 17.6701 71.3508 17.6401 71.6608 17.6401H72.5608V18.8001Z" fill="white"/>
<path d="M74.2101 20.74C74.1501 20.97 74.1301 21.22 74.1301 21.47C74.1301 21.65 74.1501 21.83 74.1701 22C74.1401 21.83 74.1201 21.65 74.1201 21.46C74.1201 21.21 74.1501 20.97 74.2101 20.73V20.74Z" fill="#111113"/>
<path d="M73.1309 19.8698C73.1709 19.7798 73.2109 19.6798 73.2609 19.5898C73.2109 19.6798 73.1709 19.7698 73.1309 19.8698Z" fill="#111113"/>
<path d="M73.2607 19.5998C73.4507 19.2298 73.6807 18.8998 73.9707 18.5998C74.1607 18.4098 74.3707 18.2398 74.6007 18.0898C74.0407 18.4698 73.5707 18.9898 73.2607 19.5998Z" fill="#111113"/>
<path d="M74.9105 25.0199C74.8105 24.9599 74.7105 24.8999 74.6105 24.8399C74.4005 24.7099 74.2105 24.5599 74.0405 24.3899C74.0205 24.3699 74.0005 24.3499 73.9805 24.3299C73.8305 24.1799 73.6905 24.0199 73.5805 23.8399C73.4405 23.6399 73.3105 23.4299 73.2105 23.2099C73.1805 23.1599 73.1605 23.0999 73.1305 23.0499C73.0705 22.9099 73.0205 22.7599 72.9805 22.6099C73.2805 23.6499 73.9905 24.5099 74.9105 25.0199Z" fill="#111113"/>
<path d="M75.0904 25.12C75.0304 25.09 74.9604 25.06 74.9004 25.02C74.9604 25.05 75.0204 25.09 75.0904 25.12Z" fill="#111113"/>
<path d="M79.8808 22.0498C79.9108 21.8698 79.9308 21.6698 79.9308 21.4698C79.9308 21.1598 79.8908 20.8598 79.8008 20.5898C79.8908 20.8698 79.9408 21.1598 79.9408 21.4698C79.9408 21.6698 79.9208 21.8598 79.8808 22.0498Z" fill="#111113"/>
<path d="M91.3207 21.4702C91.3207 22.0302 91.2207 22.5602 91.0207 23.0502C90.8207 23.5402 90.5407 23.9702 90.1807 24.3302C89.8207 24.7002 89.3907 24.9802 88.8907 25.2002C88.3907 25.4102 87.8407 25.5202 87.2507 25.5202C86.9207 25.5202 86.6207 25.4902 86.3307 25.4202C86.0407 25.3502 85.7707 25.2602 85.5207 25.1402C85.2707 25.0202 85.0407 24.8802 84.8307 24.7202C84.6207 24.5502 84.4407 24.3702 84.2707 24.1802V27.9202H82.9707V17.6502H84.0407L84.1607 18.8702C84.3207 18.6702 84.5107 18.4902 84.7207 18.3102C84.9407 18.1302 85.1707 17.9802 85.4307 17.8502C85.6907 17.7202 85.9707 17.6102 86.2707 17.5402C86.5707 17.4602 86.8907 17.4302 87.2207 17.4302C87.8207 17.4302 88.3607 17.5402 88.8607 17.7502C89.3607 17.9602 89.7907 18.2502 90.1607 18.6102C90.5307 18.9802 90.8107 19.4002 91.0107 19.9002C91.2107 20.3902 91.3107 20.9202 91.3107 21.4802L91.3207 21.4702ZM90.0107 21.4702C90.0107 21.0502 89.9307 20.6602 89.7807 20.3102C89.6307 19.9502 89.4207 19.6502 89.1607 19.3902C88.9007 19.1302 88.5907 18.9302 88.2407 18.7802C87.8907 18.6402 87.5107 18.5602 87.1107 18.5602C86.7107 18.5602 86.3307 18.6302 85.9807 18.7802C85.6307 18.9302 85.3207 19.1302 85.0607 19.3902C84.8007 19.6502 84.5907 19.9602 84.4407 20.3102C84.2907 20.6702 84.2107 21.0502 84.2107 21.4702C84.2107 21.8902 84.2907 22.2702 84.4407 22.6302C84.5907 22.9902 84.8007 23.2902 85.0607 23.5502C85.3207 23.8102 85.6307 24.0102 85.9907 24.1602C86.3507 24.3002 86.7207 24.3802 87.1207 24.3802C87.5207 24.3802 87.9007 24.3102 88.2507 24.1602C88.6007 24.0202 88.9107 23.8102 89.1707 23.5502C89.4307 23.2902 89.6407 22.9802 89.7907 22.6302C89.9407 22.2802 90.0207 21.8902 90.0207 21.4702H90.0107Z" fill="white"/>
<path d="M100.001 25.3H98.6905V21.13C98.6905 20.66 98.6405 20.26 98.5305 19.94C98.4205 19.61 98.2705 19.35 98.0705 19.15C97.8705 18.95 97.6205 18.8 97.3205 18.71C97.0205 18.62 96.6805 18.57 96.3005 18.57C95.9605 18.57 95.6405 18.63 95.3405 18.75C95.0405 18.87 94.7805 19.04 94.5505 19.25C94.3205 19.47 94.1505 19.73 94.0205 20.04C93.8905 20.35 93.8205 20.7 93.8205 21.08V25.3H92.5205V14.73H93.8105V18.62C93.9505 18.45 94.1305 18.29 94.3205 18.15C94.5205 18.01 94.7305 17.88 94.9605 17.77C95.1905 17.66 95.4405 17.58 95.7005 17.52C95.9605 17.46 96.2405 17.43 96.5205 17.43C97.7005 17.43 98.5705 17.74 99.1405 18.35C99.7105 18.96 99.9905 19.88 99.9905 21.11V25.31L100.001 25.3Z" fill="white"/>
<path d="M29.2308 30.2101H31.5308C31.5308 30.5601 31.4808 30.8801 31.3708 31.1701C31.2608 31.4601 31.1108 31.7201 30.9108 31.9301C30.7108 32.1401 30.4708 32.3101 30.1908 32.4301C29.9108 32.5501 29.6008 32.6101 29.2708 32.6101C29.0508 32.6101 28.8308 32.5801 28.6208 32.5301C28.4108 32.4801 28.2208 32.3901 28.0408 32.2901C27.8608 32.1901 27.6908 32.0601 27.5508 31.9201C27.4008 31.7701 27.2808 31.6101 27.1708 31.4401C27.0708 31.2601 26.9808 31.0701 26.9308 30.8701C26.8708 30.6701 26.8408 30.4501 26.8408 30.2301C26.8408 30.0101 26.8708 29.7901 26.9308 29.5901C26.9908 29.3901 27.0708 29.1901 27.1708 29.0201C27.2708 28.8401 27.4008 28.6801 27.5508 28.5401C27.7008 28.3901 27.8608 28.2701 28.0408 28.1701C28.2208 28.0701 28.4108 27.9901 28.6208 27.9301C28.8308 27.8701 29.0408 27.8501 29.2708 27.8501C29.6108 27.8501 29.9308 27.9101 30.2308 28.0301C30.5308 28.1501 30.8008 28.3401 31.0508 28.6001L30.7808 28.8601C30.7008 28.7701 30.6008 28.6801 30.5008 28.6001C30.4008 28.5201 30.2808 28.4501 30.1508 28.3901C30.0208 28.3301 29.8808 28.2801 29.7408 28.2501C29.5908 28.2201 29.4408 28.2001 29.2808 28.2001C29.0008 28.2001 28.7308 28.2501 28.4908 28.3601C28.2408 28.4601 28.0308 28.6101 27.8408 28.7901C27.6608 28.9701 27.5108 29.1901 27.4008 29.4401C27.2908 29.6901 27.2408 29.9501 27.2408 30.2401C27.2408 30.5301 27.2908 30.7901 27.4008 31.0401C27.5108 31.2901 27.6508 31.5001 27.8408 31.6801C28.0208 31.8601 28.2408 32.0001 28.4908 32.1101C28.7408 32.2101 29.0008 32.2701 29.2808 32.2701C29.5608 32.2701 29.8008 32.2301 30.0208 32.1401C30.2408 32.0501 30.4308 31.9301 30.5908 31.7801C30.7508 31.6301 30.8808 31.4401 30.9708 31.2301C31.0708 31.0201 31.1208 30.7801 31.1408 30.5301H29.2308V30.2201V30.2101Z" fill="white"/>
<path d="M32.5205 30.8198C32.5205 30.5698 32.5705 30.3398 32.6605 30.1198C32.7505 29.8998 32.8805 29.7098 33.0505 29.5498C33.2205 29.3898 33.4105 29.2598 33.6305 29.1698C33.8505 29.0798 34.1005 29.0298 34.3605 29.0298C34.6205 29.0298 34.8605 29.0798 35.0905 29.1698C35.3205 29.2598 35.5105 29.3898 35.6805 29.5498C35.8505 29.7098 35.9805 29.8998 36.0705 30.1198C36.1705 30.3398 36.2105 30.5698 36.2105 30.8198C36.2105 30.8498 36.2105 30.8698 36.2105 30.8898C36.2105 30.9098 36.2105 30.9298 36.2105 30.9498H32.9105C32.9305 31.1498 32.9805 31.3398 33.0705 31.4998C33.1605 31.6698 33.2705 31.8098 33.4005 31.9198C33.5305 32.0398 33.6905 32.1298 33.8605 32.1898C34.0305 32.2498 34.2005 32.2798 34.3805 32.2798C34.5205 32.2798 34.6505 32.2598 34.7705 32.2298C34.8905 32.1998 35.0105 32.1498 35.1205 32.0898C35.2305 32.0298 35.3205 31.9498 35.4105 31.8598C35.5005 31.7698 35.5705 31.6698 35.6305 31.5698H36.0505C35.9805 31.7198 35.8905 31.8598 35.7805 31.9898C35.6705 32.1198 35.5405 32.2298 35.4005 32.3198C35.2605 32.4098 35.1005 32.4898 34.9205 32.5398C34.7505 32.5898 34.5605 32.6198 34.3705 32.6198C34.1105 32.6198 33.8705 32.5698 33.6405 32.4798C33.4205 32.3898 33.2205 32.2598 33.0605 32.0998C32.8905 31.9398 32.7605 31.7498 32.6705 31.5298C32.5805 31.3098 32.5305 31.0798 32.5305 30.8298L32.5205 30.8198ZM34.3705 29.3498C34.1805 29.3498 34.0005 29.3798 33.8305 29.4498C33.6605 29.5198 33.5105 29.6098 33.3805 29.7198C33.2505 29.8398 33.1405 29.9698 33.0605 30.1298C32.9805 30.2898 32.9205 30.4598 32.9005 30.6398H35.8105C35.7905 30.4598 35.7405 30.2798 35.6605 30.1298C35.5805 29.9698 35.4705 29.8298 35.3505 29.7198C35.2205 29.5998 35.0705 29.5098 34.9105 29.4498C34.7405 29.3898 34.5605 29.3498 34.3705 29.3498Z" fill="white"/>
<path d="M37.6009 28.1001H37.9009V29.1201H39.1909V29.4701H37.9009V31.2601C37.9009 31.4601 37.9209 31.6301 37.9709 31.7501C38.0209 31.8801 38.0809 31.9801 38.1509 32.0601C38.2309 32.1301 38.3109 32.1901 38.4109 32.2201C38.5109 32.2501 38.6109 32.2701 38.7209 32.2701H39.3309V32.6001H38.6909C38.5209 32.6001 38.3709 32.5801 38.2209 32.5301C38.0809 32.4801 37.9509 32.4101 37.8509 32.3001C37.7409 32.1901 37.6609 32.0601 37.6009 31.8901C37.5409 31.7201 37.5109 31.5101 37.5109 31.2601V29.4701H36.8809V29.1501L37.5009 29.0901L37.5909 28.1001H37.6009Z" fill="white"/>
<path d="M41.8601 30.8198C41.8601 30.5698 41.9101 30.3398 42.0001 30.1198C42.0901 29.8998 42.2201 29.7098 42.3801 29.5498C42.5401 29.3898 42.7401 29.2598 42.9601 29.1698C43.1801 29.0798 43.4201 29.0298 43.6801 29.0298C43.8401 29.0298 44.0001 29.0498 44.1501 29.0898C44.3001 29.1298 44.4401 29.1898 44.5701 29.2598C44.7001 29.3298 44.8101 29.4198 44.9201 29.5098C45.0201 29.6098 45.1101 29.7098 45.1801 29.8298L45.2201 29.1198H45.5501V32.0898C45.5501 32.2198 45.5401 32.3598 45.5101 32.4998C45.4901 32.6398 45.4501 32.7798 45.3901 32.9198C45.3401 33.0598 45.2601 33.1798 45.1801 33.3098C45.0901 33.4298 44.9801 33.5398 44.8501 33.6298C44.7201 33.7198 44.5601 33.7898 44.3901 33.8498C44.2101 33.8998 44.0101 33.9298 43.7801 33.9298C43.5001 33.9298 43.2601 33.8898 43.0501 33.8198C42.8401 33.7398 42.6601 33.6398 42.5201 33.5198C42.3801 33.3998 42.2601 33.2598 42.1801 33.1098C42.1001 32.9598 42.0401 32.8098 42.0101 32.6598H42.3801C42.4101 32.7698 42.4601 32.8798 42.5401 32.9898C42.6101 33.0998 42.7101 33.1998 42.8201 33.2898C42.9401 33.3798 43.0701 33.4498 43.2301 33.4998C43.3901 33.5598 43.5701 33.5798 43.7701 33.5798C43.9701 33.5798 44.1401 33.5598 44.2801 33.5098C44.4201 33.4598 44.5501 33.3998 44.6501 33.3198C44.7501 33.2398 44.8401 33.1498 44.9001 33.0498C44.9701 32.9498 45.0201 32.8398 45.0501 32.7398C45.0901 32.6298 45.1101 32.5198 45.1301 32.4198C45.1401 32.3098 45.1501 32.2198 45.1501 32.1298V31.8098C45.0801 31.9198 44.9901 32.0298 44.8801 32.1198C44.7801 32.2198 44.6601 32.2998 44.5301 32.3698C44.4001 32.4398 44.2601 32.4998 44.1101 32.5398C43.9601 32.5798 43.8001 32.5998 43.6301 32.5998C43.3801 32.5998 43.1401 32.5498 42.9201 32.4598C42.7001 32.3698 42.5101 32.2398 42.3501 32.0798C42.1901 31.9198 42.0601 31.7298 41.9701 31.5098C41.8801 31.2898 41.8301 31.0598 41.8301 30.8098L41.8601 30.8198ZM42.2501 30.8198C42.2501 31.0298 42.2901 31.2198 42.3601 31.3998C42.4401 31.5798 42.5401 31.7298 42.6701 31.8598C42.8001 31.9898 42.9601 32.0898 43.1401 32.1598C43.3201 32.2298 43.5101 32.2698 43.7101 32.2698C43.9101 32.2698 44.1001 32.2298 44.2801 32.1598C44.4601 32.0898 44.6101 31.9898 44.7501 31.8598C44.8801 31.7298 44.9901 31.5798 45.0601 31.3998C45.1401 31.2198 45.1701 31.0298 45.1701 30.8198C45.1701 30.6098 45.1301 30.4198 45.0601 30.2498C44.9801 30.0698 44.8801 29.9198 44.7401 29.7898C44.6101 29.6598 44.4501 29.5598 44.2701 29.4898C44.0901 29.4198 43.9001 29.3798 43.7001 29.3798C43.5001 29.3798 43.3101 29.4198 43.1301 29.4898C42.9501 29.5598 42.8001 29.6698 42.6701 29.7898C42.5401 29.9198 42.4301 30.0698 42.3601 30.2498C42.2801 30.4298 42.2501 30.6198 42.2501 30.8198Z" fill="#30A46C"/>
<path d="M49.0107 29.4699H48.6607C48.4707 29.4699 48.3007 29.4999 48.1407 29.5599C47.9807 29.6199 47.8507 29.6999 47.7307 29.8099C47.6207 29.9199 47.5307 30.0599 47.4607 30.2299C47.4007 30.3999 47.3607 30.5899 47.3607 30.8099V32.5399H46.9707V29.1299H47.3007L47.3407 29.7899C47.4007 29.6999 47.4707 29.6099 47.5507 29.5299C47.6307 29.4499 47.7307 29.3799 47.8407 29.3199C47.9507 29.2599 48.0707 29.2199 48.2007 29.1799C48.3307 29.1499 48.4707 29.1299 48.6307 29.1299H48.9907V29.4799L49.0107 29.4699Z" fill="#30A46C"/>
<path d="M49.7002 30.8198C49.7002 30.5698 49.7502 30.3398 49.8402 30.1198C49.9302 29.8998 50.0602 29.7098 50.2202 29.5498C50.3802 29.3898 50.5802 29.2598 50.8002 29.1698C51.0202 29.0798 51.2602 29.0298 51.5202 29.0298C51.6802 29.0298 51.8402 29.0498 51.9902 29.0898C52.1402 29.1298 52.2802 29.1898 52.4102 29.2598C52.5402 29.3298 52.6502 29.4098 52.7602 29.5098C52.8602 29.6098 52.9502 29.7098 53.0202 29.8198L53.0502 29.1198H53.3902V32.5298H53.0502L53.0202 31.8298C52.9502 31.9398 52.8602 32.0498 52.7602 32.1398C52.6602 32.2398 52.5402 32.3198 52.4102 32.3898C52.2802 32.4598 52.1402 32.5198 52.0002 32.5598C51.8502 32.5998 51.7002 32.6198 51.5302 32.6198C51.2702 32.6198 51.0302 32.5698 50.8102 32.4798C50.5902 32.3898 50.3902 32.2598 50.2302 32.0998C50.0702 31.9398 49.9402 31.7498 49.8502 31.5298C49.7602 31.3098 49.7102 31.0798 49.7102 30.8198H49.7002ZM50.0902 30.8198C50.0902 31.0298 50.1302 31.2198 50.2002 31.3998C50.2802 31.5798 50.3802 31.7298 50.5102 31.8598C50.6402 31.9898 50.8002 32.0898 50.9802 32.1598C51.1602 32.2298 51.3502 32.2698 51.5502 32.2698C51.7502 32.2698 51.9402 32.2298 52.1202 32.1598C52.3002 32.0898 52.4502 31.9898 52.5902 31.8598C52.7202 31.7298 52.8302 31.5798 52.9102 31.3998C52.9902 31.2198 53.0202 31.0298 53.0202 30.8198C53.0202 30.6098 52.9802 30.4198 52.9002 30.2498C52.8202 30.0698 52.7202 29.9198 52.5802 29.7898C52.4502 29.6598 52.2902 29.5598 52.1102 29.4898C51.9302 29.4198 51.7402 29.3798 51.5402 29.3798C51.3402 29.3798 51.1502 29.4198 50.9702 29.4898C50.7902 29.5598 50.6402 29.6698 50.5002 29.7898C50.3702 29.9198 50.2602 30.0698 50.1902 30.2498C50.1102 30.4298 50.0802 30.6198 50.0802 30.8198H50.0902Z" fill="#30A46C"/>
<path d="M58.0808 32.5298H57.6908V30.6798C57.6908 30.2298 57.5908 29.8998 57.3808 29.6898C57.1708 29.4798 56.8808 29.3798 56.4908 29.3798C56.3208 29.3798 56.1508 29.4098 56.0008 29.4698C55.8508 29.5298 55.7108 29.6198 55.6008 29.7398C55.4808 29.8498 55.3908 29.9898 55.3308 30.1498C55.2608 30.3098 55.2308 30.4898 55.2308 30.6898V32.5398H54.8408V29.1298H55.1708L55.2108 29.7198C55.2808 29.6198 55.3508 29.5298 55.4508 29.4498C55.5408 29.3698 55.6508 29.2898 55.7608 29.2298C55.8808 29.1698 56.0008 29.1198 56.1308 29.0798C56.2608 29.0498 56.4008 29.0298 56.5408 29.0298C57.0608 29.0298 57.4408 29.1698 57.7008 29.4298C57.9608 29.6998 58.0908 30.1098 58.0908 30.6698V32.5298H58.0808Z" fill="#30A46C"/>
<path d="M59.5804 28.1001H59.8804V29.1201H61.1703V29.4701H59.8804V31.2601C59.8804 31.4601 59.9004 31.6301 59.9504 31.7501C60.0004 31.8801 60.0604 31.9801 60.1304 32.0601C60.2104 32.1301 60.2904 32.1901 60.3904 32.2201C60.4904 32.2501 60.5904 32.2701 60.7004 32.2701H61.3104V32.6001H60.6703C60.5003 32.6001 60.3504 32.5801 60.2004 32.5301C60.0604 32.4801 59.9304 32.4101 59.8304 32.3001C59.7204 32.1901 59.6404 32.0601 59.5804 31.8901C59.5204 31.7201 59.4904 31.5101 59.4904 31.2601V29.4701H58.8604V29.1501L59.4804 29.0901L59.5704 28.1001H59.5804Z" fill="#30A46C"/>
<path d="M62.451 31.5798C62.451 31.6698 62.481 31.7598 62.531 31.8498C62.581 31.9298 62.651 32.0098 62.741 32.0798C62.831 32.1498 62.931 32.1998 63.051 32.2398C63.171 32.2798 63.301 32.2998 63.431 32.2998C63.821 32.2998 64.111 32.2398 64.301 32.1098C64.491 31.9798 64.591 31.8198 64.591 31.6098C64.591 31.4998 64.561 31.4098 64.511 31.3298C64.451 31.2498 64.381 31.1898 64.281 31.1398C64.181 31.0898 64.061 31.0498 63.921 31.0198C63.781 30.9898 63.631 30.9598 63.451 30.9398C63.361 30.9298 63.261 30.9198 63.161 30.8998C63.061 30.8898 62.961 30.8598 62.871 30.8398C62.771 30.8098 62.681 30.7798 62.601 30.7398C62.511 30.6998 62.441 30.6498 62.381 30.5798C62.321 30.5098 62.261 30.4398 62.231 30.3498C62.201 30.2598 62.171 30.1598 62.171 30.0398C62.171 29.9098 62.191 29.7898 62.241 29.6698C62.291 29.5498 62.371 29.4398 62.471 29.3498C62.581 29.2598 62.721 29.1798 62.901 29.1198C63.081 29.0598 63.301 29.0298 63.551 29.0298C63.741 29.0298 63.921 29.0498 64.071 29.0998C64.231 29.1498 64.361 29.2198 64.471 29.2998C64.581 29.3898 64.661 29.4898 64.721 29.5998C64.781 29.7198 64.811 29.8398 64.811 29.9798H64.431C64.431 29.8898 64.401 29.7998 64.351 29.7198C64.301 29.6398 64.241 29.5798 64.161 29.5198C64.081 29.4698 63.991 29.4198 63.881 29.3898C63.771 29.3598 63.651 29.3398 63.521 29.3398C63.341 29.3398 63.191 29.3598 63.061 29.3998C62.931 29.4398 62.831 29.4898 62.761 29.5498C62.691 29.6098 62.631 29.6798 62.591 29.7698C62.551 29.8498 62.541 29.9298 62.541 30.0198C62.541 30.1198 62.561 30.1998 62.611 30.2698C62.661 30.3398 62.731 30.3898 62.821 30.4398C62.911 30.4898 63.031 30.5198 63.161 30.5498C63.301 30.5798 63.451 30.5998 63.631 30.6198C63.721 30.6298 63.821 30.6398 63.931 30.6598C64.031 30.6798 64.131 30.6998 64.231 30.7298C64.331 30.7598 64.421 30.7998 64.511 30.8398C64.601 30.8898 64.681 30.9398 64.751 31.0098C64.821 31.0798 64.871 31.1598 64.911 31.2498C64.951 31.3398 64.971 31.4498 64.971 31.5698C64.971 31.7398 64.941 31.8798 64.871 32.0198C64.801 32.1498 64.701 32.2598 64.571 32.3498C64.441 32.4398 64.271 32.5098 64.081 32.5498C63.891 32.5998 63.661 32.6198 63.411 32.6198C63.201 32.6198 63.021 32.5898 62.851 32.5298C62.681 32.4698 62.541 32.3898 62.421 32.2898C62.301 32.1898 62.211 32.0798 62.141 31.9498C62.071 31.8298 62.041 31.6998 62.041 31.5698H62.421L62.451 31.5798Z" fill="#30A46C"/>
<path d="M67.9302 29.46H67.2002V29.11H67.9302V28.92C67.9302 28.76 67.9502 28.61 67.9802 28.47C68.0102 28.32 68.0702 28.19 68.1502 28.08C68.2302 27.97 68.3402 27.87 68.4802 27.81C68.6202 27.74 68.7902 27.71 68.9902 27.71H69.4002V28.04H69.0602C68.9202 28.04 68.8002 28.06 68.7102 28.11C68.6202 28.15 68.5402 28.22 68.4802 28.3C68.4202 28.38 68.3802 28.48 68.3602 28.59C68.3402 28.7 68.3202 28.82 68.3202 28.95V29.12H69.3802V29.47H68.3202V32.54H67.9302V29.47V29.46Z" fill="white"/>
<path d="M70.0508 30.8198C70.0508 30.5698 70.1008 30.3398 70.1908 30.1198C70.2808 29.8998 70.4108 29.7098 70.5708 29.5498C70.7308 29.3898 70.9308 29.2598 71.1508 29.1698C71.3708 29.0798 71.6108 29.0298 71.8708 29.0298C72.0308 29.0298 72.1908 29.0498 72.3408 29.0898C72.4908 29.1298 72.6308 29.1898 72.7608 29.2598C72.8908 29.3298 73.0008 29.4098 73.1108 29.5098C73.2108 29.6098 73.3008 29.7098 73.3708 29.8198L73.4008 29.1198H73.7408V32.5298H73.4008L73.3708 31.8298C73.3008 31.9398 73.2108 32.0498 73.1108 32.1398C73.0108 32.2398 72.8908 32.3198 72.7608 32.3898C72.6308 32.4598 72.4908 32.5198 72.3508 32.5598C72.2008 32.5998 72.0508 32.6198 71.8808 32.6198C71.6208 32.6198 71.3808 32.5698 71.1608 32.4798C70.9408 32.3898 70.7408 32.2598 70.5808 32.0998C70.4208 31.9398 70.2908 31.7498 70.2008 31.5298C70.1108 31.3098 70.0608 31.0798 70.0608 30.8198H70.0508ZM70.4408 30.8198C70.4408 31.0298 70.4808 31.2198 70.5508 31.3998C70.6308 31.5798 70.7308 31.7298 70.8608 31.8598C70.9908 31.9898 71.1508 32.0898 71.3308 32.1598C71.5108 32.2298 71.7008 32.2698 71.9008 32.2698C72.1008 32.2698 72.2908 32.2298 72.4708 32.1598C72.6508 32.0898 72.8008 31.9898 72.9408 31.8598C73.0708 31.7298 73.1808 31.5798 73.2608 31.3998C73.3408 31.2198 73.3708 31.0298 73.3708 30.8198C73.3708 30.6098 73.3308 30.4198 73.2508 30.2498C73.1708 30.0698 73.0708 29.9198 72.9308 29.7898C72.8008 29.6598 72.6408 29.5598 72.4608 29.4898C72.2808 29.4198 72.0908 29.3798 71.8908 29.3798C71.6908 29.3798 71.5008 29.4198 71.3208 29.4898C71.1408 29.5598 70.9908 29.6698 70.8508 29.7898C70.7208 29.9198 70.6108 30.0698 70.5408 30.2498C70.4608 30.4298 70.4308 30.6198 70.4308 30.8198H70.4408Z" fill="white"/>
<path d="M75.1805 31.5798C75.1805 31.6698 75.2105 31.7598 75.2605 31.8498C75.3105 31.9298 75.3805 32.0098 75.4705 32.0798C75.5605 32.1498 75.6605 32.1998 75.7805 32.2398C75.9005 32.2798 76.0305 32.2998 76.1605 32.2998C76.5505 32.2998 76.8405 32.2398 77.0305 32.1098C77.2205 31.9798 77.3205 31.8198 77.3205 31.6098C77.3205 31.4998 77.2905 31.4098 77.2405 31.3298C77.1805 31.2498 77.1105 31.1898 77.0105 31.1398C76.9105 31.0898 76.7905 31.0498 76.6505 31.0198C76.5105 30.9898 76.3605 30.9598 76.1805 30.9398C76.0905 30.9298 75.9905 30.9198 75.8905 30.8998C75.7905 30.8898 75.6905 30.8598 75.6005 30.8398C75.5005 30.8098 75.4105 30.7798 75.3305 30.7398C75.2405 30.6998 75.1705 30.6498 75.1105 30.5798C75.0505 30.5198 74.9905 30.4398 74.9605 30.3498C74.9205 30.2598 74.9005 30.1598 74.9005 30.0398C74.9005 29.9098 74.9205 29.7898 74.9705 29.6698C75.0205 29.5498 75.1005 29.4398 75.2005 29.3498C75.3105 29.2598 75.4505 29.1798 75.6305 29.1198C75.8105 29.0598 76.0305 29.0298 76.2805 29.0298C76.4705 29.0298 76.6505 29.0498 76.8005 29.0998C76.9605 29.1498 77.0905 29.2198 77.2005 29.2998C77.3105 29.3898 77.3905 29.4898 77.4505 29.5998C77.5105 29.7198 77.5405 29.8398 77.5405 29.9798H77.1605C77.1605 29.8898 77.1305 29.7998 77.0805 29.7198C77.0305 29.6398 76.9705 29.5798 76.8905 29.5198C76.8105 29.4698 76.7205 29.4198 76.6105 29.3898C76.5005 29.3598 76.3805 29.3398 76.2505 29.3398C76.0705 29.3398 75.9205 29.3598 75.7905 29.3998C75.6605 29.4398 75.5605 29.4898 75.4905 29.5498C75.4105 29.6098 75.3605 29.6798 75.3205 29.7698C75.2805 29.8498 75.2705 29.9298 75.2705 30.0198C75.2705 30.1198 75.2905 30.1998 75.3405 30.2698C75.3905 30.3398 75.4605 30.3898 75.5505 30.4398C75.6405 30.4898 75.7605 30.5198 75.8905 30.5498C76.0305 30.5798 76.1805 30.5998 76.3605 30.6198C76.4505 30.6298 76.5505 30.6398 76.6605 30.6598C76.7605 30.6798 76.8605 30.6998 76.9605 30.7298C77.0605 30.7598 77.1505 30.7998 77.2405 30.8398C77.3305 30.8898 77.4105 30.9398 77.4805 31.0098C77.5505 31.0798 77.6005 31.1598 77.6405 31.2498C77.6805 31.3398 77.7005 31.4498 77.7005 31.5698C77.7005 31.7398 77.6705 31.8798 77.6005 32.0198C77.5305 32.1498 77.4305 32.2598 77.3005 32.3498C77.1705 32.4398 77.0005 32.5098 76.8105 32.5498C76.6205 32.5998 76.3905 32.6198 76.1405 32.6198C75.9305 32.6198 75.7505 32.5898 75.5805 32.5298C75.4105 32.4698 75.2705 32.3898 75.1505 32.2898C75.0305 32.1898 74.9405 32.0798 74.8705 31.9498C74.8005 31.8298 74.7705 31.6998 74.7705 31.5698H75.1505L75.1805 31.5798Z" fill="white"/>
<path d="M78.9602 28.1001H79.2602V29.1201H80.5502V29.4701H79.2602V31.2601C79.2602 31.4601 79.2802 31.6301 79.3302 31.7501C79.3802 31.8801 79.4402 31.9801 79.5102 32.0601C79.5902 32.1301 79.6702 32.1901 79.7702 32.2201C79.8702 32.2501 79.9702 32.2701 80.0802 32.2701H80.6902V32.6001H80.0502C79.8802 32.6001 79.7302 32.5801 79.5802 32.5301C79.4402 32.4801 79.3102 32.4101 79.2102 32.3001C79.1002 32.1901 79.0202 32.0601 78.9602 31.8901C78.9002 31.7201 78.8702 31.5101 78.8702 31.2601V29.4701H78.2402V29.1501L78.8602 29.0901L78.9502 28.1001H78.9602Z" fill="white"/>
<path d="M80.0403 17.6396L79.9503 18.7996C79.2103 17.9396 78.1003 17.3896 76.8703 17.3896C76.0803 17.3896 75.3503 17.6096 74.7303 17.9996C74.6903 18.0196 74.6403 18.0496 74.6003 18.0796C73.9503 18.5196 73.4403 19.1396 73.1303 19.8596C73.1303 19.8796 73.1203 19.8896 73.1103 19.9096C72.9203 20.3896 72.8203 20.8996 72.8203 21.4496C72.8203 21.8496 72.8703 22.2296 72.9703 22.5896C73.2903 23.6896 74.0703 24.5996 75.0903 25.0996C75.1503 25.1296 75.2103 25.1596 75.2603 25.1796C75.7503 25.3896 76.3003 25.5096 76.8703 25.5096C78.1003 25.5096 79.1903 24.9696 79.9403 24.1096L80.0403 25.2696H81.1703V17.6196H80.0403V17.6396ZM77.1503 24.3696C77.1503 24.3696 77.0703 24.3696 77.0203 24.3696C76.8703 24.3696 76.7203 24.3596 76.5803 24.3396C76.3403 24.3096 76.1103 24.2496 75.8903 24.1596C75.7803 24.1096 75.6703 24.0596 75.5703 23.9996C75.3603 23.8796 75.1603 23.7396 74.9803 23.5596C74.9803 23.5596 74.9803 23.5596 74.9703 23.5596C74.8003 23.3896 74.6603 23.2096 74.5403 23.0096C74.4703 22.8996 74.4103 22.7796 74.3603 22.6496C74.3103 22.5396 74.2703 22.4296 74.2403 22.3196C74.2303 22.2796 74.2203 22.2496 74.2103 22.2096C74.2003 22.1696 74.1903 22.1296 74.1803 22.0896C74.1803 22.0696 74.1803 22.0396 74.1703 22.0196C74.1403 21.8496 74.1203 21.6696 74.1203 21.4796C74.1203 21.2296 74.1503 20.9896 74.2103 20.7496C74.2203 20.6996 74.2303 20.6596 74.2503 20.6096C74.2803 20.5096 74.3203 20.4096 74.3603 20.3196C74.5103 19.9696 74.7103 19.6596 74.9803 19.3996C75.2403 19.1396 75.5403 18.9396 75.9003 18.7896C76.0203 18.7396 76.1503 18.6996 76.2803 18.6596C76.3103 18.6596 76.3403 18.6396 76.3703 18.6396C76.4203 18.6296 76.4803 18.6196 76.5303 18.6096C76.6903 18.5796 76.8603 18.5696 77.0303 18.5696C78.0803 18.5696 79.0103 19.1296 79.5203 19.9696C79.5503 20.0196 79.5803 20.0796 79.6103 20.1296C79.6303 20.1696 79.6503 20.2096 79.6603 20.2396C79.6803 20.2696 79.6903 20.3096 79.7103 20.3396C79.7403 20.4196 79.7803 20.5096 79.8003 20.5896C79.8903 20.8696 79.9403 21.1596 79.9403 21.4696C79.9403 21.6696 79.9203 21.8596 79.8803 22.0496C79.6203 23.3396 78.5103 24.3096 77.1603 24.3696H77.1503Z" fill="white"/>
<path d="M73.1105 19.9299C72.9205 20.4099 72.8205 20.9199 72.8205 21.4699C72.8205 21.8699 72.8706 22.2499 72.9706 22.6099C72.8606 22.2499 72.8105 21.8599 72.8105 21.4599C72.8105 20.9199 72.9205 20.3999 73.1105 19.9199V19.9299Z" fill="#111113"/>
<path d="M81.9503 32.6198C82.1822 32.6198 82.3703 32.4317 82.3703 32.1998C82.3703 31.9678 82.1822 31.7798 81.9503 31.7798C81.7183 31.7798 81.5303 31.9678 81.5303 32.1998C81.5303 32.4317 81.7183 32.6198 81.9503 32.6198Z" fill="#30A46C"/>
</g>
<defs>
<clipPath id="clip0_2482_38054">
<rect width="100" height="39.54" fill="white"/>
</clipPath>
</defs>
</svg>
