<?xml version="1.0" encoding="UTF-8"?><svg id="uuid-b97ed2e3-13d5-4bba-acc5-c86dc5e4c1f7" xmlns="http://www.w3.org/2000/svg" viewBox="0 0 354.53 174.34"><defs><style>.uuid-b1f871e2-9a53-465a-af95-1af4ba1d0c0f{fill:#3dd68c;}.uuid-b1f871e2-9a53-465a-af95-1af4ba1d0c0f,.uuid-e246772d-2ac5-482d-8255-56a993e48c03,.uuid-c11b4a81-7a25-4dca-88ad-173859223424{stroke-width:0px;}.uuid-e246772d-2ac5-482d-8255-56a993e48c03{fill:#fff;}.uuid-c11b4a81-7a25-4dca-88ad-173859223424{fill:#777b84;}</style></defs><g id="uuid-85838bdc-19d5-41d5-9ed0-dc6ffe1820ea"><path class="uuid-c11b4a81-7a25-4dca-88ad-173859223424" d="m209.31,159.87h-5.99v-37.05h5.99v6.27c2.78-4.7,7.2-7.05,13.18-7.05h1v6.63c-.78-.29-1.64-.43-2.64-.43-3.21,0-5.99,1-8.19,3.06-2.21,2.07-3.35,4.56-3.35,7.62v20.95Z"/><path class="uuid-c11b4a81-7a25-4dca-88ad-173859223424" d="m258.19,128.09v-5.27h5.99v37.05h-5.99v-5.27c-3.49,4.06-8.05,6.06-13.54,6.06-5.2,0-9.55-1.85-13.04-5.49-3.49-3.71-5.2-8.34-5.2-13.82s1.71-10.12,5.2-13.75c3.49-3.71,7.84-5.56,13.04-5.56,5.49,0,10.05,2,13.54,6.06Zm-21.95,3.78c-2.42,2.49-3.63,5.7-3.63,9.48s1.21,6.98,3.63,9.55c2.49,2.49,5.49,3.78,9.05,3.78s6.63-1.28,9.05-3.78c2.49-2.57,3.71-5.77,3.71-9.55s-1.21-6.98-3.71-9.48c-2.42-2.57-5.42-3.85-9.05-3.85s-6.56,1.28-9.05,3.85Z"/><path class="uuid-c11b4a81-7a25-4dca-88ad-173859223424" d="m306.79,127.59c-3.49-3.7-7.84-5.55-13.04-5.55-5.48,0-9.98,1.99-13.46,6.05v-5.27h-6v51.51c1.25-.67,5.23-.55,6-.12v-19.61c3.48,4.05,7.98,6.05,13.46,6.05,5.2,0,9.55-1.86,13.04-5.48,3.49-3.71,5.27-8.34,5.27-13.83s-1.77-10.12-5.27-13.76Zm-4.63,23.31c-2.42,2.49-5.42,3.78-9.05,3.78s-6.55-1.29-9.06-3.78c-2.41-2.57-3.63-5.77-3.63-9.55s1.22-6.99,3.63-9.48c2.51-2.56,5.5-3.85,9.06-3.85s6.62,1.29,9.05,3.85c2.49,2.49,3.71,5.7,3.71,9.48s-1.22,6.97-3.71,9.55Z"/><path class="uuid-c11b4a81-7a25-4dca-88ad-173859223424" d="m320.25,106.43h5.99v22.59c2.92-4.63,7.34-6.98,13.25-6.98,4.35,0,7.91,1.43,10.76,4.2,2.85,2.78,4.28,6.34,4.28,10.55v23.09h-5.99v-21.52c0-2.99-1-5.49-3.06-7.55-2.07-2.07-4.56-3.06-7.62-3.06-3.28,0-6.06,1.07-8.27,3.14-2.21,2.07-3.35,4.56-3.35,7.62v21.38h-5.99v-53.44Z"/><path class="uuid-c11b4a81-7a25-4dca-88ad-173859223424" d="m195.2,135.5c-.15,7.32-2.76,13.52-7.76,18.45-5.06,4.91-11.29,7.39-18.51,7.39s-13.73-2.54-18.73-7.55c-5-5-7.55-11.35-7.55-18.87,0-6.71,2.07-12.49,6.16-17.24.48-.57.99-1.11,1.53-1.64l.08-.08c2.35-2.29,4.99-4.07,7.9-5.31.17-.07.34-.14.51-.2.58-.24,1.17-.46,1.78-.65.35-.11.71-.21,1.08-.31,2.19-.59,4.51-.92,6.96-.98.28,0,.56-.01.84-.01.52,0,1.03.01,1.53.04.23.01.46.03.69.05,1.06.08,2.1.21,3.11.4,1.46.27,2.87.65,4.24,1.14.88.32,1.75.68,2.58,1.08,1.06.5,2.08,1.08,3.05,1.73,1.56,1.03,3.01,2.22,4.31,3.58,1.53,1.57,2.85,3.34,3.96,5.3l.39.7-7.57,2.84-.29-.49c-2.32-3.9-6-6.68-10.35-7.97-1.24-.37-2.54-.62-3.88-.74-.59-.05-1.18-.08-1.78-.08-.36,0-.71,0-1.06.03-1.69.07-3.28.33-4.78.79-2.84.85-5.34,2.38-7.57,4.61-3.65,3.59-5.43,7.97-5.43,13.41s1.71,9.83,5.23,13.48c3.52,3.6,7.72,5.35,12.83,5.35,4.38,0,8.19-1.33,11.61-4.05,3.12-2.55,5.14-5.81,6-9.67h-19.65v-7.37h28.33l.09,1.04c.06.69.11,1.28.11,1.79Z"/><path class="uuid-c11b4a81-7a25-4dca-88ad-173859223424" d="m207.12,104h-5.99v-37.05h5.99v6.27c2.78-4.7,7.2-7.05,13.18-7.05h1v6.63c-.78-.29-1.64-.43-2.64-.43-3.21,0-5.99,1-8.19,3.06-2.21,2.07-3.35,4.56-3.35,7.62v20.95Z"/><path class="uuid-c11b4a81-7a25-4dca-88ad-173859223424" d="m256.01,72.22v-5.27h5.99v37.05h-5.99v-5.27c-3.49,4.06-8.05,6.06-13.54,6.06-5.2,0-9.55-1.85-13.04-5.49-3.49-3.71-5.2-8.34-5.2-13.82s1.71-10.12,5.2-13.75c3.49-3.71,7.84-5.56,13.04-5.56,5.49,0,10.05,2,13.54,6.06Zm-21.95,3.78c-2.42,2.49-3.63,5.7-3.63,9.48s1.21,6.98,3.63,9.55c2.49,2.49,5.49,3.78,9.05,3.78s6.63-1.28,9.05-3.78c2.49-2.57,3.71-5.77,3.71-9.55s-1.21-6.98-3.71-9.48c-2.42-2.57-5.42-3.85-9.05-3.85s-6.56,1.28-9.05,3.85Z"/><path class="uuid-c11b4a81-7a25-4dca-88ad-173859223424" d="m272.11,66.94h5.99v6.2c2.92-4.63,7.27-6.98,13.18-6.98,4.28,0,7.84,1.43,10.62,4.2,2.85,2.78,4.28,6.34,4.28,10.55v23.09h-5.99v-21.52c0-2.99-1-5.49-3.06-7.55-1.99-2.07-4.49-3.06-7.48-3.06-3.21,0-5.99,1.07-8.19,3.14-2.21,2.07-3.35,4.56-3.35,7.62v21.38h-5.99v-37.05Z"/><path class="uuid-c11b4a81-7a25-4dca-88ad-173859223424" d="m312.15,66.94h5.99v-7.41h5.99v7.41h10.33v5.27h-10.33v20.17c0,3.35,2.28,5.84,5.34,5.84h4.99v5.77h-5.42c-3.06,0-5.7-1.07-7.77-3.14-2.07-2.07-3.14-4.7-3.14-7.77v-20.88h-5.99v-5.27Z"/><path class="uuid-c11b4a81-7a25-4dca-88ad-173859223424" d="m195.2,79.63c-.15,7.32-2.76,13.52-7.76,18.45-5.06,4.91-11.29,7.39-18.51,7.39s-13.73-2.54-18.73-7.55c-5-5-7.55-11.35-7.55-18.87,0-6.71,2.07-12.49,6.16-17.24.48-.57.99-1.11,1.53-1.64l.08-.08c2.35-2.29,4.99-4.07,7.9-5.31.17-.07.34-.14.51-.2.58-.24,1.17-.46,1.78-.65.35-.11.71-.21,1.08-.31,2.19-.59,4.51-.92,6.96-.98.28,0,.56-.01.84-.01.52,0,1.03.01,1.53.04.23.01.46.03.69.05,1.06.08,2.1.21,3.11.4,1.46.27,2.87.65,4.24,1.14.88.32,1.75.68,2.58,1.08,1.06.5,2.08,1.08,3.05,1.73,1.56,1.03,3.01,2.22,4.31,3.58,1.53,1.57,2.85,3.34,3.96,5.3l.39.7-7.57,2.84-.29-.49c-2.32-3.9-6-6.68-10.35-7.97-1.24-.37-2.54-.62-3.88-.74-.59-.05-1.18-.08-1.78-.08-.36,0-.71,0-1.06.03-1.69.07-3.28.33-4.78.79-2.84.85-5.34,2.38-7.57,4.61-3.65,3.59-5.43,7.97-5.43,13.41s1.71,9.83,5.23,13.48c3.52,3.6,7.72,5.35,12.83,5.35,4.38,0,8.19-1.33,11.61-4.05,3.12-2.55,5.14-5.81,6-9.67h-19.65v-7.37h28.33l.09,1.04c.06.69.11,1.28.11,1.79Z"/><polygon class="uuid-b1f871e2-9a53-465a-af95-1af4ba1d0c0f" points="11.07 43.02 9.22 44.07 7.03 45.3 3.31 47.41 1.44 44.12 5.53 41.81 7.87 40.48 9.22 39.73 11.07 43.02"/><path class="uuid-b1f871e2-9a53-465a-af95-1af4ba1d0c0f" d="m31.68,50.88c-1.16.57-2.16,1.4-2.91,2.42l-5.03-6.47v-.1s-.03.04-.04.05l-.25-.32-1.34-1.72-1.72-2.21,2.98-2.33.56.72,1.92,2.46,5.84,7.5Z"/><path class="uuid-b1f871e2-9a53-465a-af95-1af4ba1d0c0f" d="m23.73,46.73v.1l-.04-.05s.03-.04.04-.05Z"/><path class="uuid-b1f871e2-9a53-465a-af95-1af4ba1d0c0f" d="m32.74,52.23l-2.99,2.33-.98-1.26c.76-1.02,1.75-1.85,2.91-2.42l1.06,1.35Z"/><rect class="uuid-b1f871e2-9a53-465a-af95-1af4ba1d0c0f" x="35.12" y="44.82" width="22.19" height="3.79" transform="translate(-16.1 67.58) rotate(-63.83)"/><path class="uuid-b1f871e2-9a53-465a-af95-1af4ba1d0c0f" d="m66.39,12.46l-1.75,3.57-5.41,11.01-3.39-1.67,5.42-11.05,1.78-3.61c.77,1.03,1.98,1.72,3.35,1.75Z"/><polygon class="uuid-b1f871e2-9a53-465a-af95-1af4ba1d0c0f" points="68.88 7.39 68.88 7.4 68.87 7.38 68.88 7.39"/><path class="uuid-b1f871e2-9a53-465a-af95-1af4ba1d0c0f" d="m77.58,25.37l-3.4,1.67-5.37-11.11-1.7-3.5c1.37-.18,2.52-.99,3.18-2.14l1.81,3.75,5.49,11.33Z"/><path class="uuid-b1f871e2-9a53-465a-af95-1af4ba1d0c0f" d="m23.73,47.17v35.33c-.44.17-.87.33-1.3.51-.26.08-.51.19-.76.29l-.13.06c-4.57,1.94-8.78,4.73-12.51,8.34v-43.68c1.86,1.61,4.27,2.56,6.9,2.56,3.05,0,5.8-1.28,7.76-3.35.02-.02.03-.04.04-.05Z"/><path class="uuid-b1f871e2-9a53-465a-af95-1af4ba1d0c0f" d="m61.64,38.41v47.36c-.94-.55-1.89-1.06-2.86-1.52-1.31-.63-2.7-1.22-4.15-1.75-2.18-.78-4.47-1.4-6.77-1.82-.22-.05-.45-.08-.68-.12v-26.74s5.67-11.8,5.67-11.8c7.69.14,8.8-3.61,8.8-3.61Z"/><path class="uuid-b1f871e2-9a53-465a-af95-1af4ba1d0c0f" d="m42.61,64.52v15.5c-.27-.02-.53-.04-.81-.06-.8-.05-1.63-.06-2.45-.06-.43,0-.86,0-1.32.02-3.53.09-6.93.53-10.1,1.32v-17.02c1.72,2.18,4.37,3.56,7.34,3.56,2.45,0,4.71-.94,6.39-2.52.62-.43.96-.74.96-.74Z"/><path class="uuid-c11b4a81-7a25-4dca-88ad-173859223424" d="m35.26,50.04c-1.29,0-2.5.3-3.58.85-1.16.57-2.16,1.4-2.91,2.42-1.02,1.35-1.63,3.04-1.63,4.86,0,4.48,3.65,8.13,8.13,8.13s8.13-3.65,8.13-8.13-3.65-8.13-8.13-8.13Zm0,12.47c-2.4,0-4.34-1.94-4.34-4.34s1.94-4.34,4.34-4.34,4.34,1.94,4.34,4.34-1.94,4.34-4.34,4.34Z"/><path class="uuid-c11b4a81-7a25-4dca-88ad-173859223424" d="m35.26,50.04c-1.29,0-2.5.3-3.58.85-1.16.57-2.16,1.4-2.91,2.42-1.02,1.35-1.63,3.04-1.63,4.86,0,4.48,3.65,8.13,8.13,8.13s8.13-3.65,8.13-8.13-3.65-8.13-8.13-8.13Zm0,12.47c-2.4,0-4.34-1.94-4.34-4.34s1.94-4.34,4.34-4.34,4.34,1.94,4.34,4.34-1.94,4.34-4.34,4.34Z"/><path class="uuid-c11b4a81-7a25-4dca-88ad-173859223424" d="m66.52,0c-4.47,0-8.13,3.64-8.13,8.13,0,2.47,1.11,4.7,2.86,6.19.95.81,2.11,1.41,3.38,1.71.6.14,1.23.22,1.88.22.79,0,1.56-.11,2.28-.32,1.24-.36,2.37-1.01,3.29-1.88,1.58-1.49,2.57-3.59,2.57-5.92,0-4.48-3.65-8.13-8.14-8.13Zm.58,12.43c-.19.03-.38.04-.58.04-.04,0-.09,0-.13-.01-1.37-.03-2.58-.72-3.35-1.75-.55-.72-.86-1.62-.86-2.58,0-2.4,1.95-4.34,4.34-4.34s4.34,1.94,4.34,4.34c0,.79-.21,1.53-.59,2.17-.66,1.14-1.81,1.95-3.18,2.14Z"/><path class="uuid-b1f871e2-9a53-465a-af95-1af4ba1d0c0f" d="m100.19,50.86c1.16.57,2.16,1.4,2.91,2.42l5.03-6.47v-.1s.03.04.04.05l.25-.32,1.34-1.72,1.72-2.21-2.98-2.33-.56.72-1.92,2.46-5.84,7.5Z"/><path class="uuid-b1f871e2-9a53-465a-af95-1af4ba1d0c0f" d="m108.14,46.71v.1l.04-.05s-.03-.04-.04-.05Z"/><path class="uuid-b1f871e2-9a53-465a-af95-1af4ba1d0c0f" d="m99.13,52.21l2.99,2.33.98-1.26c-.76-1.02-1.75-1.85-2.91-2.42l-1.06,1.35Z"/><path class="uuid-b1f871e2-9a53-465a-af95-1af4ba1d0c0f" d="m126.15,26.66l-.69.91-4.24,5.68-.31.41-.04.06-1.97,2.59c-.03-.05-.06-.09-.1-.13-.39-.45-.87-.82-1.41-1.08-.16-.69-.49-1.32-.93-1.84l1.01-1.34.49-.65.81-1.06,3.62-4.87.78-1.02,2.98,2.34Z"/><rect class="uuid-b1f871e2-9a53-465a-af95-1af4ba1d0c0f" x="83.77" y="35.6" width="3.79" height="22.19" transform="translate(-11.81 42.57) rotate(-26.17)"/><path class="uuid-b1f871e2-9a53-465a-af95-1af4ba1d0c0f" d="m122.85,47.99v41.28c-.99-.79-2.03-1.54-3.1-2.25-1.58-1.04-3.24-1.98-4.89-2.77-1.3-.63-2.69-1.22-4.16-1.75-.84-.3-1.69-.58-2.56-.82v-34.55s.02.04.03.06c1.97,2.06,4.71,3.35,7.77,3.35,2.64,0,5.05-.95,6.9-2.56Z"/><path class="uuid-b1f871e2-9a53-465a-af95-1af4ba1d0c0f" d="m84.71,53.81v27.27c-.57.12-1.11.26-1.65.4-.6.16-1.18.32-1.76.51-.99.31-1.9.64-2.79,1.01-.25.08-.51.19-.75.29l-.14.06c-2.58,1.1-5.06,2.47-7.38,4.12v-49.08s1.1,3.74,8.79,3.61l5.69,11.8Z"/><path class="uuid-b1f871e2-9a53-465a-af95-1af4ba1d0c0f" d="m103.96,64.21v16.47h-.02c-1.59-.3-3.27-.51-4.93-.63-.37-.04-.74-.06-1.14-.08-.8-.05-1.62-.06-2.45-.06-.43,0-.87,0-1.32.02-1.65.05-3.26.17-4.84.36v-15.78s.34.32.96.75c1.68,1.58,3.93,2.52,6.39,2.52,2.98,0,5.63-1.39,7.34-3.56Z"/><path class="uuid-c11b4a81-7a25-4dca-88ad-173859223424" d="m96.61,50.02c1.29,0,2.5.3,3.58.85,1.16.57,2.16,1.4,2.91,2.42,1.02,1.35,1.63,3.04,1.63,4.86,0,4.48-3.65,8.13-8.13,8.13s-8.13-3.65-8.13-8.13,3.65-8.13,8.13-8.13Zm0,12.47c2.4,0,4.34-1.94,4.34-4.34s-1.94-4.34-4.34-4.34-4.34,1.94-4.34,4.34,1.94,4.34,4.34,4.34Z"/><path class="uuid-c11b4a81-7a25-4dca-88ad-173859223424" d="m96.61,50.02c1.29,0,2.5.3,3.58.85,1.16.57,2.16,1.4,2.91,2.42,1.02,1.35,1.63,3.04,1.63,4.86,0,4.48-3.65,8.13-8.13,8.13s-8.13-3.65-8.13-8.13,3.65-8.13,8.13-8.13Zm0,12.47c2.4,0,4.34-1.94,4.34-4.34s-1.94-4.34-4.34-4.34-4.34,1.94-4.34,4.34,1.94,4.34,4.34,4.34Z"/><path class="uuid-c11b4a81-7a25-4dca-88ad-173859223424" d="m123.24,36.59c-.27-.89-.69-1.71-1.24-2.43-.24-.32-.5-.62-.79-.9-.03-.04-.07-.08-.11-.12-.59-.56-1.27-1.04-2.02-1.4-.36-.18-.74-.34-1.13-.46-.77-.26-1.6-.39-2.45-.39-4.48,0-8.13,3.65-8.13,8.13s3.65,8.12,8.13,8.12,8.12-3.64,8.12-8.12c0-.84-.13-1.66-.38-2.43Zm-3.91,4.46c-.72,1.38-2.17,2.31-3.83,2.31-2.4,0-4.34-1.94-4.34-4.34s1.94-4.34,4.34-4.34c.67,0,1.31.15,1.88.43.54.26,1.02.63,1.41,1.08.04.04.07.08.1.13.59.74.95,1.68.95,2.7,0,.73-.18,1.42-.51,2.03Z"/><path class="uuid-c11b4a81-7a25-4dca-88ad-173859223424" d="m123.24,36.59c-.27-.89-.69-1.71-1.24-2.43-.24-.32-.5-.62-.79-.9-.03-.04-.07-.08-.11-.12-.59-.56-1.27-1.04-2.02-1.4-.36-.18-.74-.34-1.13-.46-.77-.26-1.6-.39-2.45-.39-4.48,0-8.13,3.65-8.13,8.13s3.65,8.12,8.13,8.12,8.12-3.64,8.12-8.12c0-.84-.13-1.66-.38-2.43Zm-3.91,4.46c-.72,1.38-2.17,2.31-3.83,2.31-2.4,0-4.34-1.94-4.34-4.34s1.94-4.34,4.34-4.34c.67,0,1.31.15,1.88.43.54.26,1.02.63,1.41,1.08.04.04.07.08.1.13.59.74.95,1.68.95,2.7,0,.73-.18,1.42-.51,2.03Z"/><path class="uuid-e246772d-2ac5-482d-8255-56a993e48c03" d="m130.42,104.14l-11.09,4.15-.43-.72c-3.39-5.72-8.79-9.79-15.18-11.68-1.82-.55-3.72-.91-5.69-1.08-.85-.07-1.73-.11-2.61-.11-.52,0-1.04,0-1.54.04-2.48.1-4.81.49-7,1.16-4.16,1.24-7.83,3.48-11.1,6.76-.5.49-.97.97-1.41,1.48l-.6-1.01c-1.62-2.88-3.57-5.48-5.8-7.78-.21-.22-.43-.44-.65-.66,0-.02.03-.04.04-.05l.11-.11c3.44-3.36,7.32-5.98,11.59-7.79.24-.1.5-.21.74-.29.85-.35,1.72-.66,2.61-.95.51-.17,1.05-.31,1.58-.46,3.21-.86,6.62-1.34,10.2-1.43.4,0,.82-.02,1.23-.02.76,0,1.51.02,2.25.06.34.03.67.05,1.01.07,1.54.11,3.07.3,4.56.59,2.14.4,4.21.95,6.21,1.67,1.3.46,2.56.99,3.79,1.59,1.54.74,3.04,1.58,4.48,2.53,2.28,1.51,4.41,3.25,6.32,5.25,2.23,2.3,4.17,4.9,5.8,7.78l.57,1.02Z"/><path class="uuid-e246772d-2ac5-482d-8255-56a993e48c03" d="m133.12,123.15c-.22,10.73-4.04,19.81-11.37,27.05-7.42,7.19-16.55,10.84-27.15,10.84s-20.13-3.72-27.46-11.07c-.21-.21-.42-.42-.63-.63-.28.29-.56.58-.85.86-7.42,7.19-16.55,10.84-27.15,10.84s-20.13-3.72-27.46-11.07c-7.34-7.33-11.06-16.64-11.06-27.66,0-9.84,3.03-18.31,9.03-25.27.7-.83,1.45-1.63,2.24-2.41l.11-.11c3.45-3.36,7.32-5.98,11.59-7.79.25-.1.5-.21.75-.29.85-.35,1.72-.66,2.61-.95.51-.17,1.04-.31,1.57-.46,3.21-.86,6.62-1.34,10.2-1.43.4,0,.82-.02,1.24-.02.75,0,1.51.02,2.24.06.34.03.68.05,1.01.07,1.54.11,3.08.3,4.57.59,2.13.4,4.21.95,6.21,1.67,1.3.46,2.56.99,3.78,1.59,1.55.74,3.05,1.58,4.48,2.53,1.19.78,2.32,1.62,3.41,2.55.78.64,1.53,1.31,2.26,2.04,0-.02.03-.04.04-.05l.11-.11c3.44-3.36,7.32-5.98,11.59-7.79.24-.1.5-.21.74-.29.85-.35,1.72-.66,2.61-.95.51-.17,1.05-.31,1.58-.46,3.21-.86,6.62-1.34,10.2-1.43.4,0,.82-.02,1.23-.02.76,0,1.51.02,2.25.06.34.03.67.05,1.01.07,1.54.11,3.07.3,4.56.59,2.14.4,4.21.95,6.21,1.67,1.3.46,2.56.99,3.79,1.59,1.54.74,3.04,1.58,4.48,2.53,2.28,1.51,4.41,3.25,6.32,5.25,2.23,2.3,4.17,4.9,5.8,7.78l.57,1.02-11.09,4.15-.43-.72c-3.39-5.72-8.79-9.79-15.18-11.68-1.82-.55-3.72-.91-5.69-1.08-.85-.07-1.73-.11-2.61-.11-.52,0-1.04,0-1.54.04-2.48.1-4.81.49-7,1.16-4.16,1.24-7.83,3.48-11.1,6.76-.5.49-.97.97-1.41,1.48-.09.1-.17.2-.27.3l-10.85,3.86-.42-.72c-.74-1.24-1.58-2.42-2.51-3.5-.69-.81-1.42-1.57-2.21-2.3-2.95-2.72-6.52-4.73-10.47-5.88-1.82-.55-3.72-.91-5.68-1.08-.86-.07-1.74-.11-2.61-.11-.53,0-1.05,0-1.55.04-2.48.1-4.81.49-7,1.16-4.15,1.24-7.83,3.48-11.1,6.76-5.35,5.27-7.95,11.69-7.95,19.66s2.5,14.41,7.66,19.77c5.17,5.27,11.32,7.84,18.81,7.84,6.43,0,12.01-1.94,17.02-5.94,1.7-1.4,3.19-2.94,4.44-4.61,2.11-2.81,3.57-6.02,4.36-9.58h-28.82v-10.81h41.54l.13,1.53c.08,1.02.17,1.88.17,2.63-.13,5.98-1.38,11.46-3.74,16.39.66.88,1.39,1.72,2.18,2.55,5.17,5.27,11.32,7.84,18.81,7.84,6.43,0,12.01-1.94,17.02-5.94,4.57-3.74,7.54-8.51,8.79-14.18h-28.81v-10.81h41.53l.14,1.53c.07,1.02.16,1.88.16,2.63Z"/><path class="uuid-c11b4a81-7a25-4dca-88ad-173859223424" d="m133.12,123.15c-.22,10.73-4.04,19.81-11.37,27.05-7.42,7.19-16.55,10.84-27.15,10.84s-20.13-3.72-27.46-11.07c-.21-.21-.42-.42-.63-.63-.28.29-.56.58-.85.86-7.42,7.19-16.55,10.84-27.15,10.84s-20.13-3.72-27.46-11.07c-7.34-7.33-11.06-16.64-11.06-27.66,0-9.84,3.03-18.31,9.03-25.27.7-.83,1.45-1.63,2.24-2.41l.11-.11c3.45-3.36,7.32-5.98,11.59-7.79.25-.1.5-.21.75-.29.85-.35,1.72-.66,2.61-.95.51-.17,1.04-.31,1.57-.46,3.21-.86,6.62-1.34,10.2-1.43.4,0,.82-.02,1.24-.02.75,0,1.51.02,2.24.06.34.03.68.05,1.01.07,1.54.11,3.08.3,4.57.59,2.13.4,4.21.95,6.21,1.67,1.3.46,2.56.99,3.78,1.59,1.55.74,3.05,1.58,4.48,2.53,1.19.78,2.32,1.62,3.41,2.55.78.64,1.53,1.31,2.26,2.04,0-.02.03-.04.04-.05l.11-.11c3.44-3.36,7.32-5.98,11.59-7.79.24-.1.5-.21.74-.29.85-.35,1.72-.66,2.61-.95.51-.17,1.05-.31,1.58-.46,3.21-.86,6.62-1.34,10.2-1.43.4,0,.82-.02,1.23-.02.76,0,1.51.02,2.25.06.34.03.67.05,1.01.07,1.54.11,3.07.3,4.56.59,2.14.4,4.21.95,6.21,1.67,1.3.46,2.56.99,3.79,1.59,1.54.74,3.04,1.58,4.48,2.53,2.28,1.51,4.41,3.25,6.32,5.25,2.23,2.3,4.17,4.9,5.8,7.78l.57,1.02-11.09,4.15-.43-.72c-3.39-5.72-8.79-9.79-15.18-11.68-1.82-.55-3.72-.91-5.69-1.08-.85-.07-1.73-.11-2.61-.11-.52,0-1.04,0-1.54.04-2.48.1-4.81.49-7,1.16-4.16,1.24-7.83,3.48-11.1,6.76-.5.49-.97.97-1.41,1.48-.09.1-.17.2-.27.3l-10.85,3.86-.42-.72c-.74-1.24-1.58-2.42-2.51-3.5-.69-.81-1.42-1.57-2.21-2.3-2.95-2.72-6.52-4.73-10.47-5.88-1.82-.55-3.72-.91-5.68-1.08-.86-.07-1.74-.11-2.61-.11-.53,0-1.05,0-1.55.04-2.48.1-4.81.49-7,1.16-4.15,1.24-7.83,3.48-11.1,6.76-5.35,5.27-7.95,11.69-7.95,19.66s2.5,14.41,7.66,19.77c5.17,5.27,11.32,7.84,18.81,7.84,6.43,0,12.01-1.94,17.02-5.94,1.7-1.4,3.19-2.94,4.44-4.61,2.11-2.81,3.57-6.02,4.36-9.58h-28.82v-10.81h41.54l.13,1.53c.08,1.02.17,1.88.17,2.63-.13,5.98-1.38,11.46-3.74,16.39.66.88,1.39,1.72,2.18,2.55,5.17,5.27,11.32,7.84,18.81,7.84,6.43,0,12.01-1.94,17.02-5.94,4.57-3.74,7.54-8.51,8.79-14.18h-28.81v-10.81h41.53l.14,1.53c.07,1.02.16,1.88.16,2.63Z"/><polygon class="uuid-b1f871e2-9a53-465a-af95-1af4ba1d0c0f" points="119.53 23.27 128.56 29.84 129.4 19.59 119.53 23.27"/><path class="uuid-c11b4a81-7a25-4dca-88ad-173859223424" d="m54.3,39.54c-4.48,0-8.13-3.65-8.13-8.13s3.65-8.13,8.13-8.13,8.13,3.65,8.13,8.13-3.65,8.13-8.13,8.13Zm0-12.47c-2.39,0-4.34,1.95-4.34,4.34s1.95,4.34,4.34,4.34,4.34-1.95,4.34-4.34-1.95-4.34-4.34-4.34Z"/><path class="uuid-c11b4a81-7a25-4dca-88ad-173859223424" d="m19.93,37.8c.11.26.19.53.25.81-.05-.28-.14-.55-.25-.81Zm1.87,7.28c-.09.1-.19.2-.29.29h0c.1-.09.2-.19.3-.29h0Zm-1.36,1.15s.05-.02.07-.04c.05-.03.1-.07.14-.11l-.21.15Z"/><path class="uuid-c11b4a81-7a25-4dca-88ad-173859223424" d="m77.57,39.52c4.48,0,8.13-3.65,8.13-8.13s-3.65-8.13-8.13-8.13-8.13,3.65-8.13,8.13,3.65,8.13,8.13,8.13Zm0-12.47c2.39,0,4.34,1.95,4.34,4.34s-1.95,4.34-4.34,4.34-4.34-1.95-4.34-4.34,1.95-4.34,4.34-4.34Z"/><path class="uuid-c11b4a81-7a25-4dca-88ad-173859223424" d="m9.22,44.07h0s.06.09.1.13c-.03-.04-.06-.08-.09-.13Zm2.56-5.87c-.13.41-.2.84-.2,1.29s.07.87.2,1.28c-.12-.4-.19-.83-.19-1.28s.07-.88.19-1.29Z"/><path class="uuid-c11b4a81-7a25-4dca-88ad-173859223424" d="m9.22,44.07h0s.06.09.1.13c-.03-.04-.06-.08-.09-.13Zm2.56-5.87c-.13.41-.2.84-.2,1.29s.07.87.2,1.28c-.12-.4-.19-.83-.19-1.28s.07-.88.19-1.29Z"/><path class="uuid-c11b4a81-7a25-4dca-88ad-173859223424" d="m20.44,46.23s.05-.02.07-.04c.05-.03.1-.07.14-.11l-.21.15Z"/><path class="uuid-c11b4a81-7a25-4dca-88ad-173859223424" d="m15.93,31.36c-2.24,0-4.27.91-5.74,2.38-.18.18-.36.38-.53.58-.16.2-.32.41-.47.63-.88,1.3-1.39,2.86-1.39,4.54,0,.17,0,.34.02.5s.02.32.04.48v.02c.16,1.31.64,2.53,1.35,3.58h0s.06.09.09.13c.15.22.32.43.5.64.11.12.22.24.33.35.2.2.4.39.62.57.03.02.07.05.1.08.25.2.52.38.79.56.02,0,.04.02.06.04.26.15.53.3.8.42.3.14.6.26.92.36.15.05.31.1.47.14s.33.08.5.11c.33.07.67.11,1.01.13.17.01.34.02.52.02.56,0,1.11-.06,1.64-.17.13-.02.26-.05.39-.09.13-.03.26-.07.38-.11.08-.02.16-.05.24-.08.14-.05.28-.1.41-.15.13-.06.27-.12.4-.18.24-.12.47-.25.7-.39.12-.07.24-.14.35-.22l.21-.15s.05-.03.08-.05c.13-.1.26-.2.38-.3.03-.02.05-.05.08-.07.11-.09.21-.18.31-.28h0c.1-.1.2-.2.29-.3h0c.1-.11.2-.22.29-.33.91-1.07,1.56-2.38,1.82-3.82.1-.47.13-.95.13-1.44,0-4.48-3.64-8.13-8.12-8.13Zm4.25,9c-.03.14-.06.28-.11.42-.21.68-.58,1.28-1.07,1.77-.29.3-.63.55-1,.75-.62.34-1.32.53-2.07.53s-1.46-.19-2.07-.53c-.37-.2-.7-.45-.99-.75-.15-.14-.29-.3-.42-.47-.13-.16-.24-.34-.34-.52h0c-.14-.26-.25-.52-.33-.78h0c-.13-.42-.2-.85-.2-1.29s.07-.88.2-1.29c.08-.27.19-.53.33-.78.07-.12.14-.24.22-.36.16-.23.34-.45.53-.64.79-.78,1.87-1.27,3.07-1.27,1.5,0,2.83.76,3.6,1.92.16.23.29.47.4.73s.2.53.25.81c.06.29.09.58.09.88s-.03.59-.09.87Z"/></g></svg>